<?xml version="1.0" encoding="utf-8"?>
<!-- Generator: Adobe Illustrator 25.2.0, SVG Export Plug-In . SVG Version: 6.00 Build 0)  -->
<svg version="1.1" id="Layer_1" xmlns="http://www.w3.org/2000/svg" xmlns:xlink="http://www.w3.org/1999/xlink" x="0px" y="0px"
	 viewBox="0 0 53 52" style="enable-background:new 0 0 53 52;" xml:space="preserve">
<style type="text/css">
	.st0{clip-path:url(#SVGID_2_);}
	.st1{clip-path:url(#SVGID_4_);fill:#FFFFFF;}
	.st2{fill:#FFFFFF;}
</style>
<g>
	<g>
		<defs>
			<path id="SVGID_1_" d="M36.2,35.4L36.2,35.4c0-0.1,0-0.3,0-0.4v-2.4c0-5.7-4.5-10.5-10.2-10.6c-5.7,0.1-10.2,4.9-10.2,10.6V35
				c0,0.1,0,0.2,0,0.3l0,0c-0.2,0.1-0.4,0.3-0.4,0.5v2.6c0,0.2,0.2,0.5,0.4,0.5l0,0c0,0.1,0,0.2,0,0.3v0.1l0,0
				c0.2,1,1.1,1.8,2.2,1.8h0.5c0.6,0,1.1-0.5,1.1-1.1v-5.9c0-0.6-0.5-1.1-1.1-1.1H18c-0.3,0-0.5,0.1-0.8,0.2v-0.6
				c0-4.9,3.9-9.1,8.8-9.2c4.9,0.1,8.8,4.2,8.8,9.2v0.6C34.6,33.1,34.3,33,34,33h-0.5c-0.6,0-1.1,0.5-1.1,1.1V40
				c0,0.6,0.5,1.1,1.1,1.1H34c1.1,0,2-0.8,2.2-1.8l0,0v-0.1c0-0.1,0-0.2,0-0.3l0,0c0.2-0.1,0.4-0.3,0.4-0.5v-2.6
				C36.6,35.6,36.5,35.4,36.2,35.4"/>
		</defs>
		<use xlink:href="#SVGID_1_"  style="overflow:visible;fill:#FFFFFF;"/>
		<clipPath id="SVGID_2_">
			<use xlink:href="#SVGID_1_"  style="overflow:visible;"/>
		</clipPath>
		<g class="st0">
			<g>
				<defs>
					<rect id="SVGID_3_" x="-171.5" y="-1366.6" width="1387.6" height="4286.3"/>
				</defs>
				<use xlink:href="#SVGID_3_"  style="overflow:visible;fill:#FFFFFF;"/>
				<clipPath id="SVGID_4_">
					<use xlink:href="#SVGID_3_"  style="overflow:visible;"/>
				</clipPath>
				<rect x="14.5" y="21.1" class="st1" width="23.1" height="21.2"/>
			</g>
		</g>
	</g>
</g>
<path class="st2" d="M47.5,4.5h-42c-3,0-5.5,2.6-5.5,5.6v33c0,2.7,2,5.2,4.7,5.5c0.9,0.1,19,0.2,27.1,0.2h8.6c2.4,0,4.8,0.1,7,0
	c3.1-0.2,5.4-2.6,5.4-5.7C53,31,53,22.2,53,10.2C53,7.1,50.5,4.6,47.5,4.5z M19.3,8.5c1.2,0,2.2,1.1,2.2,2.2c0.1,1.1-1,2.2-2.2,2.2
	s-2.2-1-2.2-2.2C17.1,9.5,18.1,8.5,19.3,8.5z M10.5,10.6c0-1.2,1-2.2,2.1-2.2c1.3,0,2.2,0.9,2.2,2.2c-0.1,1.4-1,2.3-2.2,2.3
	S10.4,11.9,10.5,10.6z M5.8,8.5C6.9,8.5,8,9.6,8,10.7c0.1,1.1-1,2.2-2.2,2.2s-2.2-1-2.2-2.2C3.6,9.5,4.6,8.5,5.8,8.5z M49.8,41.5
	v0.6c-0.2,2.2-1.5,3.5-3.7,3.5H43H32.1h-0.3H7.1c-2.6,0-4-1.4-4-4.1V16.7v-0.9h33c1,0,1,0,1-1v-2.5c0-0.6,0.2-0.9,0.8-0.9h8.5
	c0.7,0,0.8,0.3,0.8,0.9v2.8c0,0.5,0.2,0.8,0.7,0.7H50v25.7H49.8z"/>
</svg>
