<?xml version="1.0" encoding="utf-8"?>
<!-- Generator: Adobe Illustrator 25.2.0, SVG Export Plug-In . SVG Version: 6.00 Build 0)  -->
<svg version="1.1" id="Layer_1" xmlns="http://www.w3.org/2000/svg" xmlns:xlink="http://www.w3.org/1999/xlink" x="0px" y="0px"
	 viewBox="0 0 53 52" style="enable-background:new 0 0 53 52;" xml:space="preserve">
<style type="text/css">
	.st0{fill-rule:evenodd;clip-rule:evenodd;fill:#FFFFFF;}
	.st1{clip-path:url(#SVGID_2_);}
	.st2{fill:#FFFFFF;}
	.st3{clip-path:url(#SVGID_4_);fill:#FFFFFF;}
	.st4{clip-path:url(#SVGID_6_);}
	.st5{clip-path:url(#SVGID_8_);fill:#FFFFFF;}
	.st6{clip-path:url(#SVGID_10_);}
	.st7{clip-path:url(#SVGID_12_);fill:#FFFFFF;}
</style>
<g>
	<g>
		<path id="SVGID_13_" class="st0" d="M37.2,29.4c-0.3,0-0.6,0-0.8-0.1c-3-0.5-5.1-3.3-4.6-6.3c0.2-1.3,0.9-2.5,1.9-3.4
			c1.2-1,2.8-1.5,4.4-1.3c3,0.4,5.1,3.3,4.6,6.3c-0.2,1.3-0.9,2.5-1.9,3.4C39.8,28.9,38.5,29.4,37.2,29.4 M37.2,19.3
			c-1.1,0-2.1,0.4-3,1.1c-0.8,0.7-1.4,1.7-1.6,2.8c-0.4,2.5,1.3,4.8,3.8,5.2c1.3,0.2,2.6-0.2,3.6-1c0.8-0.7,1.4-1.7,1.6-2.8
			c0.4-2.5-1.3-4.8-3.8-5.2C37.7,19.4,37.5,19.3,37.2,19.3"/>
	</g>
	<g>
		<defs>
			<path id="SVGID_1_" d="M37.2,29.4c-0.3,0-0.6,0-0.8-0.1c-3-0.5-5.1-3.3-4.6-6.3c0.2-1.3,0.9-2.5,1.9-3.4c1.2-1,2.8-1.5,4.4-1.3
				c3,0.4,5.1,3.3,4.6,6.3c-0.2,1.3-0.9,2.5-1.9,3.4C39.8,28.9,38.5,29.4,37.2,29.4 M37.2,19.3c-1.1,0-2.1,0.4-3,1.1
				c-0.8,0.7-1.4,1.7-1.6,2.8c-0.4,2.5,1.3,4.8,3.8,5.2c1.3,0.2,2.6-0.2,3.6-1c0.8-0.7,1.4-1.7,1.6-2.8c0.4-2.5-1.3-4.8-3.8-5.2
				C37.7,19.4,37.5,19.3,37.2,19.3"/>
		</defs>
		<use xlink:href="#SVGID_1_"  style="overflow:visible;fill:#FFFFFF;"/>
		<clipPath id="SVGID_2_">
			<use xlink:href="#SVGID_1_"  style="overflow:visible;"/>
		</clipPath>
		<g class="st1">
			<g>
				<rect id="SVGID_15_" x="-323.9" y="-1043.4" class="st2" width="1056" height="3261.8"/>
			</g>
			<g>
				<defs>
					<rect id="SVGID_3_" x="-323.9" y="-1043.4" width="1056" height="3261.8"/>
				</defs>
				<use xlink:href="#SVGID_3_"  style="overflow:visible;fill:#FFFFFF;"/>
				<clipPath id="SVGID_4_">
					<use xlink:href="#SVGID_3_"  style="overflow:visible;"/>
				</clipPath>
				<rect x="30.6" y="17.5" class="st3" width="13.2" height="12.6"/>
			</g>
		</g>
	</g>
</g>
<g>
	<g>
		<path id="SVGID_17_" class="st0" d="M50.3,24.1L50.3,24.1c-0.5-0.2-0.9-0.4-1.2-0.7c-0.7-0.6-1-1.3-1.3-2c-0.2-0.5-0.4-1-0.6-1.4
			c-0.2-0.6-0.5-1.1-0.7-1.7c-0.2-0.5-0.3-0.9-0.4-1.3c-0.2-0.8,0-1.6,0.3-2.2l0,0c0-0.2-0.1-0.4-0.3-0.6c-0.6-0.5-1.2-1-1.7-1.4
			c0,0-0.1-0.1-0.3-0.1c-0.1,0-0.2-0.1-0.3-0.1c-0.6,0.6-1.5,0.9-2.5,0.9c-0.4,0-0.7-0.1-1-0.2c-0.2,0-0.4-0.1-0.6-0.1
			c-0.4-0.1-0.8-0.1-1.2-0.1c-0.6-0.1-1.2-0.1-1.8-0.2c-1.2-0.2-2.1-0.7-2.6-1.7l0,0c-0.2-0.1-0.4-0.1-1,0.1
			c-0.6,0.2-1.1,0.4-1.5,0.6c-0.3,0.1-0.5,0.3-0.7,0.6v0.1c0.1,0.3,0.1,0.5,0.1,0.8c-0.1,1.2-0.7,2.1-1.2,2.8
			c-0.7,0.8-1.3,1.6-1.9,2.4c-0.1,0.1-0.2,0.2-0.2,0.3c-0.3,0.4-0.8,0.9-1.5,1.2c-0.4,0.2-0.9,0.3-1.4,0.3c-0.1,0-0.1,0-0.1,0l0,0
			c-0.1,0.1-0.2,0.2-0.2,0.3c-0.2,0.8-0.3,1.6-0.4,2.3c0,0.2,0.1,0.5,0.1,0.7c0,0.1,0.1,0.1,0.1,0.2c0.4,0.1,0.8,0.4,1.2,0.7
			c0.7,0.6,1,1.4,1.3,2c0.2,0.5,0.4,1,0.6,1.5s0.4,1.1,0.6,1.6s0.3,0.9,0.4,1.2c0.2,0.8,0,1.6-0.3,2.2c0.1,0.2,0.1,0.4,0.2,0.4
			c0.6,0.7,1.3,1.2,2.1,1.7c0.1,0,0.1,0.1,0.2,0.1c0.2,0,0.2,0,0.2,0l0,0c0.3-0.3,0.7-0.5,1.2-0.7c0.8-0.2,1.6-0.1,2.2,0.1
			c0.6,0.1,1.3,0.2,1.9,0.3c0.4,0.1,0.7,0.1,1.1,0.2c0.1,0,0.2,0,0.4,0.1c0.4,0.1,0.9,0.1,1.4,0.3c0.6,0.2,1.1,0.6,1.4,1.1
			c0,0.1,0.1,0.1,0.2,0.2h0.1c0.3,0,0.5-0.1,0.7-0.1c0.6-0.2,1.2-0.4,1.6-0.6c0.3-0.1,0.5-0.4,0.7-0.6c-0.1-0.4-0.1-0.7,0-1
			c0.1-1,0.6-1.7,1.1-2.3c0.3-0.4,0.6-0.7,0.8-1.1c0.4-0.5,0.8-1.1,1.3-1.6l0,0c0.4-0.5,1-1,1.3-1.3c0.4-0.4,1-0.6,1.7-0.6l0,0
			c0.1-0.1,0.2-0.3,0.3-0.4c0.3-0.7,0.3-1.4,0.4-2.2C50.4,24.7,50.4,24.4,50.3,24.1 M44.6,25c-0.6,4.1-4.4,7-8.5,6.3
			c-4.1-0.6-6.9-4.5-6.3-8.6s4.4-6.9,8.5-6.3C42.4,17.1,45.2,20.9,44.6,25"/>
	</g>
	<g>
		<defs>
			<path id="SVGID_5_" d="M50.3,24.1L50.3,24.1c-0.5-0.2-0.9-0.4-1.2-0.7c-0.7-0.6-1-1.3-1.3-2c-0.2-0.5-0.4-1-0.6-1.4
				c-0.2-0.6-0.5-1.1-0.7-1.7c-0.2-0.5-0.3-0.9-0.4-1.3c-0.2-0.8,0-1.6,0.3-2.2l0,0c0-0.2-0.1-0.4-0.3-0.6c-0.6-0.5-1.2-1-1.7-1.4
				c0,0-0.1-0.1-0.3-0.1c-0.1,0-0.2-0.1-0.3-0.1c-0.6,0.6-1.5,0.9-2.5,0.9c-0.4,0-0.7-0.1-1-0.2c-0.2,0-0.4-0.1-0.6-0.1
				c-0.4-0.1-0.8-0.1-1.2-0.1c-0.6-0.1-1.2-0.1-1.8-0.2c-1.2-0.2-2.1-0.7-2.6-1.7l0,0c-0.2-0.1-0.4-0.1-1,0.1
				c-0.6,0.2-1.1,0.4-1.5,0.6c-0.3,0.1-0.5,0.3-0.7,0.6v0.1c0.1,0.3,0.1,0.5,0.1,0.8c-0.1,1.2-0.7,2.1-1.2,2.8
				c-0.7,0.8-1.3,1.6-1.9,2.4c-0.1,0.1-0.2,0.2-0.2,0.3c-0.3,0.4-0.8,0.9-1.5,1.2c-0.4,0.2-0.9,0.3-1.4,0.3c-0.1,0-0.1,0-0.1,0l0,0
				c-0.1,0.1-0.2,0.2-0.2,0.3c-0.2,0.8-0.3,1.6-0.4,2.3c0,0.2,0.1,0.5,0.1,0.7c0,0.1,0.1,0.1,0.1,0.2c0.4,0.1,0.8,0.4,1.2,0.7
				c0.7,0.6,1,1.4,1.3,2c0.2,0.5,0.4,1,0.6,1.5s0.4,1.1,0.6,1.6s0.3,0.9,0.4,1.2c0.2,0.8,0,1.6-0.3,2.2c0.1,0.2,0.1,0.4,0.2,0.4
				c0.6,0.7,1.3,1.2,2.1,1.7c0.1,0,0.1,0.1,0.2,0.1c0.2,0,0.2,0,0.2,0l0,0c0.3-0.3,0.7-0.5,1.2-0.7c0.8-0.2,1.6-0.1,2.2,0.1
				c0.6,0.1,1.3,0.2,1.9,0.3c0.4,0.1,0.7,0.1,1.1,0.2c0.1,0,0.2,0,0.4,0.1c0.4,0.1,0.9,0.1,1.4,0.3c0.6,0.2,1.1,0.6,1.4,1.1
				c0,0.1,0.1,0.1,0.2,0.2h0.1c0.3,0,0.5-0.1,0.7-0.1c0.6-0.2,1.2-0.4,1.6-0.6c0.3-0.1,0.5-0.4,0.7-0.6c-0.1-0.4-0.1-0.7,0-1
				c0.1-1,0.6-1.7,1.1-2.3c0.3-0.4,0.6-0.7,0.8-1.1c0.4-0.5,0.8-1.1,1.3-1.6l0,0c0.4-0.5,1-1,1.3-1.3c0.4-0.4,1-0.6,1.7-0.6l0,0
				c0.1-0.1,0.2-0.3,0.3-0.4c0.3-0.7,0.3-1.4,0.4-2.2C50.4,24.7,50.4,24.4,50.3,24.1 M44.6,25c-0.6,4.1-4.4,7-8.5,6.3
				c-4.1-0.6-6.9-4.5-6.3-8.6s4.4-6.9,8.5-6.3C42.4,17.1,45.2,20.9,44.6,25"/>
		</defs>
		<use xlink:href="#SVGID_5_"  style="overflow:visible;fill:#FFFFFF;"/>
		<clipPath id="SVGID_6_">
			<use xlink:href="#SVGID_5_"  style="overflow:visible;"/>
		</clipPath>
		<g class="st4">
			<g>
				<rect id="SVGID_19_" x="-324.3" y="-1043.4" class="st2" width="1056" height="3261.8"/>
			</g>
			<g>
				<defs>
					<rect id="SVGID_7_" x="-324.3" y="-1043.4" width="1056" height="3261.8"/>
				</defs>
				<use xlink:href="#SVGID_7_"  style="overflow:visible;fill:#FFFFFF;"/>
				<clipPath id="SVGID_8_">
					<use xlink:href="#SVGID_7_"  style="overflow:visible;"/>
				</clipPath>
				<rect x="23.3" y="10.3" class="st5" width="27.9" height="27.2"/>
			</g>
		</g>
	</g>
</g>
<g>
	<g>
		<path id="SVGID_21_" class="st0" d="M38.7,5.1c0.1-2.6-2.1-4.4-4.4-4.3c-7.8,0-15.6,0-23.5,0c-2.6,0-4.3,1.7-4.3,4.3V38
			c0,2.2,0,4.5,0,6.8c0,2.8,2.1,4.5,4.5,4.4c7.8-0.1,15.6,0,23.4,0c2.4,0,4.4-1.8,4.4-4.4c0-2.2,0-4.4,0-6.5
			c-0.1-0.2-0.4-0.3-0.6-0.4c-0.4-0.1-0.7-0.2-1.1-0.2l-1.6-0.3c-0.2,0-0.4-0.1-0.6-0.1v3.4H10.2v-34h24.5v1.9l0.1,0.1L35,9.1
			c0.2,0.4,0.6,0.8,1.6,0.9c0.6,0.1,1.3,0.2,1.9,0.2h0.1V8.5C38.7,7.4,38.6,6.3,38.7,5.1 M22.5,42.4c1.4,0,2.6,1.2,2.6,2.5
			c0,1.4-1.2,2.6-2.6,2.6s-2.6-1.2-2.6-2.6C19.9,43.6,21.1,42.4,22.5,42.4"/>
	</g>
	<g>
		<defs>
			<path id="SVGID_9_" d="M38.7,5.1c0.1-2.6-2.1-4.4-4.4-4.3c-7.8,0-15.6,0-23.5,0c-2.6,0-4.3,1.7-4.3,4.3V38c0,2.2,0,4.5,0,6.8
				c0,2.8,2.1,4.5,4.5,4.4c7.8-0.1,15.6,0,23.4,0c2.4,0,4.4-1.8,4.4-4.4c0-2.2,0-4.4,0-6.5c-0.1-0.2-0.4-0.3-0.6-0.4
				c-0.4-0.1-0.7-0.2-1.1-0.2l-1.6-0.3c-0.2,0-0.4-0.1-0.6-0.1v3.4H10.2v-34h24.5v1.9l0.1,0.1L35,9.1c0.2,0.4,0.6,0.8,1.6,0.9
				c0.6,0.1,1.3,0.2,1.9,0.2h0.1V8.5C38.7,7.4,38.6,6.3,38.7,5.1 M22.5,42.4c1.4,0,2.6,1.2,2.6,2.5c0,1.4-1.2,2.6-2.6,2.6
				s-2.6-1.2-2.6-2.6C19.9,43.6,21.1,42.4,22.5,42.4"/>
		</defs>
		<use xlink:href="#SVGID_9_"  style="overflow:visible;fill:#FFFFFF;"/>
		<clipPath id="SVGID_10_">
			<use xlink:href="#SVGID_9_"  style="overflow:visible;"/>
		</clipPath>
		<g class="st6">
			<g>
				<rect id="SVGID_23_" x="-324.3" y="-1043.4" class="st2" width="1056" height="3261.8"/>
			</g>
			<g>
				<defs>
					<rect id="SVGID_11_" x="-324.3" y="-1043.4" width="1056" height="3261.8"/>
				</defs>
				<use xlink:href="#SVGID_11_"  style="overflow:visible;fill:#FFFFFF;"/>
				<clipPath id="SVGID_12_">
					<use xlink:href="#SVGID_11_"  style="overflow:visible;"/>
				</clipPath>
				<rect x="5.7" class="st7" width="33.8" height="49.9"/>
			</g>
		</g>
	</g>
</g>
</svg>
