<?xml version="1.0" encoding="utf-8"?>
<!-- Generator: Adobe Illustrator 25.2.0, SVG Export Plug-In . SVG Version: 6.00 Build 0)  -->
<svg version="1.1" id="Layer_1" xmlns="http://www.w3.org/2000/svg" xmlns:xlink="http://www.w3.org/1999/xlink" x="0px" y="0px"
	 viewBox="0 0 53 52" style="enable-background:new 0 0 53 52;" xml:space="preserve">
<style type="text/css">
	.st0{clip-path:url(#SVGID_2_);}
	.st1{clip-path:url(#SVGID_4_);fill:#FFFFFF;}
	.st2{clip-path:url(#SVGID_6_);}
	.st3{clip-path:url(#SVGID_8_);fill:#FFFFFF;}
</style>
<g>
	<g>
		<defs>
			<path id="SVGID_1_" d="M25.5,19.8c0.1-1.8,1-2.9,2.4-2.9c0.5,0,1.1,0.2,1.6,0.5c1.4,0.9,2.9,1.8,4.3,2.7c0.6,0.4,1.2,0.8,1.7,1.1
				l0.5,0.3c0.6,0.4,1.3,0.8,1.8,1.2c0.3,0.2,0.6,0.5,0.9,0.8c1.1,1.2,1.1,2.7,0.1,3.9c-0.3,0.3-0.5,0.5-0.9,0.8
				c-2.2,1.4-4.3,2.7-6.4,4.1l-1.7,1.1c-0.1,0.1-0.2,0.1-0.3,0.2c-0.5,0.3-1.1,0.5-1.5,0.5c-1.4,0-2.4-1.2-2.4-3
				c-0.1-1.3,0-2.6,0-3.8v-1.6v-0.5v-1V24C25.5,22.4,25.5,21.1,25.5,19.8"/>
		</defs>
		<use xlink:href="#SVGID_1_"  style="overflow:visible;fill:#FFFFFF;"/>
		<clipPath id="SVGID_2_">
			<use xlink:href="#SVGID_1_"  style="overflow:visible;"/>
		</clipPath>
		<g class="st0">
			<g>
				<defs>
					<rect id="SVGID_3_" x="-696.5" y="-1416.2" width="1440" height="4448"/>
				</defs>
				<use xlink:href="#SVGID_3_"  style="overflow:visible;fill:#FFFFFF;"/>
				<clipPath id="SVGID_4_">
					<use xlink:href="#SVGID_3_"  style="overflow:visible;"/>
				</clipPath>
				<rect x="24.5" y="15.8" class="st1" width="16.3" height="19"/>
			</g>
		</g>
	</g>
</g>
<g>
	<g>
		<defs>
			<path id="SVGID_5_" d="M29.4,3.8c-11,0-20,9.2-20,20.4c0,0.3,0,1.2,0,2.3c0,0.1,0,0.1,0,0.2c-0.1,0-0.3,0.1-0.4,0.1
				c-0.8,0.2-1.7,0.4-2.4,0.8C6,28,5.5,28.5,5.2,29.1C4.3,31,4.3,33.1,4,35c-0.3,2.2-0.5,4.5-0.5,6.8c0,4.5,3.5,7.8,7.9,8
				c4.4-0.3,7.9-3.5,7.9-8c0-2.3-0.2-4.5-0.5-6.8c-0.3-1.9-0.3-4-1.2-5.8c-0.8-1.7-2.5-2.1-4.2-2.5c0-0.1,0-0.2,0-0.3
				c0-1.1,0-2,0-2.3c0-9,7.2-16.3,16-16.3s16,7.3,16,16.3s-7.2,16.3-16,16.3c-0.4,0-2.6,0-4.1-0.1c-1.1,0-2,0.9-2.1,2
				c0,1.1,0.9,2.1,2,2.1c2.5,0,3.9,0.1,4.2,0.1c11.1,0,20.1-9.1,20.1-20.4C49.5,13,40.5,3.8,29.4,3.8 M13.1,35.7
				c0,0.9-0.7,1.4-1.8,1.5c-0.9,0.1-1.6-0.4-1.7-1.2c0-0.8,0-1.7,0-2.5s0.1-1.7,0.1-2.5c0.1-0.9,0.9-1.4,1.9-1.3s1.4,0.6,1.5,1.5
				v0.1c0,0.7,0,1.5,0,2.2C13.1,34.1,13.2,34.9,13.1,35.7"/>
		</defs>
		<use xlink:href="#SVGID_5_"  style="overflow:visible;fill:#FFFFFF;"/>
		<clipPath id="SVGID_6_">
			<use xlink:href="#SVGID_5_"  style="overflow:visible;"/>
		</clipPath>
		<g class="st2">
			<g>
				<defs>
					<rect id="SVGID_7_" x="-696.5" y="-1416.2" width="1440" height="4448"/>
				</defs>
				<use xlink:href="#SVGID_7_"  style="overflow:visible;fill:#FFFFFF;"/>
				<clipPath id="SVGID_8_">
					<use xlink:href="#SVGID_7_"  style="overflow:visible;"/>
				</clipPath>
				<rect x="2.5" y="2.8" class="st3" width="48" height="48"/>
			</g>
		</g>
	</g>
</g>
</svg>
