<?xml version="1.0" encoding="utf-8"?>
<!-- Generator: Adobe Illustrator 25.2.0, SVG Export Plug-In . SVG Version: 6.00 Build 0)  -->
<svg version="1.1" id="Layer_1" xmlns="http://www.w3.org/2000/svg" xmlns:xlink="http://www.w3.org/1999/xlink" x="0px" y="0px"
	 viewBox="0 0 53 52" style="enable-background:new 0 0 53 52;" xml:space="preserve">
<style type="text/css">
	.st0{clip-path:url(#SVGID_2_);}
	.st1{clip-path:url(#SVGID_4_);fill:#FFFFFF;}
	.st2{clip-path:url(#SVGID_6_);}
	.st3{clip-path:url(#SVGID_8_);fill:#FFFFFF;}
	.st4{clip-path:url(#SVGID_10_);}
	.st5{clip-path:url(#SVGID_12_);fill:#FFFFFF;}
	.st6{clip-path:url(#SVGID_14_);}
	.st7{clip-path:url(#SVGID_16_);fill:#FFFFFF;}
</style>
<g>
	<defs>
		<path id="SVGID_1_" d="M37.5,22c1.6,0,3,1.5,3,3c0.1,1.5-1.4,3-3,3s-3-1.4-3-3C34.5,23.3,35.9,22,37.5,22"/>
	</defs>
	<use xlink:href="#SVGID_1_"  style="overflow:visible;fill:#FFFFFF;"/>
	<clipPath id="SVGID_2_">
		<use xlink:href="#SVGID_1_"  style="overflow:visible;"/>
	</clipPath>
	<g class="st0">
		<g>
			<defs>
				<rect id="SVGID_3_" x="-963.5" y="-1421" width="1440" height="4448"/>
			</defs>
			<use xlink:href="#SVGID_3_"  style="overflow:visible;fill:#FFFFFF;"/>
			<clipPath id="SVGID_4_">
				<use xlink:href="#SVGID_3_"  style="overflow:visible;"/>
			</clipPath>
			<rect x="33.5" y="21" class="st1" width="8.1" height="8"/>
		</g>
	</g>
</g>
<g>
	<defs>
		<path id="SVGID_5_" d="M23.5,24.9c0-1.6,1.4-2.9,2.9-2.9c1.8,0,3.1,1.2,3.1,2.9c-0.1,1.8-1.4,3.1-3.1,3.1
			C24.8,28,23.4,26.6,23.5,24.9"/>
	</defs>
	<use xlink:href="#SVGID_5_"  style="overflow:visible;fill:#FFFFFF;"/>
	<clipPath id="SVGID_6_">
		<use xlink:href="#SVGID_5_"  style="overflow:visible;"/>
	</clipPath>
	<g class="st2">
		<g>
			<defs>
				<rect id="SVGID_7_" x="-963.5" y="-1421" width="1440" height="4448"/>
			</defs>
			<use xlink:href="#SVGID_7_"  style="overflow:visible;fill:#FFFFFF;"/>
			<clipPath id="SVGID_8_">
				<use xlink:href="#SVGID_7_"  style="overflow:visible;"/>
			</clipPath>
			<rect x="22.4" y="21" class="st3" width="8.1" height="8"/>
		</g>
	</g>
</g>
<g>
	<defs>
		<path id="SVGID_9_" d="M16.5,22c1.6,0,3,1.5,3,3c0.1,1.5-1.4,3-3,3s-3-1.4-3-3C13.5,23.3,14.9,22,16.5,22"/>
	</defs>
	<use xlink:href="#SVGID_9_"  style="overflow:visible;fill:#FFFFFF;"/>
	<clipPath id="SVGID_10_">
		<use xlink:href="#SVGID_9_"  style="overflow:visible;"/>
	</clipPath>
	<g class="st4">
		<g>
			<defs>
				<rect id="SVGID_11_" x="-963.5" y="-1421" width="1440" height="4448"/>
			</defs>
			<use xlink:href="#SVGID_11_"  style="overflow:visible;fill:#FFFFFF;"/>
			<clipPath id="SVGID_12_">
				<use xlink:href="#SVGID_11_"  style="overflow:visible;"/>
			</clipPath>
			<rect x="12.5" y="21" class="st5" width="8.1" height="8"/>
		</g>
	</g>
</g>
<g>
	<g>
		<defs>
			<path id="SVGID_13_" d="M42.1,2H10.9C6.8,2,3.5,5.3,3.5,9.4v23.4c0,4.1,3.3,7.4,7.4,7.4h24.7l10.5,10.1c0.4,0.4,0.9,0.6,1.4,0.6
				c0.3,0,0.5-0.1,0.8-0.2c0.7-0.3,1.2-1.1,1.2-1.9V9.4C49.5,5.3,46.2,2,42.1,2z M23.7,6c1,0,1.9,0.9,1.9,1.9s-0.8,1.9-1.9,1.9
				c-1,0-1.9-0.9-1.9-1.9C21.8,6.9,22.7,6,23.7,6z M16.5,6c1,0,1.9,0.9,1.9,1.9s-0.8,1.9-1.9,1.9c-1,0-1.9-0.9-1.9-1.9
				C14.7,6.9,15.5,6,16.5,6z M9.4,6c1,0,1.9,0.9,1.9,1.9s-0.8,1.9-1.9,1.9c-1,0-1.9-0.9-1.9-1.9C7.5,6.9,8.3,6,9.4,6z M45.5,44.2
				l-7.7-7.4c-0.4-0.4-0.9-0.6-1.4-0.6H10.9c-1.8,0-3.4-1.5-3.4-3.4V14h37.9L45.5,44.2L45.5,44.2z"/>
		</defs>
		<use xlink:href="#SVGID_13_"  style="overflow:visible;fill:#FFFFFF;"/>
		<clipPath id="SVGID_14_">
			<use xlink:href="#SVGID_13_"  style="overflow:visible;"/>
		</clipPath>
		<g class="st6">
			<g>
				<defs>
					<rect id="SVGID_15_" x="3.5" y="2" width="46" height="49"/>
				</defs>
				<use xlink:href="#SVGID_15_"  style="overflow:visible;fill:#FFFFFF;"/>
				<clipPath id="SVGID_16_">
					<use xlink:href="#SVGID_15_"  style="overflow:visible;"/>
				</clipPath>
				<rect x="2.5" y="1" class="st7" width="48" height="51"/>
			</g>
		</g>
	</g>
</g>
</svg>
