<?xml version="1.0" encoding="utf-8"?>
<!-- Generator: Adobe Illustrator 25.3.1, SVG Export Plug-In . SVG Version: 6.00 Build 0)  -->
<svg version="1.1" id="Layer_1" xmlns="http://www.w3.org/2000/svg" xmlns:xlink="http://www.w3.org/1999/xlink" x="0px" y="0px"
	 viewBox="0 0 678.5 272.6" style="enable-background:new 0 0 678.5 272.6;" xml:space="preserve">
<style type="text/css">
	.st0{clip-path:url(#SVGID_2_);}
	.st1{clip-path:url(#SVGID_4_);fill:#DF3A42;}
	.st2{clip-path:url(#SVGID_6_);enable-background:new    ;}
	.st3{clip-path:url(#SVGID_8_);}
	.st4{clip-path:url(#SVGID_10_);}
	.st5{clip-path:url(#SVGID_12_);fill:#133050;}
	.st6{clip-path:url(#SVGID_14_);}
	.st7{clip-path:url(#SVGID_16_);fill:#DF3A42;}
	.st8{clip-path:url(#SVGID_18_);}
	.st9{clip-path:url(#SVGID_20_);fill:#DF3A42;}
	.st10{clip-path:url(#SVGID_22_);}
	.st11{clip-path:url(#SVGID_24_);fill:#133050;}
	.st12{clip-path:url(#SVGID_26_);}
	.st13{clip-path:url(#SVGID_28_);fill:#DF3A42;}
	.st14{clip-path:url(#SVGID_30_);}
	.st15{clip-path:url(#SVGID_32_);fill:#133050;}
	.st16{clip-path:url(#SVGID_34_);}
	.st17{clip-path:url(#SVGID_36_);fill:#DF3A42;}
	.st18{clip-path:url(#SVGID_38_);}
	.st19{clip-path:url(#SVGID_40_);fill:#DF3A42;}
	.st20{clip-path:url(#SVGID_42_);}
	.st21{clip-path:url(#SVGID_44_);fill:#DF3A42;}
	.st22{clip-path:url(#SVGID_46_);enable-background:new    ;}
	.st23{clip-path:url(#SVGID_48_);}
	.st24{clip-path:url(#SVGID_50_);}
	.st25{clip-path:url(#SVGID_52_);fill:#133050;}
	.st26{clip-path:url(#SVGID_54_);}
	.st27{clip-path:url(#SVGID_56_);fill:#DF3A42;}
	.st28{clip-path:url(#SVGID_58_);}
	.st29{clip-path:url(#SVGID_60_);fill:#DF3A42;}
	.st30{clip-path:url(#SVGID_62_);}
	.st31{clip-path:url(#SVGID_64_);fill:#133050;}
	.st32{clip-path:url(#SVGID_66_);}
	.st33{clip-path:url(#SVGID_68_);fill:#133050;}
	.st34{clip-path:url(#SVGID_70_);}
	.st35{clip-path:url(#SVGID_72_);fill:#133050;}
	.st36{clip-path:url(#SVGID_74_);}
	.st37{clip-path:url(#SVGID_76_);fill:#133050;}
	.st38{clip-path:url(#SVGID_78_);enable-background:new    ;}
	.st39{clip-path:url(#SVGID_80_);}
	.st40{clip-path:url(#SVGID_82_);}
	.st41{clip-path:url(#SVGID_84_);fill:#DF3A42;}
	.st42{clip-path:url(#SVGID_86_);}
	.st43{clip-path:url(#SVGID_88_);fill:#566581;}
	.st44{clip-path:url(#SVGID_90_);fill:#418AC6;}
	.st45{clip-path:url(#SVGID_92_);}
	.st46{clip-path:url(#SVGID_94_);fill:#FFFFFF;}
	.st47{clip-path:url(#SVGID_96_);}
	.st48{clip-path:url(#SVGID_98_);fill:#566581;}
	.st49{clip-path:url(#SVGID_100_);fill:#418AC6;}
	.st50{clip-path:url(#SVGID_102_);}
	.st51{clip-path:url(#SVGID_104_);fill:#FFFFFF;}
	.st52{clip-path:url(#SVGID_106_);}
	.st53{clip-path:url(#SVGID_108_);fill:#566581;}
	.st54{clip-path:url(#SVGID_110_);}
	.st55{clip-path:url(#SVGID_112_);fill:#566581;}
	.st56{clip-path:url(#SVGID_114_);fill:#418AC6;}
	.st57{clip-path:url(#SVGID_116_);}
	.st58{clip-path:url(#SVGID_118_);fill:#FFFFFF;}
	.st59{clip-path:url(#SVGID_120_);}
	.st60{clip-path:url(#SVGID_122_);fill:#566581;}
	.st61{clip-path:url(#SVGID_124_);}
	.st62{clip-path:url(#SVGID_126_);fill:#566581;}
	.st63{clip-path:url(#SVGID_128_);}
	.st64{clip-path:url(#SVGID_130_);fill:#566581;}
	.st65{clip-path:url(#SVGID_132_);}
	.st66{clip-path:url(#SVGID_134_);fill:#566581;}
	.st67{clip-path:url(#SVGID_136_);}
	.st68{clip-path:url(#SVGID_138_);fill:#566581;}
	.st69{clip-path:url(#SVGID_140_);}
	.st70{clip-path:url(#SVGID_142_);fill:#566581;}
	.st71{clip-path:url(#SVGID_144_);}
	.st72{clip-path:url(#SVGID_146_);fill:#566581;}
	.st73{clip-path:url(#SVGID_148_);}
	.st74{clip-path:url(#SVGID_150_);fill:#566581;}
	.st75{clip-path:url(#SVGID_152_);}
	.st76{clip-path:url(#SVGID_154_);fill:#566581;}
	.st77{clip-path:url(#SVGID_156_);}
	.st78{clip-path:url(#SVGID_158_);fill:#778698;}
	.st79{clip-path:url(#SVGID_160_);}
	.st80{clip-path:url(#SVGID_162_);fill:#DF3B42;}
	.st81{clip-path:url(#SVGID_164_);fill:#418AC6;}
	.st82{clip-path:url(#SVGID_166_);}
	.st83{clip-path:url(#SVGID_168_);fill:#FFFFFF;}
	.st84{clip-path:url(#SVGID_170_);}
	.st85{clip-path:url(#SVGID_172_);fill:#566581;}
	.st86{clip-path:url(#SVGID_174_);}
	.st87{clip-path:url(#SVGID_176_);fill:#566581;}
	.st88{clip-path:url(#SVGID_178_);}
	.st89{clip-path:url(#SVGID_180_);fill:#566581;}
	.st90{clip-path:url(#SVGID_182_);}
	.st91{clip-path:url(#SVGID_184_);fill:#566581;}
	.st92{clip-path:url(#SVGID_186_);}
	.st93{clip-path:url(#SVGID_188_);fill:#566581;}
	.st94{clip-path:url(#SVGID_190_);}
	.st95{clip-path:url(#SVGID_192_);fill:#566581;}
	.st96{clip-path:url(#SVGID_194_);}
	.st97{clip-path:url(#SVGID_196_);fill:#566581;}
	.st98{clip-path:url(#SVGID_198_);}
	.st99{clip-path:url(#SVGID_200_);fill:#566581;}
	.st100{clip-path:url(#SVGID_202_);}
	.st101{clip-path:url(#SVGID_204_);fill:#566581;}
	.st102{clip-path:url(#SVGID_206_);}
	.st103{clip-path:url(#SVGID_208_);fill:#566581;}
	.st104{clip-path:url(#SVGID_210_);}
	.st105{clip-path:url(#SVGID_212_);fill:#566581;}
	.st106{clip-path:url(#SVGID_214_);}
	.st107{clip-path:url(#SVGID_216_);fill:#566581;}
	.st108{clip-path:url(#SVGID_218_);}
	.st109{clip-path:url(#SVGID_220_);fill:#566581;}
	.st110{clip-path:url(#SVGID_222_);}
	.st111{clip-path:url(#SVGID_224_);fill:#566581;}
	.st112{clip-path:url(#SVGID_226_);}
	.st113{clip-path:url(#SVGID_228_);fill:#566581;}
	.st114{clip-path:url(#SVGID_230_);}
	.st115{clip-path:url(#SVGID_232_);fill:#566581;}
	.st116{clip-path:url(#SVGID_234_);}
	.st117{clip-path:url(#SVGID_236_);fill:#566581;}
	.st118{clip-path:url(#SVGID_238_);}
	.st119{clip-path:url(#SVGID_240_);fill:#566581;}
	.st120{clip-path:url(#SVGID_242_);}
	.st121{clip-path:url(#SVGID_244_);fill:#566581;}
	.st122{clip-path:url(#SVGID_246_);}
	.st123{clip-path:url(#SVGID_248_);fill:#566581;}
	.st124{clip-path:url(#SVGID_250_);}
	.st125{clip-path:url(#SVGID_252_);fill:#566581;}
	.st126{clip-path:url(#SVGID_254_);fill:#418AC5;}
	.st127{clip-path:url(#SVGID_256_);}
	.st128{clip-path:url(#SVGID_258_);fill:#FEFEFE;}
	.st129{clip-path:url(#SVGID_260_);}
	.st130{clip-path:url(#SVGID_262_);fill:#566580;}
	.st131{clip-path:url(#SVGID_264_);}
	.st132{clip-path:url(#SVGID_266_);fill:#FEFEFE;}
	.st133{clip-path:url(#SVGID_268_);}
	.st134{clip-path:url(#SVGID_270_);fill:#566580;}
	.st135{clip-path:url(#SVGID_272_);enable-background:new    ;}
	.st136{clip-path:url(#SVGID_274_);}
	.st137{clip-path:url(#SVGID_276_);}
	.st138{clip-path:url(#SVGID_278_);fill:#566580;}
	.st139{clip-path:url(#SVGID_280_);enable-background:new    ;}
	.st140{clip-path:url(#SVGID_282_);}
	.st141{clip-path:url(#SVGID_284_);fill:#418AC5;}
	.st142{clip-path:url(#SVGID_286_);}
	.st143{clip-path:url(#SVGID_288_);fill:#FEFEFE;}
	.st144{clip-path:url(#SVGID_290_);}
	.st145{clip-path:url(#SVGID_292_);fill:#566580;}
	.st146{clip-path:url(#SVGID_294_);}
	.st147{clip-path:url(#SVGID_296_);fill:#FFFFFF;}
	.st148{clip-path:url(#SVGID_298_);}
	.st149{clip-path:url(#SVGID_300_);fill:#566581;}
	.st150{clip-path:url(#SVGID_302_);fill:#418AC6;}
	.st151{clip-path:url(#SVGID_304_);}
	.st152{clip-path:url(#SVGID_306_);fill:#FFFFFF;}
	.st153{clip-path:url(#SVGID_308_);}
	.st154{clip-path:url(#SVGID_310_);fill:#566581;}
	.st155{clip-path:url(#SVGID_312_);}
	.st156{clip-path:url(#SVGID_314_);fill:#DF3B42;}
	.st157{clip-path:url(#SVGID_316_);}
	.st158{clip-path:url(#SVGID_318_);fill:#566581;}
	.st159{clip-path:url(#SVGID_320_);}
	.st160{clip-path:url(#SVGID_322_);fill:#566581;}
	.st161{clip-path:url(#SVGID_324_);}
	.st162{clip-path:url(#SVGID_326_);fill:#1C75B9;}
	.st163{clip-path:url(#SVGID_328_);enable-background:new    ;}
	.st164{clip-path:url(#SVGID_330_);}
	.st165{clip-path:url(#SVGID_332_);}
	.st166{clip-path:url(#SVGID_334_);fill:#1C75B9;}
	.st167{clip-path:url(#SVGID_336_);}
	.st168{clip-path:url(#SVGID_338_);fill:#4A5A74;}
	.st169{clip-path:url(#SVGID_340_);}
	.st170{clip-path:url(#SVGID_342_);fill:#4A5A74;}
	.st171{clip-path:url(#SVGID_344_);enable-background:new    ;}
	.st172{clip-path:url(#SVGID_346_);}
	.st173{clip-path:url(#SVGID_348_);}
	.st174{clip-path:url(#SVGID_350_);fill:#4A5A74;}
	.st175{clip-path:url(#SVGID_352_);}
	.st176{clip-path:url(#SVGID_354_);fill:#1C75B9;}
	.st177{clip-path:url(#SVGID_356_);}
	.st178{clip-path:url(#SVGID_358_);fill:#1C75B9;}
	.st179{clip-path:url(#SVGID_360_);}
	.st180{clip-path:url(#SVGID_362_);fill:#4A5A74;}
	.st181{clip-path:url(#SVGID_364_);}
	.st182{clip-path:url(#SVGID_366_);fill:#566581;}
	.st183{clip-path:url(#SVGID_368_);}
	.st184{clip-path:url(#SVGID_370_);fill:#1D75B9;}
	.st185{clip-path:url(#SVGID_372_);}
	.st186{clip-path:url(#SVGID_374_);fill:#1D75B9;}
	.st187{clip-path:url(#SVGID_376_);}
	.st188{clip-path:url(#SVGID_378_);fill:#4B5A74;}
	.st189{clip-path:url(#SVGID_380_);}
	.st190{clip-path:url(#SVGID_382_);fill:#566581;}
	.st191{clip-path:url(#SVGID_384_);}
	.st192{clip-path:url(#SVGID_386_);fill:#566581;}
	.st193{clip-path:url(#SVGID_388_);}
	.st194{clip-path:url(#SVGID_390_);fill:#566581;}
	.st195{clip-path:url(#SVGID_392_);}
	.st196{clip-path:url(#SVGID_394_);fill:#1D75B9;}
	.st197{clip-path:url(#SVGID_396_);}
	.st198{clip-path:url(#SVGID_398_);fill:#1D75B9;}
	.st199{clip-path:url(#SVGID_400_);}
	.st200{clip-path:url(#SVGID_402_);fill:#1D75B9;}
	.st201{clip-path:url(#SVGID_404_);}
	.st202{clip-path:url(#SVGID_406_);fill:#1D75B9;}
	.st203{clip-path:url(#SVGID_408_);}
	.st204{clip-path:url(#SVGID_410_);fill:#1D75B9;}
	.st205{clip-path:url(#SVGID_412_);}
	.st206{clip-path:url(#SVGID_414_);fill:#4B5A74;}
	.st207{clip-path:url(#SVGID_416_);}
	.st208{clip-path:url(#SVGID_418_);fill:#1D75B9;}
</style>
<g>
	<defs>
		<path id="SVGID_1_" d="M36.2-261.6L36.2-261.6c0-0.1,0-0.3,0-0.4v-2.4c0-5.7-4.5-10.5-10.2-10.6c-5.7,0.1-10.2,4.9-10.2,10.6v2.4
			c0,0.1,0,0.2,0,0.3v0c-0.2,0.1-0.4,0.3-0.4,0.5v2.6c0,0.2,0.2,0.5,0.4,0.5v0c0,0.1,0,0.2,0,0.3v0.1h0c0.2,1,1.1,1.8,2.2,1.8h0.5
			c0.6,0,1.1-0.5,1.1-1.1v-5.9c0-0.6-0.5-1.1-1.1-1.1H18c-0.3,0-0.5,0.1-0.8,0.2v-0.6c0-4.9,3.9-9.1,8.8-9.2
			c4.9,0.1,8.8,4.2,8.8,9.2v0.6c-0.2-0.1-0.5-0.2-0.8-0.2h-0.5c-0.6,0-1.1,0.5-1.1,1.1v5.9c0,0.6,0.5,1.1,1.1,1.1H34
			c1.1,0,2-0.8,2.2-1.8h0v-0.1c0-0.1,0-0.2,0-0.3v0c0.2-0.1,0.4-0.3,0.4-0.5v-2.6C36.6-261.3,36.5-261.6,36.2-261.6"/>
	</defs>
	<clipPath id="SVGID_2_">
		<use xlink:href="#SVGID_1_"  style="overflow:visible;"/>
	</clipPath>
	<g class="st0">
		<defs>
			<rect id="SVGID_3_" x="-171.5" y="-1663.6" width="1387.6" height="4286.3"/>
		</defs>
		<clipPath id="SVGID_4_">
			<use xlink:href="#SVGID_3_"  style="overflow:visible;"/>
		</clipPath>
	</g>
</g>
<g>
	<defs>
		<path id="SVGID_13_" d="M110.2-267.6c-0.3,0-0.6,0-0.8-0.1c-3-0.5-5.1-3.3-4.6-6.3c0.2-1.3,0.9-2.5,1.9-3.4c1.2-1,2.8-1.5,4.4-1.3
			c3,0.4,5.1,3.3,4.6,6.3c-0.2,1.3-0.9,2.5-1.9,3.4C112.8-268.1,111.5-267.6,110.2-267.6 M110.2-277.6c-1.1,0-2.1,0.4-3,1.1
			c-0.8,0.7-1.4,1.7-1.6,2.8c-0.4,2.5,1.3,4.8,3.8,5.2c1.3,0.2,2.6-0.2,3.6-1c0.8-0.7,1.4-1.7,1.6-2.8c0.4-2.5-1.3-4.8-3.8-5.2
			C110.7-277.6,110.5-277.6,110.2-277.6"/>
	</defs>
	<use xlink:href="#SVGID_13_"  style="overflow:visible;fill-rule:evenodd;clip-rule:evenodd;fill:#DF3A42;"/>
	<clipPath id="SVGID_6_">
		<use xlink:href="#SVGID_13_"  style="overflow:visible;"/>
	</clipPath>
	<g style="clip-path:url(#SVGID_6_);">
		<defs>
			<rect id="SVGID_15_" x="-250.9" y="-1340.4" width="1056" height="3261.8"/>
		</defs>
		<use xlink:href="#SVGID_15_"  style="overflow:visible;fill:#DF3A42;"/>
		<clipPath id="SVGID_8_">
			<use xlink:href="#SVGID_15_"  style="overflow:visible;"/>
		</clipPath>
	</g>
</g>
<g>
	<defs>
		<path id="SVGID_17_" d="M123.3-272.9C123.3-272.9,123.3-272.9,123.3-272.9c-0.5-0.2-0.9-0.4-1.2-0.7c-0.7-0.6-1-1.3-1.3-2
			c-0.2-0.5-0.4-1-0.6-1.4c-0.2-0.6-0.5-1.1-0.7-1.7c-0.2-0.5-0.3-0.9-0.4-1.3c-0.2-0.8,0-1.6,0.3-2.2c0,0,0,0,0,0
			c0-0.2-0.1-0.4-0.3-0.6c-0.6-0.5-1.2-1-1.7-1.4c0,0-0.1-0.1-0.3-0.1c-0.1,0-0.2-0.1-0.3-0.1c-0.6,0.6-1.5,0.9-2.5,0.9
			c-0.4,0-0.7-0.1-1-0.2c-0.2,0-0.4-0.1-0.6-0.1c-0.4-0.1-0.8-0.1-1.2-0.1c-0.6-0.1-1.2-0.1-1.8-0.2c-1.2-0.2-2.1-0.7-2.6-1.7
			c0,0,0,0,0,0c-0.2-0.1-0.4-0.1-1,0.1c-0.6,0.2-1.1,0.4-1.5,0.6c-0.3,0.1-0.5,0.3-0.7,0.6c0,0,0,0.1,0,0.1c0.1,0.3,0.1,0.5,0.1,0.8
			c-0.1,1.2-0.7,2.1-1.2,2.8c-0.7,0.8-1.3,1.6-1.9,2.4c-0.1,0.1-0.2,0.2-0.2,0.3c-0.3,0.4-0.8,0.9-1.5,1.2c-0.4,0.2-0.9,0.3-1.4,0.3
			c-0.1,0-0.1,0-0.1,0l0,0c-0.1,0.1-0.2,0.2-0.2,0.3c-0.2,0.8-0.3,1.6-0.4,2.3c0,0.2,0.1,0.5,0.1,0.7c0,0.1,0.1,0.1,0.1,0.2
			c0.4,0.1,0.8,0.4,1.2,0.7c0.7,0.6,1,1.4,1.3,2c0.2,0.5,0.4,1,0.6,1.5c0.2,0.5,0.4,1.1,0.6,1.6c0.2,0.5,0.3,0.9,0.4,1.2
			c0.2,0.8,0,1.6-0.3,2.2c0.1,0.2,0.1,0.4,0.2,0.4c0.6,0.7,1.3,1.2,2.1,1.7c0.1,0,0.1,0.1,0.2,0.1c0.2,0,0.2,0,0.2,0c0,0,0,0,0,0
			c0.3-0.3,0.7-0.5,1.2-0.7c0.8-0.2,1.6-0.1,2.2,0.1c0.6,0.1,1.3,0.2,1.9,0.3c0.4,0.1,0.7,0.1,1.1,0.2c0.1,0,0.2,0,0.4,0.1
			c0.4,0.1,0.9,0.1,1.4,0.3c0.6,0.2,1.1,0.6,1.4,1.1c0,0.1,0.1,0.1,0.2,0.2c0,0,0.1,0,0.1,0c0.3,0,0.5-0.1,0.7-0.1
			c0.6-0.2,1.2-0.4,1.6-0.6c0.3-0.1,0.5-0.4,0.7-0.6c-0.1-0.4-0.1-0.7,0-1c0.1-1,0.6-1.7,1.1-2.3c0.3-0.4,0.6-0.7,0.8-1.1
			c0.4-0.5,0.8-1.1,1.3-1.6l0,0c0.4-0.5,1-1,1.3-1.3c0.4-0.4,1-0.6,1.7-0.6c0,0,0,0,0,0c0.1-0.1,0.2-0.3,0.3-0.4
			c0.3-0.7,0.3-1.4,0.4-2.2C123.4-272.3,123.4-272.6,123.3-272.9 M117.6-271.9c-0.6,4.1-4.4,7-8.5,6.3c-4.1-0.6-6.9-4.5-6.3-8.6
			c0.6-4.1,4.4-6.9,8.5-6.3C115.4-279.9,118.2-276,117.6-271.9"/>
	</defs>
	<use xlink:href="#SVGID_17_"  style="overflow:visible;fill-rule:evenodd;clip-rule:evenodd;fill:#DF3A42;"/>
	<clipPath id="SVGID_10_">
		<use xlink:href="#SVGID_17_"  style="overflow:visible;"/>
	</clipPath>
	<g class="st4">
		<defs>
			<rect id="SVGID_19_" x="-251.3" y="-1340.4" width="1056" height="3261.8"/>
		</defs>
		<use xlink:href="#SVGID_19_"  style="overflow:visible;fill:#DF3A42;"/>
		<clipPath id="SVGID_12_">
			<use xlink:href="#SVGID_19_"  style="overflow:visible;"/>
		</clipPath>
	</g>
</g>
<g>
	<defs>
		<path id="SVGID_21_" d="M111.7-291.8c0.1-2.6-2.1-4.4-4.4-4.3c-7.8,0-15.6,0-23.5,0c-2.6,0-4.3,1.7-4.3,4.3v32.9
			c0,2.2,0,4.5,0,6.8c0,2.8,2.1,4.5,4.5,4.4c7.8-0.1,15.6,0,23.4,0c2.4,0,4.4-1.8,4.4-4.4c0-2.2,0-4.4,0-6.5
			c-0.1-0.2-0.4-0.3-0.6-0.4c-0.4-0.1-0.7-0.2-1.1-0.2l-1.6-0.2c-0.2,0-0.4-0.1-0.6-0.1v3.4H83.2v-34h24.5v1.9l0.1,0.1l0.2,0.4
			c0.2,0.4,0.6,0.8,1.6,0.9c0.6,0.1,1.3,0.2,1.9,0.2c0,0,0.1,0,0.1,0v-1.8C111.7-289.6,111.6-290.7,111.7-291.8 M95.5-254.6
			c1.4,0,2.6,1.2,2.6,2.5c0,1.4-1.2,2.6-2.6,2.6c-1.4,0-2.6-1.2-2.6-2.6C92.9-253.4,94.1-254.6,95.5-254.6"/>
	</defs>
	<use xlink:href="#SVGID_21_"  style="overflow:visible;fill-rule:evenodd;clip-rule:evenodd;fill:#133050;"/>
	<clipPath id="SVGID_14_">
		<use xlink:href="#SVGID_21_"  style="overflow:visible;"/>
	</clipPath>
	<g class="st6">
		<defs>
			<rect id="SVGID_23_" x="-251.3" y="-1340.4" width="1056" height="3261.8"/>
		</defs>
		<use xlink:href="#SVGID_23_"  style="overflow:visible;fill:#133050;"/>
		<clipPath id="SVGID_16_">
			<use xlink:href="#SVGID_23_"  style="overflow:visible;"/>
		</clipPath>
	</g>
</g>
<g>
	<defs>
		<path id="SVGID_25_" d="M171.5-277.2c0.1-1.8,1-2.9,2.4-2.9c0.5,0,1.1,0.2,1.6,0.5c1.4,0.9,2.9,1.8,4.3,2.7
			c0.6,0.4,1.2,0.8,1.7,1.1l0.5,0.3c0.6,0.4,1.3,0.8,1.8,1.2c0.3,0.2,0.6,0.5,0.9,0.8c1.1,1.2,1.1,2.7,0.1,3.9
			c-0.3,0.3-0.5,0.5-0.9,0.8c-2.2,1.4-4.3,2.7-6.4,4.1l-1.7,1.1c-0.1,0.1-0.2,0.1-0.3,0.2c-0.5,0.3-1.1,0.5-1.5,0.5
			c-1.4,0-2.4-1.2-2.4-3c-0.1-1.3,0-2.6,0-3.8v-1.6v-0.5v-1v-0.2C171.5-274.6,171.5-275.9,171.5-277.2"/>
	</defs>
	<clipPath id="SVGID_18_">
		<use xlink:href="#SVGID_25_"  style="overflow:visible;"/>
	</clipPath>
	<g class="st8">
		<defs>
			<rect id="SVGID_27_" x="-550.5" y="-1713.1" width="1440" height="4448"/>
		</defs>
		<clipPath id="SVGID_20_">
			<use xlink:href="#SVGID_27_"  style="overflow:visible;"/>
		</clipPath>
	</g>
</g>
<g>
	<defs>
		<path id="SVGID_29_" d="M175.4-293.1c-11.1,0-20.1,9.1-20.1,20.4c0,0.3,0,1.2,0,2.3c0,0.1,0,0.1,0,0.2c-0.1,0-0.3,0.1-0.4,0.1
			c-0.8,0.2-1.7,0.4-2.4,0.8c-0.6,0.4-1.1,0.9-1.4,1.5c-0.9,1.8-0.9,3.9-1.2,5.8c-0.3,2.2-0.5,4.5-0.5,6.8c0,4.5,3.5,7.8,7.9,8
			c4.4-0.3,7.9-3.5,7.9-8c0-2.3-0.2-4.5-0.5-6.8c-0.3-1.9-0.3-4-1.2-5.8c-0.8-1.7-2.5-2.1-4.2-2.5c0-0.1,0-0.2,0-0.3
			c0-1.1,0-2,0-2.3c0-9,7.2-16.3,16-16.3c8.8,0,16,7.3,16,16.3c0,9-7.2,16.3-16,16.3c-0.4,0-2.6,0-4.1-0.1c-1.1,0-2,0.9-2.1,2
			c0,1.1,0.9,2.1,2,2.1c2.5,0,3.9,0.1,4.2,0.1c11.1,0,20.1-9.1,20.1-20.4C195.5-284,186.5-293.1,175.4-293.1 M159.1-261.3
			c0,0.9-0.7,1.4-1.8,1.5c-0.9,0.1-1.6-0.4-1.7-1.2c0-0.8,0-1.7,0-2.5c0-0.8,0.1-1.7,0.1-2.5c0.1-0.9,0.9-1.4,1.9-1.3
			c1,0.1,1.4,0.6,1.5,1.5c0,0,0,0.1,0,0.1c0,0.7,0,1.5,0,2.2C159.1-262.8,159.2-262.1,159.1-261.3"/>
	</defs>
	<clipPath id="SVGID_22_">
		<use xlink:href="#SVGID_29_"  style="overflow:visible;"/>
	</clipPath>
	<g class="st10">
		<defs>
			<rect id="SVGID_31_" x="-550.5" y="-1713.1" width="1440" height="4448"/>
		</defs>
		<clipPath id="SVGID_24_">
			<use xlink:href="#SVGID_31_"  style="overflow:visible;"/>
		</clipPath>
	</g>
</g>
<g>
	<defs>
		<path id="SVGID_33_" d="M256.5-275c1.6,0,3,1.5,3,3c0.1,1.5-1.4,3-3,3c-1.6,0-3-1.4-3-3C253.5-273.6,254.9-275,256.5-275"/>
	</defs>
	<clipPath id="SVGID_26_">
		<use xlink:href="#SVGID_33_"  style="overflow:visible;"/>
	</clipPath>
	<g class="st12">
		<defs>
			<rect id="SVGID_35_" x="-744.5" y="-1718" width="1440" height="4448"/>
		</defs>
		<clipPath id="SVGID_28_">
			<use xlink:href="#SVGID_35_"  style="overflow:visible;"/>
		</clipPath>
	</g>
</g>
<g>
	<defs>
		<path id="SVGID_37_" d="M242.5-272.1c0-1.6,1.4-2.9,2.9-2.9c1.8,0,3.1,1.2,3.1,2.9c-0.1,1.8-1.4,3.1-3.1,3.1
			S242.4-270.4,242.5-272.1"/>
	</defs>
	<clipPath id="SVGID_30_">
		<use xlink:href="#SVGID_37_"  style="overflow:visible;"/>
	</clipPath>
	<g class="st14">
		<defs>
			<rect id="SVGID_39_" x="-744.5" y="-1718" width="1440" height="4448"/>
		</defs>
		<clipPath id="SVGID_32_">
			<use xlink:href="#SVGID_39_"  style="overflow:visible;"/>
		</clipPath>
	</g>
</g>
<g>
	<defs>
		<path id="SVGID_41_" d="M235.5-275c1.6,0,3,1.5,3,3c0.1,1.5-1.4,3-3,3c-1.6,0-3-1.4-3-3C232.5-273.6,233.9-275,235.5-275"/>
	</defs>
	<clipPath id="SVGID_34_">
		<use xlink:href="#SVGID_41_"  style="overflow:visible;"/>
	</clipPath>
	<g class="st16">
		<defs>
			<rect id="SVGID_43_" x="-744.5" y="-1718" width="1440" height="4448"/>
		</defs>
		<clipPath id="SVGID_36_">
			<use xlink:href="#SVGID_43_"  style="overflow:visible;"/>
		</clipPath>
	</g>
</g>
<g>
	<defs>
		<path id="SVGID_53_" d="M312.9-264.4c0.4,0.8,1,1.5,1.7,2.2c0.8,0.7,1.8,1.1,2.9,1.1c0,0,0,0,0,0l0.2,0c1,0,2-0.4,2.8-1.1
			c0.8-0.7,1.4-1.4,1.7-2.2c0.8-1.7,1.2-3.4,1.2-5.1l0-0.2c0-0.2,0-0.4,0-0.6c-0.2-2-1.3-3.4-3.3-4.1c-0.8-0.3-1.7-0.4-2.6-0.5
			c-0.9,0-1.8,0.2-2.6,0.5c-1.9,0.7-3.1,2.1-3.3,4.1c0,0.2,0,0.4,0,0.6l0,0.2C311.6-267.8,312-266.1,312.9-264.4z"/>
	</defs>
	<clipPath id="SVGID_38_">
		<use xlink:href="#SVGID_53_"  style="overflow:visible;"/>
	</clipPath>
	<g class="st18">
		<defs>
			<rect id="SVGID_55_" x="-920.3" y="-1690.7" width="1416.9" height="4376.5"/>
		</defs>
		<clipPath id="SVGID_40_">
			<use xlink:href="#SVGID_55_"  style="overflow:visible;"/>
		</clipPath>
	</g>
</g>
<g>
	<defs>
		<path id="SVGID_57_" d="M329.9-256.3c-0.4-0.3-1-0.6-1.6-0.8c0,0-4.3-1.6-4.3-1.6c-0.9-0.3-1.8-0.4-2.7,0.2l-0.2,0.1
			c-0.2,0.2-0.4,0.5-0.5,0.7c0,0.1-0.1,0.1-0.1,0.2l-2.4,3.4l-0.3-0.5c-0.8-1.2-1.7-2.3-2.5-3.5c-0.1-0.1-0.1-0.2-0.2-0.3
			c-0.3-0.4-0.7-0.6-1.1-0.7l-0.4-0.1l-1.4,0.3l-4.4,1.7c-0.6,0.2-1.2,0.5-1.6,0.8c-1.5,1.2-1.4,2.6-1.4,2.6l0,3.4
			c0,0.4,0.1,0.8,0.3,1.1c0.5,1.3,1.7,1.8,2.5,1.8h20.9c0.8,0,2-0.5,2.5-1.8c0.1-0.3,0.2-0.7,0.3-1.2l0-3.2
			C331.3-253.7,331.4-255.1,329.9-256.3"/>
	</defs>
	<clipPath id="SVGID_42_">
		<use xlink:href="#SVGID_57_"  style="overflow:visible;"/>
	</clipPath>
	<g class="st20">
		<defs>
			<rect id="SVGID_59_" x="-920.3" y="-1690.7" width="1416.9" height="4376.5"/>
		</defs>
		<clipPath id="SVGID_44_">
			<use xlink:href="#SVGID_59_"  style="overflow:visible;"/>
		</clipPath>
	</g>
</g>
<g>
	<defs>
		<path id="SVGID_61_" d="M338.2-272.3c-0.1-1.6-1-2.7-2.4-3.2c-0.6-0.2-1.3-0.4-2-0.4c-0.7,0-1.4,0.1-2,0.4
			c-1.4,0.6-2.3,1.7-2.4,3.2c0,0.2,0,0.3,0,0.5l0,0.2c0,1.3,0.3,2.7,0.9,4c0.3,0.6,0.7,1.2,1.3,1.8c0.6,0.6,1.3,0.9,2.2,0.9h0l0.1,0
			c0.8,0,1.5-0.3,2.1-0.9c0.6-0.6,1-1.1,1.3-1.8c0.6-1.3,0.9-2.7,0.9-4l0-0.2C338.2-271.9,338.2-272.1,338.2-272.3"/>
	</defs>
	<clipPath id="SVGID_46_">
		<use xlink:href="#SVGID_61_"  style="overflow:visible;"/>
	</clipPath>
	<g style="clip-path:url(#SVGID_46_);">
		<defs>
			<rect id="SVGID_63_" x="-920.3" y="-1690.7" width="1416.9" height="4376.5"/>
		</defs>
		<clipPath id="SVGID_48_">
			<use xlink:href="#SVGID_63_"  style="overflow:visible;"/>
		</clipPath>
	</g>
</g>
<g>
	<defs>
		<path id="SVGID_65_" d="M345.1-256.5c0,0.4-0.1,0.7-0.2,0.9c-0.4,1-1.3,1.3-1.9,1.3h-9.1c-0.2-0.9-0.8-2.1-2.1-3.1h0
			c-0.6-0.5-1.4-0.9-2.2-1.2l-4.1-1.6c0.2-0.3,0.4-0.6,0.8-0.9c0.3-0.3,0.8-0.5,1.2-0.6l3.3-1.2l1-0.3l0.3,0
			c0.3,0.1,0.6,0.3,0.8,0.5c0.1,0.1,0.1,0.1,0.1,0.2c0.6,0.9,1.3,1.8,1.9,2.6l0.3,0.3l1.8-2.6c0,0,0.1-0.1,0.1-0.2
			c0.1-0.2,0.2-0.4,0.4-0.5l0.1-0.1c0.6-0.5,1.3-0.4,2-0.1c0,0,3.2,1.2,3.2,1.2c0.5,0.2,0.9,0.4,1.2,0.6c1.1,0.9,1.1,1.9,1.1,2.1
			L345.1-256.5z"/>
	</defs>
	<clipPath id="SVGID_50_">
		<use xlink:href="#SVGID_65_"  style="overflow:visible;"/>
	</clipPath>
	<g class="st24">
		<defs>
			<rect id="SVGID_67_" x="-920.3" y="-1690.7" width="1416.9" height="4376.5"/>
		</defs>
		<clipPath id="SVGID_52_">
			<use xlink:href="#SVGID_67_"  style="overflow:visible;"/>
		</clipPath>
	</g>
</g>
<g>
	<defs>
		<path id="SVGID_69_" d="M306.7-272.3c-0.1-1.6-1-2.7-2.4-3.2c-0.6-0.2-1.3-0.4-2-0.4c-0.7,0-1.4,0.1-2,0.4
			c-1.4,0.6-2.3,1.7-2.4,3.2c0,0.2,0,0.3,0,0.5v0.2c0,1.3,0.3,2.7,0.9,4c0.3,0.6,0.7,1.2,1.3,1.8c0.6,0.6,1.3,0.9,2.2,0.9h0l0.1,0
			c0.8,0,1.5-0.3,2.1-0.9c0.6-0.6,1-1.1,1.3-1.8c0.6-1.3,0.9-2.7,0.9-4v-0.2C306.7-271.9,306.7-272.1,306.7-272.3"/>
	</defs>
	<clipPath id="SVGID_54_">
		<use xlink:href="#SVGID_69_"  style="overflow:visible;"/>
	</clipPath>
	<g class="st26">
		<defs>
			<rect id="SVGID_71_" x="-920.3" y="-1690.7" width="1416.9" height="4376.5"/>
		</defs>
		<clipPath id="SVGID_56_">
			<use xlink:href="#SVGID_71_"  style="overflow:visible;"/>
		</clipPath>
	</g>
</g>
<g>
	<defs>
		<path id="SVGID_73_" d="M311.6-260l-4.1,1.5c-0.9,0.3-1.6,0.7-2.2,1.2c-1.3,1-1.9,2.1-2.1,3.1h-9.1c-0.6,0-1.5-0.4-1.9-1.3
			c-0.1-0.2-0.2-0.5-0.2-0.8l0-2.6c0-0.1-0.1-1.1,1.1-2c0.3-0.3,0.7-0.5,1.2-0.6l3.3-1.2l1-0.3l0.3,0c0.3,0.1,0.6,0.3,0.8,0.5
			c0.1,0.1,0.1,0.1,0.1,0.2c0.6,0.9,1.3,1.8,1.9,2.6l0.2,0.3l1.8-2.6c0,0,0.1-0.1,0.1-0.2c0.1-0.2,0.2-0.4,0.4-0.5l0.1-0.1
			c0.6-0.5,1.3-0.4,2-0.1c0,0,3.2,1.2,3.2,1.2c0.5,0.2,0.9,0.4,1.2,0.6C311.2-260.6,311.5-260.3,311.6-260"/>
	</defs>
	<clipPath id="SVGID_58_">
		<use xlink:href="#SVGID_73_"  style="overflow:visible;"/>
	</clipPath>
	<g class="st28">
		<defs>
			<rect id="SVGID_75_" x="-920.3" y="-1690.7" width="1416.9" height="4376.5"/>
		</defs>
		<clipPath id="SVGID_60_">
			<use xlink:href="#SVGID_75_"  style="overflow:visible;"/>
		</clipPath>
	</g>
</g>
<g>
	<defs>
		<polygon id="SVGID_85_" points="91.9,-177.2 104.9,-177.2 104.9,-172.1 117.9,-178.9 104.9,-185.6 104.9,-180.5 91.9,-180.5 		"/>
	</defs>
	<clipPath id="SVGID_62_">
		<use xlink:href="#SVGID_85_"  style="overflow:visible;"/>
	</clipPath>
	<g class="st30">
		<defs>
			<rect id="SVGID_87_" x="-221.3" y="-1334.9" width="1440" height="2150"/>
		</defs>
		<clipPath id="SVGID_64_">
			<use xlink:href="#SVGID_87_"  style="overflow:visible;"/>
		</clipPath>
	</g>
</g>
<g>
	<defs>
		<path id="SVGID_91_" d="M202.5-151.6h-48.1v-58l37-1.8c0,7.3,14.1,14.5,14.1,21.7C205.5-177.5,202.5-163.6,202.5-151.6z"/>
	</defs>
	<clipPath id="SVGID_66_">
		<use xlink:href="#SVGID_91_"  style="overflow:visible;"/>
	</clipPath>
	<g class="st32">
		<defs>
			<rect id="SVGID_93_" x="-221.3" y="-1334.9" width="1440" height="2150"/>
		</defs>
		<clipPath id="SVGID_68_">
			<use xlink:href="#SVGID_93_"  style="overflow:visible;"/>
		</clipPath>
	</g>
</g>
<g>
	<defs>
		<path id="SVGID_95_" d="M191.6-161.7c0,0.8-0.7,1.5-1.5,0.8H164c-0.8,0.6-1.5,0-1.5-0.8c0-0.8,0.7-1.5,1.5-1.5h26
			C190.8-163.3,191.5-162.6,191.6-161.7z M196.6-169.1c0,0.8-0.7,1.5-1.5,1.1H164c-0.8,0.4-1.5-0.3-1.5-1.1c0-0.4,0.1-0.7,0.4-1
			c0.3-0.3,0.7-0.4,1-0.3h31.3c0.4-0.1,0.8,0,1.1,0.3c0.3,0.3,0.5,0.6,0.4,1H196.6z M196.6-176.4c0,0.4-0.1,0.8-0.4,1
			s-0.7,0.4-1.1,0.3H164c-0.4,0.1-0.8-0.1-1-0.3c-0.3-0.3-0.4-0.6-0.4-1c0-0.8,0.7-1.5,1.5-1h31.3c0.8-0.3,1.5,0.2,1.5,1H196.6z
			 M163.9-184.5h31.4c0.8-0.7,1.5,0,1.5,0.8c0,0.8-0.7,1.5-1.5,1.6H164c-0.8-0.1-1.4-0.8-1.5-1.6c0-0.8,0.7-1.5,1.5-0.8H163.9z
			 M192.4-205.7l7.1,7h-7.1V-205.7z M204.3-151.5h-48.8v-57.8h32.2v16.5h16.7V-151.5z M149.5-215.2v68.5h60.8v-49.9l-18.7-18.5
			H149.5z"/>
	</defs>
	<clipPath id="SVGID_70_">
		<use xlink:href="#SVGID_95_"  style="overflow:visible;"/>
	</clipPath>
	<g class="st34">
		<defs>
			<rect id="SVGID_97_" x="-221.3" y="-1334.9" width="1440" height="2150"/>
		</defs>
		<clipPath id="SVGID_72_">
			<use xlink:href="#SVGID_97_"  style="overflow:visible;"/>
		</clipPath>
	</g>
</g>
<g>
	<defs>
		<path id="SVGID_101_" d="M65.4-151.6H17.2v-58l37-1.8c0,7.3,14.1,14.5,14.1,21.7C68.4-177.5,65.4-163.6,65.4-151.6z"/>
	</defs>
	<clipPath id="SVGID_74_">
		<use xlink:href="#SVGID_101_"  style="overflow:visible;"/>
	</clipPath>
	<g class="st36">
		<defs>
			<rect id="SVGID_103_" x="-221.3" y="-1334.9" width="1440" height="2150"/>
		</defs>
		<clipPath id="SVGID_76_">
			<use xlink:href="#SVGID_103_"  style="overflow:visible;"/>
		</clipPath>
	</g>
</g>
<g>
	<defs>
		<path id="SVGID_105_" d="M54.4-161.7c0,0.8-0.7,1.5-1.5,0.8H26.9c-0.8,0.6-1.5,0-1.5-0.8c0-0.8,0.7-1.5,1.5-1.5h26
			C53.7-163.3,54.4-162.6,54.4-161.7z M59.5-169.1c0,0.8-0.7,1.5-1.5,1.1H26.9c-0.8,0.4-1.5-0.3-1.5-1.1c0-0.4,0.1-0.7,0.4-1
			c0.3-0.3,0.7-0.4,1-0.3h31.3c0.4-0.1,0.8,0,1.1,0.3c0.3,0.3,0.5,0.6,0.4,1H59.5z M59.5-176.4c0,0.4-0.1,0.8-0.4,1
			c-0.3,0.3-0.7,0.4-1.1,0.3H26.9c-0.4,0.1-0.8-0.1-1-0.3c-0.3-0.3-0.4-0.6-0.4-1c0-0.8,0.7-1.5,1.5-1h31.3c0.8-0.3,1.5,0.2,1.5,1
			H59.5z M26.7-184.5h31.4c0.8-0.7,1.5,0,1.5,0.8c0,0.8-0.7,1.5-1.5,1.6H26.9c-0.8-0.1-1.4-0.8-1.5-1.6c0-0.8,0.7-1.5,1.5-0.8H26.7z
			 M55.3-205.7l7.1,7h-7.1V-205.7z M67.2-151.5H18.4v-57.8h32.2v16.5h16.7V-151.5z M12.4-215.2v68.5h60.8v-49.9l-18.7-18.5H12.4z"/>
	</defs>
	<clipPath id="SVGID_78_">
		<use xlink:href="#SVGID_105_"  style="overflow:visible;"/>
	</clipPath>
	<g style="clip-path:url(#SVGID_78_);">
		<defs>
			<rect id="SVGID_107_" x="-221.3" y="-1334.9" width="1440" height="2150"/>
		</defs>
		<clipPath id="SVGID_80_">
			<use xlink:href="#SVGID_107_"  style="overflow:visible;"/>
		</clipPath>
	</g>
</g>
<g>
	<defs>
		<polygon id="SVGID_109_" points="331.2,-177.6 344.2,-177.6 344.2,-172.5 357.2,-179.2 344.2,-186 344.2,-180.9 331.2,-180.9 		
			"/>
	</defs>
	<clipPath id="SVGID_82_">
		<use xlink:href="#SVGID_109_"  style="overflow:visible;"/>
	</clipPath>
	<g class="st40">
		<defs>
			<rect id="SVGID_111_" x="-349" y="-1335.3" width="1440" height="2150"/>
		</defs>
		<clipPath id="SVGID_84_">
			<use xlink:href="#SVGID_111_"  style="overflow:visible;"/>
		</clipPath>
	</g>
</g>
<g>
	<defs>
		<path id="SVGID_115_" d="M304.7-152h-48.1v-58l37-1.8c0,7.3,14.1,14.5,14.1,21.7C307.7-177.9,304.7-164,304.7-152z"/>
	</defs>
	<clipPath id="SVGID_86_">
		<use xlink:href="#SVGID_115_"  style="overflow:visible;"/>
	</clipPath>
	<g class="st42">
		<defs>
			<rect id="SVGID_117_" x="-349" y="-1335.3" width="1440" height="2150"/>
		</defs>
		<clipPath id="SVGID_88_">
			<use xlink:href="#SVGID_117_"  style="overflow:visible;"/>
		</clipPath>
	</g>
</g>
<g>
	<defs>
		<path id="SVGID_119_" d="M293.7-162.1c0,0.8-0.7,1.5-1.5,0.8h-26.1c-0.8,0.6-1.5,0-1.5-0.8c0-0.8,0.7-1.5,1.5-1.5h26
			C293-163.7,293.7-163,293.7-162.1z M298.8-169.5c0,0.8-0.7,1.5-1.5,1.1h-31.2c-0.8,0.4-1.5-0.3-1.5-1.1c0-0.4,0.1-0.7,0.4-1
			c0.3-0.3,0.7-0.4,1-0.3h31.3c0.4-0.1,0.8,0,1.1,0.3c0.3,0.3,0.5,0.6,0.4,1H298.8z M298.8-176.8c0,0.4-0.1,0.8-0.4,1
			s-0.7,0.4-1.1,0.3h-31.2c-0.4,0.1-0.8-0.1-1-0.3c-0.3-0.3-0.4-0.6-0.4-1c0-0.8,0.7-1.5,1.5-1h31.3c0.8-0.3,1.5,0.2,1.5,1H298.8z
			 M266-184.9h31.4c0.8-0.7,1.5,0,1.5,0.8c0,0.8-0.7,1.5-1.5,1.6h-31.3c-0.8-0.1-1.4-0.8-1.5-1.6c0-0.8,0.7-1.5,1.5-0.8H266z
			 M294.6-206.1l7.1,7h-7.1V-206.1z M306.5-151.9h-48.8v-57.8h32.2v16.5h16.7V-151.9z M251.7-215.6v68.5h60.8v-49.9l-18.7-18.5
			H251.7z"/>
	</defs>
	<clipPath id="SVGID_90_">
		<use xlink:href="#SVGID_119_"  style="overflow:visible;"/>
	</clipPath>
	<g style="clip-path:url(#SVGID_90_);">
		<defs>
			<rect id="SVGID_121_" x="-349" y="-1335.3" width="1440" height="2150"/>
		</defs>
		<clipPath id="SVGID_92_">
			<use xlink:href="#SVGID_121_"  style="overflow:visible;"/>
		</clipPath>
	</g>
</g>
<g>
	<defs>
		<path id="SVGID_123_" d="M403.2-215.8c0.1-2.5,2-4.4,4.4-4.4h0.2c2.4,0,4.4,2,4.4,4.4v0.4h-9.1V-215.8z M396.6-203.1h22.1
			c1.8-0.1,3.3-1.3,3.8-3c0.1-0.2,0.1-0.5,0.1-0.8v-4.9c0-0.3-0.1-0.5-0.1-0.8c-0.1-0.4-0.3-0.8-0.6-1.2c-0.5-0.8-1.3-1.4-2.2-1.6
			c-0.3-0.1-0.7-0.1-1.1-0.1h-2.4v-0.4c-0.1-4.7-3.8-8.5-8.4-8.5h-0.1c-2.2,0-4.3,0.9-5.9,2.5c-1.6,1.6-2.6,3.7-2.6,6v0.4h-2.4
			c-0.4,0-0.7,0.1-1.1,0.2c-0.9,0.3-1.7,0.8-2.2,1.6c-0.3,0.3-0.5,0.7-0.6,1.1c-0.1,0.3-0.1,0.5-0.2,0.8v4.8c0,0.3,0.1,0.5,0.2,0.8
			C393.4-204.4,394.9-203.2,396.6-203.1z"/>
	</defs>
	<clipPath id="SVGID_94_">
		<use xlink:href="#SVGID_123_"  style="overflow:visible;"/>
	</clipPath>
	<g style="clip-path:url(#SVGID_94_);">
		<defs>
			<rect id="SVGID_125_" x="-349" y="-1335.3" width="1440" height="2150"/>
		</defs>
		<clipPath id="SVGID_96_">
			<use xlink:href="#SVGID_125_"  style="overflow:visible;"/>
		</clipPath>
	</g>
</g>
<g>
	<defs>
		<path id="SVGID_127_" d="M439-165.5v-0.8c0-1.8,0-3.8,0-5.6c0-4.5,0-0.7,0-5.2v-2.2c0-6.7,0-13.9,0-20.9c0.3-4.7-2.3-9.1-6.6-11.2
			c-1.7-0.9-3.6-1.3-5.5-1.3h-1.2v5.5h0.3c0.8,0,1.4,0,2,0c3,0.2,5.3,2.5,5.6,5.4c0.2,2.8,0.2,5.6,0.2,8.2v35.1
			c0.1,1.5-0.1,3.1-0.7,4.5c-1,2.1-3.2,3.5-5.6,3.4H388c-2.4,0.1-4.6-1.3-5.6-3.4c-0.6-1.4-0.9-3-0.7-4.5v-35c0-2.5,0-5.4,0.2-8.2
			c0.2-2.9,2.6-5.2,5.6-5.4c0.6,0,1.2,0,2,0h0.3v-5.5h-1.2c-1.9-0.1-3.8,0.3-5.5,1.2c-4.3,2.2-6.8,6.6-6.6,11.2c0,7,0,14.2,0,21v2.2
			c0,4.5,0,0.8,0,5.2c0,1.9,0,3.8,0,5.6v0.8c0,5.3,0,3.8,0,9.2c0.2,6.1,5.3,11,11.5,11.1h19h1.4h19c3,0,5.9-1.2,8.1-3.3
			c2.2-2,3.4-4.8,3.5-7.8C439.1-161.8,439-160.2,439-165.5z"/>
	</defs>
	<clipPath id="SVGID_98_">
		<use xlink:href="#SVGID_127_"  style="overflow:visible;"/>
	</clipPath>
	<g style="clip-path:url(#SVGID_98_);">
		<defs>
			<rect id="SVGID_129_" x="-349" y="-1335.3" width="1440" height="2150"/>
		</defs>
		<clipPath id="SVGID_100_">
			<use xlink:href="#SVGID_129_"  style="overflow:visible;"/>
		</clipPath>
	</g>
</g>
<g>
	<defs>
		<path id="SVGID_131_" d="M422.4-180.9h-15.8c-0.7,0-1.2,0.6-1.2,1.4s0.6,1.4,1.2,1.4h15.8c0.7,0,1.2-0.6,1.2-1.4
			S423-180.9,422.4-180.9z"/>
	</defs>
	<clipPath id="SVGID_102_">
		<use xlink:href="#SVGID_131_"  style="overflow:visible;"/>
	</clipPath>
	<g class="st50">
		<defs>
			<rect id="SVGID_133_" x="-349" y="-1335.3" width="1440" height="2150"/>
		</defs>
		<clipPath id="SVGID_104_">
			<use xlink:href="#SVGID_133_"  style="overflow:visible;"/>
		</clipPath>
	</g>
</g>
<g>
	<defs>
		<path id="SVGID_135_" d="M422.4-165.5h-15.8c-0.7,0-1.2,0.6-1.2,1.4s0.6,1.4,1.2,1.4h15.8c0.7,0,1.2-0.6,1.2-1.4
			S423-165.5,422.4-165.5z"/>
	</defs>
	<clipPath id="SVGID_106_">
		<use xlink:href="#SVGID_135_"  style="overflow:visible;"/>
	</clipPath>
	<g class="st52">
		<defs>
			<rect id="SVGID_137_" x="-349" y="-1335.3" width="1440" height="2150"/>
		</defs>
		<clipPath id="SVGID_108_">
			<use xlink:href="#SVGID_137_"  style="overflow:visible;"/>
		</clipPath>
	</g>
</g>
<g>
	<defs>
		<path id="SVGID_139_" d="M393.9-188.2c0.7,0.7,1.8,0.7,2.5,0l3.7-4c0.3-0.3,0.5-0.8,0.4-1.2c-0.1-0.5-0.4-0.8-0.8-0.9
			c-0.4-0.1-0.9,0-1.1,0.4l-3.3,3.6l-1.2-1.4c-0.3-0.4-0.7-0.6-1.2-0.5c-0.4,0.1-0.8,0.5-0.9,1c-0.1,0.5,0.1,1,0.4,1.3L393.9-188.2z
			"/>
	</defs>
	<clipPath id="SVGID_110_">
		<use xlink:href="#SVGID_139_"  style="overflow:visible;"/>
	</clipPath>
	<g class="st54">
		<defs>
			<rect id="SVGID_141_" x="-349" y="-1335.3" width="1440" height="2150"/>
		</defs>
		<clipPath id="SVGID_112_">
			<use xlink:href="#SVGID_141_"  style="overflow:visible;"/>
		</clipPath>
	</g>
</g>
<g>
	<defs>
		<path id="SVGID_143_" d="M393.2-166.9h4.8v4.8h-4.8V-166.9z M390.8-159.7h9.6v-9.6h-9.6V-159.7z"/>
	</defs>
	<clipPath id="SVGID_114_">
		<use xlink:href="#SVGID_143_"  style="overflow:visible;"/>
	</clipPath>
	<g style="clip-path:url(#SVGID_114_);">
		<defs>
			<rect id="SVGID_145_" x="-349" y="-1335.3" width="1440" height="2150"/>
		</defs>
		<clipPath id="SVGID_116_">
			<use xlink:href="#SVGID_145_"  style="overflow:visible;"/>
		</clipPath>
	</g>
</g>
<g>
	<defs>
		<path id="SVGID_147_" d="M406.5-191.5c-0.7,0-1.2,0.6-1.2,1.4s0.6,1.4,1.2,1.4h15.8c0.7,0,1.2-0.6,1.2-1.4s-0.6-1.4-1.2-1.4H406.5
			z"/>
	</defs>
	<clipPath id="SVGID_118_">
		<use xlink:href="#SVGID_147_"  style="overflow:visible;"/>
	</clipPath>
	<g style="clip-path:url(#SVGID_118_);">
		<defs>
			<rect id="SVGID_149_" x="-349" y="-1335.3" width="1440" height="2150"/>
		</defs>
		<clipPath id="SVGID_120_">
			<use xlink:href="#SVGID_149_"  style="overflow:visible;"/>
		</clipPath>
	</g>
</g>
<g>
	<defs>
		<path id="SVGID_151_" d="M393.9-175.7c0.7,0.8,1.8,0.8,2.6,0l3.8-4.2c0.3-0.5,0.2-1.2-0.2-1.6c-0.4-0.4-1-0.5-1.5-0.1l-3.4,3.7
			l-1.3-1.3c-0.3-0.4-0.8-0.6-1.2-0.5c-0.5,0.1-0.8,0.5-0.9,1c-0.1,0.5,0.1,1,0.4,1.3L393.9-175.7z"/>
	</defs>
	<clipPath id="SVGID_122_">
		<use xlink:href="#SVGID_151_"  style="overflow:visible;"/>
	</clipPath>
	<g style="clip-path:url(#SVGID_122_);">
		<defs>
			<rect id="SVGID_153_" x="-349" y="-1335.3" width="1440" height="2150"/>
		</defs>
		<clipPath id="SVGID_124_">
			<use xlink:href="#SVGID_153_"  style="overflow:visible;"/>
		</clipPath>
	</g>
</g>
<g>
	<defs>
		<path id="SVGID_155_" d="M530.5-160.5c0,0.8-0.7,1.5-1.5,1.5h-26.4c-0.8,0-1.5-0.7-1.5-1.5c0-0.4,0.2-0.8,0.4-1.1s0.7-0.4,1.1-0.4
			h26.4c0.4,0,0.8,0.1,1.1,0.4C530.3-161.3,530.5-160.9,530.5-160.5z M535.7-167.5c0,0.8-0.7,1.5-1.5,1.5h-31.8
			c-0.8,0-1.5-0.7-1.5-1.5c0-0.8,0.7-1.5,1.5-1.5h31.7c0.4,0,0.8,0.1,1.1,0.4S535.7-167.9,535.7-167.5z M535.7-175.6
			c0,0.8-0.7,1.5-1.5,1.5h-31.8c-0.5,0-1-0.3-1.3-0.8c-0.3-0.5-0.3-1,0-1.5c0.3-0.5,0.8-0.8,1.3-0.8h31.7c0.4,0,0.8,0.1,1.1,0.4
			S535.7-176,535.7-175.6z M502.4-184.1h31.7c0.8,0,1.5,0.7,1.5,1.5c0,0.8-0.7,1.5-1.5,1.5h-31.7c-0.8,0-1.5-0.7-1.5-1.5
			C500.9-183.4,501.6-184.1,502.4-184.1z M531.2-204.1l6.9,7h-6.9V-204.1z M542.2-151h-48v-57.2h31v17.1h17V-151z M488.2-213.2v68.3
			h60v-49.8l-18.5-18.5H488.2z"/>
	</defs>
	<clipPath id="SVGID_126_">
		<use xlink:href="#SVGID_155_"  style="overflow:visible;"/>
	</clipPath>
	<g style="clip-path:url(#SVGID_126_);">
		<defs>
			<rect id="SVGID_157_" x="-571.4" y="-1334.9" width="1440" height="2150"/>
		</defs>
		<clipPath id="SVGID_128_">
			<use xlink:href="#SVGID_157_"  style="overflow:visible;"/>
		</clipPath>
	</g>
</g>
<g>
	<defs>
		<path id="SVGID_159_" d="M512.3-223c-1.7-1.3-4.1-1.1-5.6,0.5l-17.3,17.3l-7.7-7.7c-1.5-1.6-3.9-1.8-5.6-0.5
			c-0.9,0.7-1.4,1.8-1.5,3c-0.1,1.2,0.4,2.3,1.2,3.1l11.5,11.5c0.6,0.6,1.4,1,2.2,1c0.8,0,1.6-0.3,2.2-1l21-21.1
			c0.8-0.8,1.2-2,1.1-3.1C513.7-221.2,513.2-222.3,512.3-223z"/>
	</defs>
	<clipPath id="SVGID_130_">
		<use xlink:href="#SVGID_159_"  style="overflow:visible;"/>
	</clipPath>
	<g style="clip-path:url(#SVGID_130_);">
		<defs>
			<rect id="SVGID_161_" x="-571.4" y="-1334.9" width="1440" height="2150"/>
		</defs>
		<clipPath id="SVGID_132_">
			<use xlink:href="#SVGID_161_"  style="overflow:visible;"/>
		</clipPath>
	</g>
</g>
<g>
	<defs>
		<path id="SVGID_165_" d="M66.7-44.8H15.9v-59.8l39.1-1.9c0,7.5,14.9,15,14.9,22.5C69.9-71.6,66.7-57.3,66.7-44.8z"/>
	</defs>
	<clipPath id="SVGID_134_">
		<use xlink:href="#SVGID_165_"  style="overflow:visible;"/>
	</clipPath>
	<g style="clip-path:url(#SVGID_134_);">
		<defs>
			<rect id="SVGID_167_" x="-490.7" y="-1780.5" width="1440" height="3155"/>
		</defs>
		<clipPath id="SVGID_136_">
			<use xlink:href="#SVGID_167_"  style="overflow:visible;"/>
		</clipPath>
	</g>
</g>
<g>
	<defs>
		<path id="SVGID_169_" d="M53.3-54.7c0,0.8-0.7,1.5-1.5,0.9H25.1c-0.8,0.7-1.5,0-1.5-0.9c0-0.8,0.7-1.5,1.5-1.6h26.8
			C52.7-56.2,53.4-55.5,53.3-54.7L53.3-54.7z M58.8-62.3c0,0.8-0.7,1.5-1.5,1.1H25.1c-0.8,0.4-1.5-0.3-1.5-1.1c0-0.4,0.1-0.8,0.4-1
			c0.3-0.3,0.7-0.4,1.1-0.3h32.3c0.4-0.1,0.8,0,1.1,0.3S58.9-62.7,58.8-62.3L58.8-62.3z M58.8-69.9c0,0.4-0.1,0.8-0.4,1.1
			s-0.7,0.4-1.1,0.3H25.1c-0.4,0.1-0.8-0.1-1.1-0.3s-0.5-0.6-0.4-1c0-0.8,0.7-1.5,1.5-1.1h32.3C58.2-71.4,58.9-70.8,58.8-69.9
			L58.8-69.9z M25-78.4h32.4c0.9-0.7,1.5,0,1.5,0.8c0,0.9-0.7,1.6-1.5,1.6H25.1c-0.8-0.1-1.5-0.8-1.5-1.6
			C23.5-78.4,24.2-79.1,25-78.4L25-78.4z M54.4-100.5l7.3,7.3h-7.3V-100.5z M66.8-43.9H16.3v-60.3h33.2V-87h17.2L66.8-43.9z
			 M10.2-110.4V-39h62.7v-52l-19.4-19.3H10.2z"/>
	</defs>
	<clipPath id="SVGID_138_">
		<use xlink:href="#SVGID_169_"  style="overflow:visible;"/>
	</clipPath>
	<g style="clip-path:url(#SVGID_138_);">
		<defs>
			<rect id="SVGID_171_" x="-490.7" y="-1780.5" width="1440" height="3155"/>
		</defs>
		<clipPath id="SVGID_140_">
			<use xlink:href="#SVGID_171_"  style="overflow:visible;"/>
		</clipPath>
	</g>
</g>
<g>
	<defs>
		<polygon id="SVGID_173_" points="97,-79.2 110,-79.2 110,-73.7 123,-81 110,-88.2 110,-82.7 97,-82.7 		"/>
	</defs>
	<clipPath id="SVGID_142_">
		<use xlink:href="#SVGID_173_"  style="overflow:visible;"/>
	</clipPath>
	<g style="clip-path:url(#SVGID_142_);">
		<defs>
			<rect id="SVGID_175_" x="-490.7" y="-1780.5" width="1440" height="3155"/>
		</defs>
		<clipPath id="SVGID_144_">
			<use xlink:href="#SVGID_175_"  style="overflow:visible;"/>
		</clipPath>
	</g>
</g>
<g>
	<defs>
		<path id="SVGID_177_" d="M219.4-66.5c-22.2,0-44.5,0-66.7,0c-2.3,0-2.3,0-2.3-2.3V-108c0-2.6,0-2.6,2.8-2.6h65.9
			c2.3,0,2.5,0,2.5,2.3c0,12.3,0,27.4,0,39.7c0,1.6-0.4,2.2-2.2,2.2H219.4z M221.7-118H151c-4.8,0-6.8,2-6.8,6.8v49.9
			c0,4.7,1.9,6.8,6.6,6.8h26.3v3c-0.1,1.5-1,2.9-2.3,3.7c-0.8,0.6-1.8,1.2-2.7,1.6c-0.8,0.4-1.7,0.7-2.5,1c-0.6,0.2-1.1,0.8-1.1,1.5
			v0.2c0,1,0.8,1.8,1.8,1.8h31.5c0.5,0,0.9-0.2,1.2-0.5s0.5-0.8,0.5-1.2c0-0.8-0.5-1.4-1.2-1.7c-0.8-0.3-1.5-0.6-2.3-0.9
			c-1-0.4-1.9-1-2.7-1.6c-1.3-0.8-2.1-2.1-2.3-3.7v-3.1h26.6c4.4,0,6.3-2.1,6.3-6.5v-50.5c0.2-1.7-0.4-3.5-1.6-4.7
			C225.2-117.7,223.4-118.3,221.7-118z"/>
	</defs>
	<clipPath id="SVGID_146_">
		<use xlink:href="#SVGID_177_"  style="overflow:visible;"/>
	</clipPath>
	<g style="clip-path:url(#SVGID_146_);">
		<defs>
			<rect id="SVGID_179_" x="-490.7" y="-1780.5" width="1440" height="3155"/>
		</defs>
		<clipPath id="SVGID_148_">
			<use xlink:href="#SVGID_179_"  style="overflow:visible;"/>
		</clipPath>
	</g>
</g>
<g>
	<defs>
		<path id="SVGID_181_" d="M275.8-114.4c0.1-2.5,2-4.4,4.4-4.4h0.2c2.4,0,4.4,2,4.4,4.4v0.4h-9.1V-114.4z M269.2-101.7h22.1
			c1.8-0.1,3.3-1.3,3.8-3c0.1-0.2,0.1-0.5,0.1-0.8v-4.9c0-0.3-0.1-0.5-0.1-0.8c-0.1-0.4-0.3-0.8-0.6-1.2c-0.5-0.8-1.3-1.4-2.2-1.6
			c-0.3-0.1-0.7-0.1-1.1-0.1h-2.4v-0.4c-0.1-4.7-3.8-8.5-8.4-8.5h-0.1c-2.2,0-4.3,0.9-5.9,2.5c-1.6,1.6-2.6,3.7-2.6,6v0.4h-2.4
			c-0.4,0-0.7,0.1-1.1,0.2c-0.9,0.3-1.7,0.8-2.2,1.6c-0.3,0.3-0.5,0.7-0.6,1.1c-0.1,0.3-0.1,0.5-0.2,0.8v4.8c0,0.3,0.1,0.5,0.2,0.8
			C266-103,267.5-101.8,269.2-101.7z"/>
	</defs>
	<clipPath id="SVGID_150_">
		<use xlink:href="#SVGID_181_"  style="overflow:visible;"/>
	</clipPath>
	<g style="clip-path:url(#SVGID_150_);">
		<defs>
			<rect id="SVGID_183_" x="-709.1" y="-1761.9" width="1440" height="3155"/>
		</defs>
		<clipPath id="SVGID_152_">
			<use xlink:href="#SVGID_183_"  style="overflow:visible;"/>
		</clipPath>
	</g>
</g>
<g>
	<defs>
		<path id="SVGID_185_" d="M311.6-64.1v-0.8c0-1.8,0-3.8,0-5.6c0-4.5,0-0.7,0-5.2V-78c0-6.7,0-13.9,0-20.9c0.3-4.7-2.3-9.1-6.6-11.2
			c-1.7-0.9-3.6-1.3-5.5-1.3h-1.2v5.5h0.3c0.8,0,1.4,0,2,0c3,0.2,5.3,2.5,5.6,5.4c0.2,2.8,0.2,5.6,0.2,8.2v35.1
			c0.1,1.5-0.1,3.1-0.7,4.5c-1,2.1-3.2,3.5-5.6,3.4h-39.4c-2.4,0.1-4.6-1.3-5.6-3.4c-0.6-1.4-0.9-3-0.7-4.5v-35c0-2.5,0-5.4,0.2-8.2
			c0.2-2.9,2.6-5.2,5.6-5.4c0.6,0,1.2,0,2,0h0.3v-5.5h-1.2c-1.9-0.1-3.8,0.3-5.5,1.2c-4.3,2.2-6.8,6.6-6.6,11.2c0,7,0,14.2,0,21v2.2
			c0,4.5,0,0.8,0,5.2c0,1.9,0,3.8,0,5.6v0.8c0,5.3,0,3.8,0,9.2c0.2,6.1,5.3,11,11.5,11.1h19h1.4h19c3,0,5.9-1.2,8.1-3.3
			c2.2-2,3.4-4.8,3.5-7.8C311.6-60.3,311.6-58.8,311.6-64.1z"/>
	</defs>
	<clipPath id="SVGID_154_">
		<use xlink:href="#SVGID_185_"  style="overflow:visible;"/>
	</clipPath>
	<g style="clip-path:url(#SVGID_154_);">
		<defs>
			<rect id="SVGID_187_" x="-709.1" y="-1761.9" width="1440" height="3155"/>
		</defs>
		<clipPath id="SVGID_156_">
			<use xlink:href="#SVGID_187_"  style="overflow:visible;"/>
		</clipPath>
	</g>
</g>
<g>
	<defs>
		<path id="SVGID_189_" d="M294.9-79.5h-15.8c-0.7,0-1.2,0.6-1.2,1.4c0,0.8,0.6,1.4,1.2,1.4h15.8c0.7,0,1.2-0.6,1.2-1.4
			C296.2-78.9,295.6-79.5,294.9-79.5z"/>
	</defs>
	<clipPath id="SVGID_158_">
		<use xlink:href="#SVGID_189_"  style="overflow:visible;"/>
	</clipPath>
	<g style="clip-path:url(#SVGID_158_);">
		<defs>
			<rect id="SVGID_191_" x="-709.1" y="-1761.9" width="1440" height="3155"/>
		</defs>
		<clipPath id="SVGID_160_">
			<use xlink:href="#SVGID_191_"  style="overflow:visible;"/>
		</clipPath>
	</g>
</g>
<g>
	<defs>
		<path id="SVGID_193_" d="M294.9-64.1h-15.8c-0.7,0-1.2,0.6-1.2,1.4c0,0.8,0.6,1.4,1.2,1.4h15.8c0.7,0,1.2-0.6,1.2-1.4
			C296.2-63.4,295.6-64.1,294.9-64.1z"/>
	</defs>
	<clipPath id="SVGID_162_">
		<use xlink:href="#SVGID_193_"  style="overflow:visible;"/>
	</clipPath>
	<g style="clip-path:url(#SVGID_162_);">
		<defs>
			<rect id="SVGID_195_" x="-709.1" y="-1761.9" width="1440" height="3155"/>
		</defs>
		<clipPath id="SVGID_164_">
			<use xlink:href="#SVGID_195_"  style="overflow:visible;"/>
		</clipPath>
	</g>
</g>
<g>
	<defs>
		<path id="SVGID_197_" d="M266.5-86.8c0.7,0.7,1.8,0.7,2.5,0l3.7-4c0.3-0.3,0.5-0.8,0.4-1.2c-0.1-0.5-0.4-0.8-0.8-0.9
			c-0.4-0.1-0.9,0-1.1,0.4l-3.3,3.6l-1.2-1.4c-0.3-0.4-0.7-0.6-1.2-0.5c-0.4,0.1-0.8,0.5-0.9,1c-0.1,0.5,0.1,1,0.4,1.3L266.5-86.8z"
			/>
	</defs>
	<clipPath id="SVGID_166_">
		<use xlink:href="#SVGID_197_"  style="overflow:visible;"/>
	</clipPath>
	<g class="st82">
		<defs>
			<rect id="SVGID_199_" x="-709.1" y="-1761.9" width="1440" height="3155"/>
		</defs>
		<clipPath id="SVGID_168_">
			<use xlink:href="#SVGID_199_"  style="overflow:visible;"/>
		</clipPath>
	</g>
</g>
<g>
	<defs>
		<path id="SVGID_201_" d="M265.8-65.5h4.8v4.8h-4.8V-65.5z M263.4-58.3h9.6V-68h-9.6V-58.3z"/>
	</defs>
	<clipPath id="SVGID_170_">
		<use xlink:href="#SVGID_201_"  style="overflow:visible;"/>
	</clipPath>
	<g class="st84">
		<defs>
			<rect id="SVGID_203_" x="-709.1" y="-1761.9" width="1440" height="3155"/>
		</defs>
		<clipPath id="SVGID_172_">
			<use xlink:href="#SVGID_203_"  style="overflow:visible;"/>
		</clipPath>
	</g>
</g>
<g>
	<defs>
		<path id="SVGID_205_" d="M279.1-90.1c-0.7,0-1.2,0.6-1.2,1.4s0.6,1.4,1.2,1.4h15.8c0.7,0,1.2-0.6,1.2-1.4s-0.6-1.4-1.2-1.4H279.1z
			"/>
	</defs>
	<clipPath id="SVGID_174_">
		<use xlink:href="#SVGID_205_"  style="overflow:visible;"/>
	</clipPath>
	<g class="st86">
		<defs>
			<rect id="SVGID_207_" x="-709.1" y="-1761.9" width="1440" height="3155"/>
		</defs>
		<clipPath id="SVGID_176_">
			<use xlink:href="#SVGID_207_"  style="overflow:visible;"/>
		</clipPath>
	</g>
</g>
<g>
	<defs>
		<path id="SVGID_209_" d="M266.5-74.3c0.7,0.8,1.8,0.8,2.6,0l3.8-4.2c0.3-0.5,0.2-1.2-0.2-1.6c-0.4-0.4-1-0.5-1.5-0.1l-3.4,3.7
			l-1.3-1.3c-0.3-0.4-0.8-0.6-1.2-0.5c-0.5,0.1-0.8,0.5-0.9,1c-0.1,0.5,0.1,1,0.4,1.3L266.5-74.3z"/>
	</defs>
	<clipPath id="SVGID_178_">
		<use xlink:href="#SVGID_209_"  style="overflow:visible;"/>
	</clipPath>
	<g class="st88">
		<defs>
			<rect id="SVGID_211_" x="-709.1" y="-1761.9" width="1440" height="3155"/>
		</defs>
		<clipPath id="SVGID_180_">
			<use xlink:href="#SVGID_211_"  style="overflow:visible;"/>
		</clipPath>
	</g>
</g>
<g>
	<defs>
		<path id="SVGID_213_" d="M333.5-77.6c0-1.7,0.1-3.4,0.4-5.1c0.2-1.2-0.6-2.4-1.8-2.6c-0.6-0.1-1.2,0-1.7,0.4
			c-0.5,0.3-0.8,0.9-0.9,1.5c-0.3,1.9-0.5,3.9-0.5,5.9c0,1.2,1,2.3,2.3,2.3C332.5-75.4,333.5-76.4,333.5-77.6z"/>
	</defs>
	<clipPath id="SVGID_182_">
		<use xlink:href="#SVGID_213_"  style="overflow:visible;"/>
	</clipPath>
	<g class="st90">
		<defs>
			<rect id="SVGID_215_" x="-709.1" y="-1761.9" width="1440" height="3155"/>
		</defs>
		<clipPath id="SVGID_184_">
			<use xlink:href="#SVGID_215_"  style="overflow:visible;"/>
		</clipPath>
	</g>
</g>
<g>
	<defs>
		<path id="SVGID_217_" d="M349-103.9c0.4,0,0.7-0.1,1-0.2c2.8-1.4,5.7-2.3,8.8-2.7c0.6-0.1,1.2-0.4,1.5-0.9
			c0.4-0.5,0.5-1.1,0.4-1.7c-0.1-0.6-0.4-1.1-0.9-1.5c-0.5-0.4-1.2-0.6-1.8-0.4c-3.5,0.5-7,1.6-10.1,3.2c-0.9,0.5-1.4,1.5-1.2,2.6
			S347.9-103.8,349-103.9z"/>
	</defs>
	<clipPath id="SVGID_186_">
		<use xlink:href="#SVGID_217_"  style="overflow:visible;"/>
	</clipPath>
	<g class="st92">
		<defs>
			<rect id="SVGID_219_" x="-709.1" y="-1761.9" width="1440" height="3155"/>
		</defs>
		<clipPath id="SVGID_188_">
			<use xlink:href="#SVGID_219_"  style="overflow:visible;"/>
		</clipPath>
	</g>
</g>
<g>
	<defs>
		<path id="SVGID_221_" d="M333.9-90.5L333.9-90.5c0.5,0.3,1.2,0.3,1.7,0.1s1-0.6,1.3-1.1c1.5-2.7,3.3-5.2,5.6-7.3
			c0.9-0.9,0.9-2.3,0-3.2c-0.4-0.4-1-0.7-1.6-0.7c-0.6,0-1.2,0.2-1.6,0.7c-2.5,2.5-4.7,5.3-6.4,8.4c-0.3,0.5-0.3,1.1-0.2,1.7
			C332.9-91.3,333.3-90.8,333.9-90.5z"/>
	</defs>
	<clipPath id="SVGID_190_">
		<use xlink:href="#SVGID_221_"  style="overflow:visible;"/>
	</clipPath>
	<g class="st94">
		<defs>
			<rect id="SVGID_223_" x="-709.1" y="-1761.9" width="1440" height="3155"/>
		</defs>
		<clipPath id="SVGID_192_">
			<use xlink:href="#SVGID_223_"  style="overflow:visible;"/>
		</clipPath>
	</g>
</g>
<g>
	<defs>
		<path id="SVGID_225_" d="M359-48.4c-3.1-0.4-6-1.3-8.8-2.6c-0.8-0.4-1.8-0.3-2.5,0.3c-0.7,0.6-0.9,1.5-0.7,2.4
			c0.2,0.6,0.6,1,1.2,1.3c3.2,1.6,6.6,2.6,10.2,3.1h0.3c0.9,0,1.6-0.5,2-1.3c0.4-0.8,0.3-1.7-0.2-2.3C360.1-48,359.6-48.3,359-48.4z
			"/>
	</defs>
	<clipPath id="SVGID_194_">
		<use xlink:href="#SVGID_225_"  style="overflow:visible;"/>
	</clipPath>
	<g class="st96">
		<defs>
			<rect id="SVGID_227_" x="-709.1" y="-1761.9" width="1440" height="3155"/>
		</defs>
		<clipPath id="SVGID_196_">
			<use xlink:href="#SVGID_227_"  style="overflow:visible;"/>
		</clipPath>
	</g>
</g>
<g>
	<defs>
		<path id="SVGID_229_" d="M392.8-65.4c-1.1-0.6-2.4-0.1-3,0.9c-1.4,2.7-3.2,5.3-5.4,7.5c-0.4,0.4-0.7,1-0.7,1.6
			c0,1.2,1,2.3,2.3,2.3c0.6,0,1.2-0.2,1.6-0.7c2.5-2.5,4.6-5.4,6.2-8.6C394.3-63.5,393.9-64.9,392.8-65.4z"/>
	</defs>
	<clipPath id="SVGID_198_">
		<use xlink:href="#SVGID_229_"  style="overflow:visible;"/>
	</clipPath>
	<g class="st98">
		<defs>
			<rect id="SVGID_231_" x="-709.1" y="-1761.9" width="1440" height="3155"/>
		</defs>
		<clipPath id="SVGID_200_">
			<use xlink:href="#SVGID_231_"  style="overflow:visible;"/>
		</clipPath>
	</g>
</g>
<g>
	<defs>
		<path id="SVGID_233_" d="M389.8-91c0.4,0.7,1.2,1.2,2,1.2c0.4,0,0.7-0.1,1-0.2c1.1-0.6,1.5-1.9,1-3c-1.6-3.2-3.7-6-6.3-8.5
			c-0.4-0.4-1-0.7-1.6-0.7c-0.6,0-1.2,0.2-1.6,0.7c-0.9,0.9-0.9,2.3,0,3.2C386.5-96.3,388.3-93.8,389.8-91z"/>
	</defs>
	<clipPath id="SVGID_202_">
		<use xlink:href="#SVGID_233_"  style="overflow:visible;"/>
	</clipPath>
	<g class="st100">
		<defs>
			<rect id="SVGID_235_" x="-709.1" y="-1761.9" width="1440" height="3155"/>
		</defs>
		<clipPath id="SVGID_204_">
			<use xlink:href="#SVGID_235_"  style="overflow:visible;"/>
		</clipPath>
	</g>
</g>
<g>
	<defs>
		<path id="SVGID_237_" d="M368-106.8L368-106.8c3.1,0.5,6,1.5,8.8,2.9c0.3,0.2,0.7,0.3,1,0.2c0.8,0,1.6-0.5,2-1.2
			c0.6-1.1,0.1-2.4-1-3c-3.2-1.6-6.6-2.7-10.1-3.3c-0.6-0.1-1.2,0-1.7,0.4c-0.5,0.3-0.8,0.9-0.9,1.5C366-108.1,366.8-107,368-106.8z
			"/>
	</defs>
	<clipPath id="SVGID_206_">
		<use xlink:href="#SVGID_237_"  style="overflow:visible;"/>
	</clipPath>
	<g class="st102">
		<defs>
			<rect id="SVGID_239_" x="-709.1" y="-1761.9" width="1440" height="3155"/>
		</defs>
		<clipPath id="SVGID_208_">
			<use xlink:href="#SVGID_239_"  style="overflow:visible;"/>
		</clipPath>
	</g>
</g>
<g>
	<defs>
		<path id="SVGID_241_" d="M378.7-51.6c-0.6-0.2-1.2-0.1-1.7,0.2c-2.7,1.4-5.7,2.4-8.7,3c-0.6,0.1-1.1,0.4-1.5,0.9
			c-0.3,0.5-0.5,1.1-0.4,1.7c0.2,1.1,1.2,1.9,2.3,1.9h0.4c3.5-0.6,6.9-1.7,10.1-3.4c0.8-0.4,1.3-1.3,1.2-2.2
			C380.2-50.5,379.6-51.3,378.7-51.6L378.7-51.6z"/>
	</defs>
	<clipPath id="SVGID_210_">
		<use xlink:href="#SVGID_241_"  style="overflow:visible;"/>
	</clipPath>
	<g class="st104">
		<defs>
			<rect id="SVGID_243_" x="-709.1" y="-1761.9" width="1440" height="3155"/>
		</defs>
		<clipPath id="SVGID_212_">
			<use xlink:href="#SVGID_243_"  style="overflow:visible;"/>
		</clipPath>
	</g>
</g>
<g>
	<defs>
		<path id="SVGID_245_" d="M348.4-60.2c0.4-0.4,0.7-1,0.7-1.6c0-1.2-1-2.3-2.3-2.3h-11.3c-1,0-2,0.4-2.7,1.1
			c-0.7,0.7-1.1,1.7-1.1,2.7V-49c0,0.9,0.6,1.7,1.4,2.1c0.8,0.3,1.8,0.1,2.5-0.5c0.4-0.4,0.7-1,0.7-1.6v-7.6c1,1.2,2.1,2.3,3.2,3.4
			c0.9,0.9,2.3,0.9,3.2,0c0.9-0.9,0.9-2.3,0-3.2c-1-1-1.9-2-2.8-3.1h7C347.5-59.5,348-59.8,348.4-60.2z"/>
	</defs>
	<clipPath id="SVGID_214_">
		<use xlink:href="#SVGID_245_"  style="overflow:visible;"/>
	</clipPath>
	<g class="st106">
		<defs>
			<rect id="SVGID_247_" x="-709.1" y="-1761.9" width="1440" height="3155"/>
		</defs>
		<clipPath id="SVGID_216_">
			<use xlink:href="#SVGID_247_"  style="overflow:visible;"/>
		</clipPath>
	</g>
</g>
<g>
	<defs>
		<path id="SVGID_249_" d="M378.2-92.4l-10.5,8.1c-1.3-0.9-2.9-1.4-4.5-1.4c-3.3,0-6.2,1.9-7.5,5c-1.3,3-0.6,6.5,1.7,8.8
			c2.3,2.3,5.8,3,8.8,1.8c3-1.2,5-4.2,5-7.4c0-1.1-0.2-2.2-0.7-3.2l10.4-8c0.5-0.4,0.8-0.9,0.9-1.5c0.1-0.6-0.1-1.2-0.5-1.7
			C380.6-93,379.2-93.1,378.2-92.4z"/>
	</defs>
	<clipPath id="SVGID_218_">
		<use xlink:href="#SVGID_249_"  style="overflow:visible;"/>
	</clipPath>
	<g class="st108">
		<defs>
			<rect id="SVGID_251_" x="-709.1" y="-1761.9" width="1440" height="3155"/>
		</defs>
		<clipPath id="SVGID_220_">
			<use xlink:href="#SVGID_251_"  style="overflow:visible;"/>
		</clipPath>
	</g>
</g>
<g>
	<defs>
		<path id="SVGID_255_" d="M484.1-49.1h-48.6v-56.8l37.5-1.8c0,7.1,14.2,14.2,14.2,21.3C487.3-74.5,484.1-60.9,484.1-49.1"/>
	</defs>
	<clipPath id="SVGID_222_">
		<use xlink:href="#SVGID_255_"  style="overflow:visible;"/>
	</clipPath>
	<g class="st110">
		<defs>
			<rect id="SVGID_257_" x="101" y="-1992.2" width="1440" height="3155"/>
		</defs>
		<clipPath id="SVGID_224_">
			<use xlink:href="#SVGID_257_"  style="overflow:visible;"/>
		</clipPath>
	</g>
</g>
<g>
	<defs>
		<path id="SVGID_259_" d="M429.6-111.1v67.9h60.1v-49.5l-18.6-18.4H429.6z M483.8-47.9h-48.3v-57.4h31.8v16.4h16.5V-47.9z
			 M472.1-101.7l7,6.9h-7V-101.7z M443.9-80.7h30.9c0.8-0.7,1.5,0,1.5,0.8c0,0.8-0.7,1.5-1.5,1.5h-30.9c-0.8-0.1-1.5-0.7-1.5-1.5
			C442.5-80.7,443.1-81.3,443.9-80.7z M476.3-72.6c0,0.8-0.7,1.5-1.5,1.3h-30.9c-0.8,0.1-1.5-0.5-1.5-1.3s0.7-1.5,1.5-1h30.9
			C475.7-74.1,476.3-73.4,476.3-72.6z M476.3-65.4c0,0.8-0.7,1.5-1.5,1.1h-30.9c-0.8,0.4-1.5-0.3-1.5-1.1s0.7-1.5,1.5-1.3h30.9
			C475.7-66.8,476.3-66.2,476.3-65.4z M471.1-58.1c0,0.8-0.7,1.5-1.5,0.8h-25.7c-0.8,0.6-1.5,0-1.5-0.8s0.7-1.4,1.5-1.5h25.7
			C470.5-59.5,471.1-58.9,471.1-58.1z"/>
	</defs>
	<clipPath id="SVGID_226_">
		<use xlink:href="#SVGID_259_"  style="overflow:visible;"/>
	</clipPath>
	<g class="st112">
		<defs>
			<rect id="SVGID_261_" x="101" y="-1992.2" width="1440" height="3155"/>
		</defs>
		<clipPath id="SVGID_228_">
			<use xlink:href="#SVGID_261_"  style="overflow:visible;"/>
		</clipPath>
	</g>
</g>
<g>
	<defs>
		<path id="SVGID_263_" d="M501.7-79.2c0,11.7-9.5,21.2-21.3,21.2S459-67.5,459-79.2s9.5-21.2,21.3-21.2S501.7-90.9,501.7-79.2"/>
	</defs>
	<clipPath id="SVGID_230_">
		<use xlink:href="#SVGID_263_"  style="overflow:visible;"/>
	</clipPath>
	<g class="st114">
		<defs>
			<rect id="SVGID_265_" x="101" y="-1992.2" width="1440" height="3155"/>
		</defs>
		<clipPath id="SVGID_232_">
			<use xlink:href="#SVGID_265_"  style="overflow:visible;"/>
		</clipPath>
	</g>
</g>
<g>
	<defs>
		<path id="SVGID_267_" d="M501.3-64.5c7.1-9.6,6.6-23.2-1.8-32.3c-9.6-10.3-25.8-11-36.2-1.5c-10.4,9.5-11,25.6-1.5,35.9
			c8.4,9.1,22,10.7,32.2,4.4l7.9,12.1c0.4,0.5,0.8,1,1.3,1.4c3.1,2.6,7.8,2.2,10.5-0.9c2.6-3.1,2.2-7.8-0.9-10.4L501.3-64.5z
			 M497-68.1c-0.8,1.1-1.7,2.2-2.8,3.1c-1,1-2.2,1.8-3.4,2.5c-7.9,4.6-18.3,3.4-24.7-3.6c-7.4-8-6.9-20.5,1.2-27.9
			c8.1-7.4,20.7-6.9,28.1,1.1C501.8-85.9,502.3-75.5,497-68.1z"/>
	</defs>
	<clipPath id="SVGID_234_">
		<use xlink:href="#SVGID_267_"  style="overflow:visible;"/>
	</clipPath>
	<g class="st116">
		<defs>
			<rect id="SVGID_269_" x="101" y="-1992.2" width="1440" height="3155"/>
		</defs>
		<clipPath id="SVGID_236_">
			<use xlink:href="#SVGID_269_"  style="overflow:visible;"/>
		</clipPath>
	</g>
</g>
<g>
	<defs>
		<path id="SVGID_293_" d="M709.7-67.6h-37.1v-43.9l28.6-1.4c0,5.5,10.9,11,10.9,16.5C712.1-87.3,709.7-76.8,709.7-67.6z"/>
	</defs>
	<clipPath id="SVGID_238_">
		<use xlink:href="#SVGID_293_"  style="overflow:visible;"/>
	</clipPath>
	<g class="st118">
		<defs>
			<rect id="SVGID_295_" x="401.5" y="-2200.6" width="1440" height="3155"/>
		</defs>
		<clipPath id="SVGID_240_">
			<use xlink:href="#SVGID_295_"  style="overflow:visible;"/>
		</clipPath>
	</g>
</g>
<g>
	<defs>
		<path id="SVGID_297_" d="M699.1-73c0,0.6-0.5,1.2-1.2,1.2h-20.8c-0.7,0-1.2-0.5-1.2-1.2c0-0.7,0.5-1.2,1.2-1.2h20.7
			c0.3,0,0.7,0.1,0.9,0.3C699-73.6,699.1-73.3,699.1-73z M703.3-78.4c0,0.6-0.5,1.2-1.2,1.2h-25c-0.7,0-1.2-0.5-1.2-1.2
			c0-0.7,0.5-1.2,1.2-1.2h25c0.3,0,0.7,0.1,0.9,0.4C703.2-79,703.3-78.7,703.3-78.4L703.3-78.4z M703.3-84.7c0,0.3-0.1,0.6-0.3,0.8
			c-0.2,0.2-0.5,0.3-0.8,0.3h-25c-0.7,0-1.2-0.5-1.2-1.2c0-0.7,0.5-1.2,1.2-1.2h25c0.3,0,0.6,0.1,0.8,0.3
			C703.2-85.3,703.3-85,703.3-84.7z M677.1-91.3h25c0.7,0,1.2,0.5,1.2,1.2c0,0.7-0.5,1.2-1.2,1.2h-25c-0.7,0-1.2-0.5-1.2-1.2
			C675.9-90.8,676.4-91.3,677.1-91.3z M699.7-106.8l5.4,5.4h-5.4V-106.8z M708.4-65.6h-37.8V-110H695v13.2h13.4V-65.6z M665.9-113.9
			v53h47.3v-38.6l-14.6-14.4H665.9z"/>
	</defs>
	<clipPath id="SVGID_242_">
		<use xlink:href="#SVGID_297_"  style="overflow:visible;"/>
	</clipPath>
	<g class="st120">
		<defs>
			<rect id="SVGID_299_" x="401.5" y="-2200.6" width="1440" height="3155"/>
		</defs>
		<clipPath id="SVGID_244_">
			<use xlink:href="#SVGID_299_"  style="overflow:visible;"/>
		</clipPath>
	</g>
</g>
<g>
	<defs>
		<path id="SVGID_303_" d="M728.9-47.4H689v-47.7l30.7-1.5c0,6,11.7,12,11.7,17.9C731.4-68.8,728.9-57.3,728.9-47.4z"/>
	</defs>
	<clipPath id="SVGID_246_">
		<use xlink:href="#SVGID_303_"  style="overflow:visible;"/>
	</clipPath>
	<g class="st122">
		<defs>
			<rect id="SVGID_305_" x="401.5" y="-2200.6" width="1440" height="3155"/>
		</defs>
		<clipPath id="SVGID_248_">
			<use xlink:href="#SVGID_305_"  style="overflow:visible;"/>
		</clipPath>
	</g>
</g>
<g>
	<defs>
		<path id="SVGID_307_" d="M717.7-55.8c0,0.7-0.6,1.2-1.2,0.7h-21.4c-0.7,0.5-1.2,0-1.2-0.7c0-0.7,0.5-1.2,1.2-1.3h21.5
			C717.3-57,717.8-56.5,717.7-55.8L717.7-55.8z M722.1-61.8c0,0.7-0.6,1.2-1.2,0.9h-25.7c-0.7,0.3-1.2-0.2-1.2-0.9
			c0-0.3,0.1-0.6,0.3-0.8s0.6-0.3,0.9-0.2h25.8c0.3-0.1,0.6,0,0.9,0.2C722.1-62.4,722.2-62.1,722.1-61.8L722.1-61.8z M722.1-67.8
			c0,0.3-0.1,0.6-0.3,0.8c-0.2,0.2-0.6,0.3-0.9,0.3h-25.7c-0.3,0.1-0.6,0-0.9-0.3c-0.2-0.2-0.4-0.5-0.3-0.8c0-0.7,0.6-1.2,1.2-0.8
			h25.8C721.6-68.9,722.2-68.4,722.1-67.8L722.1-67.8z M695-74.4h25.9c0.7-0.5,1.2,0,1.2,0.7c0,0.7-0.6,1.2-1.2,1.3h-25.8
			c-0.7-0.1-1.2-0.6-1.2-1.3C693.9-74.4,694.5-74.9,695-74.4L695-74.4z M718.5-91.7l5.8,5.7h-5.8V-91.7z M728.5-47.4h-40.3v-47.2
			h26.5V-81h13.8L728.5-47.4z M683.2-99.5v55.9h50.1v-40.8l-15.5-15.1H683.2z"/>
	</defs>
	<clipPath id="SVGID_250_">
		<use xlink:href="#SVGID_307_"  style="overflow:visible;"/>
	</clipPath>
	<g class="st124">
		<defs>
			<rect id="SVGID_309_" x="401.5" y="-2200.6" width="1440" height="3155"/>
		</defs>
		<clipPath id="SVGID_252_">
			<use xlink:href="#SVGID_309_"  style="overflow:visible;"/>
		</clipPath>
	</g>
</g>
<g>
	<defs>
		<path id="SVGID_311_" d="M677.7-115.4c-0.8-0.6-2-0.5-2.8,0.2l-8.5,8.7l-3.8-3.9c-0.7-0.8-1.9-0.9-2.8-0.2
			c-0.4,0.4-0.7,0.9-0.7,1.5s0.2,1.1,0.6,1.6l5.6,5.7c0.6,0.6,1.5,0.6,2.1,0l10.4-10.6c0.4-0.4,0.6-1,0.6-1.5
			C678.4-114.5,678.1-115.1,677.7-115.4z"/>
	</defs>
	<clipPath id="SVGID_254_">
		<use xlink:href="#SVGID_311_"  style="overflow:visible;"/>
	</clipPath>
	<g style="clip-path:url(#SVGID_254_);">
		<defs>
			<rect id="SVGID_313_" x="401.5" y="-2200.6" width="1440" height="3155"/>
		</defs>
		<clipPath id="SVGID_256_">
			<use xlink:href="#SVGID_313_"  style="overflow:visible;"/>
		</clipPath>
	</g>
</g>
<g>
	<defs>
		<polygon id="SVGID_315_" points="761.3,-77 774.9,-77 774.9,-71.5 788.3,-78.7 774.9,-86 774.9,-80.5 761.3,-80.5 		"/>
	</defs>
	<clipPath id="SVGID_258_">
		<use xlink:href="#SVGID_315_"  style="overflow:visible;"/>
	</clipPath>
	<g style="clip-path:url(#SVGID_258_);">
		<defs>
			<rect id="SVGID_317_" x="401.5" y="-2200.6" width="1440" height="3155"/>
		</defs>
		<clipPath id="SVGID_260_">
			<use xlink:href="#SVGID_317_"  style="overflow:visible;"/>
		</clipPath>
	</g>
</g>
<g>
	<defs>
		<path id="SVGID_319_" d="M894.1-64.5h-70.5c-2.4,0-2.4,0-2.4-2.4v-41.3c0-2.7,0-2.7,3-2.7H894c2.4,0,2.6,0,2.6,2.4
			c0,13,0,28.8,0,41.7C896.5-65.1,896.1-64.5,894.1-64.5L894.1-64.5z M896.5-118.7h-74.9c-5.1,0-7.2,2.1-7.2,7.1v52.4
			c0,5,2.1,7.1,7,7.1h27.8v3.2c-0.2,1.6-1,3-2.4,3.8c-0.9,0.7-1.9,1.3-2.9,1.7c-0.9,0.4-1.8,0.8-2.7,1c-0.7,0.2-1.1,0.8-1.1,1.5v0.2
			c0,0.5,0.2,1,0.5,1.3c0.3,0.3,0.8,0.5,1.3,0.5h33.4c1,0,1.9-0.8,1.9-1.8c0-0.8-0.5-1.5-1.3-1.8c-0.8-0.3-1.6-0.6-2.4-1
			c-1-0.5-2-1-2.9-1.7c-1.4-0.8-2.2-2.3-2.4-3.8v-3.3h28.1c4.6,0,6.7-2.2,6.7-6.8v-53.1c0.3-1.8-0.4-3.6-1.6-4.9
			C900.1-118.3,898.3-118.9,896.5-118.7z"/>
	</defs>
	<clipPath id="SVGID_262_">
		<use xlink:href="#SVGID_319_"  style="overflow:visible;"/>
	</clipPath>
	<g style="clip-path:url(#SVGID_262_);">
		<defs>
			<rect id="SVGID_321_" x="401.5" y="-2200.6" width="1440" height="3155"/>
		</defs>
		<clipPath id="SVGID_264_">
			<use xlink:href="#SVGID_321_"  style="overflow:visible;"/>
		</clipPath>
	</g>
</g>
<g>
	<defs>
		<path id="SVGID_323_" d="M37.3,141.7c1.8,3.7,4.5,7.2,8.1,10.5c3.6,3.3,8.3,5.1,13.5,5.1c0,0,0,0,0.1,0l0.7,0
			c4.8,0,9.5-1.8,13.1-5.2c3.7-3.3,6.3-6.8,8.1-10.5c3.8-7.9,5.7-15.9,5.8-23.8l0-0.9c0-0.9,0-1.8-0.1-2.8
			c-0.9-9.3-6.2-16-15.2-19.4c-3.7-1.4-7.9-2.1-12.4-2.1c-4.4,0-8.5,0.8-12.3,2.2c-9,3.4-14.3,10.1-15.2,19.4
			c-0.1,0.9-0.1,1.9-0.1,2.8l0,0.9C31.6,125.8,33.5,133.8,37.3,141.7z"/>
	</defs>
	<clipPath id="SVGID_266_">
		<use xlink:href="#SVGID_323_"  style="overflow:visible;"/>
	</clipPath>
	<g style="clip-path:url(#SVGID_266_);">
		<defs>
			<rect id="SVGID_325_" x="-374.3" y="-1624.9" width="1440" height="2734"/>
		</defs>
		<clipPath id="SVGID_268_">
			<use xlink:href="#SVGID_325_"  style="overflow:visible;"/>
		</clipPath>
		<rect x="30.4" y="91.6" style="clip-path:url(#SVGID_268_);fill:#1C75B9;" width="57.3" height="66.7"/>
	</g>
</g>
<g>
	<defs>
		<rect id="SVGID_327_" x="0.7" y="165.3" width="116.1" height="51.3"/>
	</defs>
	<clipPath id="SVGID_270_">
		<use xlink:href="#SVGID_327_"  style="overflow:visible;"/>
	</clipPath>
	<g style="clip-path:url(#SVGID_270_);enable-background:new    ;">
		<g>
			<defs>
				<rect id="SVGID_329_" x="-0.3" y="164.1" width="118" height="53"/>
			</defs>
			<clipPath id="SVGID_272_">
				<use xlink:href="#SVGID_329_"  style="overflow:visible;"/>
			</clipPath>
			<g style="clip-path:url(#SVGID_272_);">
				<defs>
					<path id="SVGID_331_" d="M110.5,177.6c-2-1.5-4.4-2.7-7-3.6c0,0-18.7-7-18.7-7c-3.9-1.5-7.9-1.9-11.7,0.8l-0.8,0.6
						c-1.1,1-1.8,2.1-2.4,3.1c-0.2,0.3-0.4,0.6-0.6,0.9l-10.7,14.8l-1.5-2c-3.7-5.1-7.3-10.2-11-15.3c-0.3-0.4-0.5-0.7-0.8-1.1
						c-1.4-1.6-2.9-2.6-4.6-3.2l-1.6-0.3l-5.9,1.5l-19.2,7.2c-2.8,0.9-5.2,2.2-7.2,3.7c-6.6,5-6.2,11.2-6.2,11.5l0,14.9
						c0.2,1.8,0.6,3.4,1.2,4.8c2.4,5.7,7.5,7.8,11.1,7.8h91.4c3.6,0,8.6-2,11-7.7c0.6-1.5,1-3.1,1.3-5.3l0-14
						C116.8,188.8,117.1,182.6,110.5,177.6"/>
				</defs>
				<clipPath id="SVGID_274_">
					<use xlink:href="#SVGID_331_"  style="overflow:visible;"/>
				</clipPath>
				<g class="st136">
					<defs>
						<rect id="SVGID_333_" x="0.7" y="165.1" width="117" height="52"/>
					</defs>
					<clipPath id="SVGID_276_">
						<use xlink:href="#SVGID_333_"  style="overflow:visible;"/>
					</clipPath>
					<rect x="-0.7" y="164.1" style="clip-path:url(#SVGID_276_);fill:#1C75B9;" width="118.8" height="53.5"/>
				</g>
			</g>
		</g>
	</g>
</g>
<g>
	<defs>
		<path id="SVGID_335_" d="M595.5,144.1c1.8,3.7,4.5,7.2,8.3,10.5c3.7,3.3,8.4,5.1,13.7,5.1c0,0,0,0,0.1,0l0.7,0
			c4.9,0,9.6-1.8,13.3-5.2c3.7-3.3,6.4-6.8,8.3-10.5c3.8-7.9,5.8-15.9,5.9-23.8l0-0.9c0-0.9,0-1.8-0.1-2.8
			c-0.9-9.3-6.3-16-15.5-19.4c-3.8-1.4-8-2.1-12.5-2.1c-4.5,0-8.6,0.8-12.5,2.2c-9.2,3.4-14.5,10.1-15.4,19.4
			c-0.1,0.9-0.1,1.9-0.1,2.8l0,0.9C589.7,128.2,591.7,136.2,595.5,144.1z"/>
	</defs>
	<clipPath id="SVGID_278_">
		<use xlink:href="#SVGID_335_"  style="overflow:visible;"/>
	</clipPath>
	<g style="clip-path:url(#SVGID_278_);">
		<defs>
			<rect id="SVGID_337_" x="-374.3" y="-1624.9" width="1440" height="2734"/>
		</defs>
		<clipPath id="SVGID_280_">
			<use xlink:href="#SVGID_337_"  style="overflow:visible;"/>
		</clipPath>
		<rect x="588.6" y="94" style="clip-path:url(#SVGID_280_);fill:#4A5A74;" width="58.1" height="66.7"/>
	</g>
</g>
<g>
	<defs>
		<path id="SVGID_339_" d="M669.5,180.8c-2-1.5-4.4-2.7-7-3.6c0,0-18.7-7-18.7-7c-3.9-1.5-7.9-1.9-11.7,0.8l-0.8,0.6
			c-1.1,1-1.8,2.1-2.4,3.1c-0.2,0.3-0.4,0.6-0.6,0.9l-10.7,14.8l-1.5-2c-3.7-5.1-7.3-10.2-11-15.3c-0.3-0.4-0.5-0.7-0.8-1.1
			c-1.4-1.6-2.9-2.6-4.6-3.2l-1.6-0.3l-5.9,1.5l-19.2,7.2c-2.8,0.9-5.2,2.2-7.2,3.7c-6.6,5-6.2,11.2-6.2,11.5l0,14.9
			c0.2,1.8,0.6,3.4,1.2,4.8c2.4,5.7,7.5,7.8,11.1,7.8h91.4c3.6,0,8.6-2,11-7.7c0.6-1.5,1-3.1,1.3-5.3l0-14
			C675.7,192,676.1,185.8,669.5,180.8"/>
	</defs>
	<clipPath id="SVGID_282_">
		<use xlink:href="#SVGID_339_"  style="overflow:visible;"/>
	</clipPath>
	<g class="st140">
		<defs>
			<rect id="SVGID_341_" x="-374.3" y="-1624.9" width="1440" height="2734"/>
		</defs>
		<clipPath id="SVGID_284_">
			<use xlink:href="#SVGID_341_"  style="overflow:visible;"/>
		</clipPath>
		<rect x="558.2" y="167.2" style="clip-path:url(#SVGID_284_);fill:#4A5A74;" width="118.8" height="53.5"/>
	</g>
</g>
<g>
	<defs>
		<rect id="SVGID_343_" x="229.6" y="212.6" width="210.8" height="60"/>
	</defs>
	<clipPath id="SVGID_286_">
		<use xlink:href="#SVGID_343_"  style="overflow:visible;"/>
	</clipPath>
	<g style="clip-path:url(#SVGID_286_);enable-background:new    ;">
		<g>
			<defs>
				<rect id="SVGID_345_" x="228.7" y="211.1" width="213" height="62"/>
			</defs>
			<clipPath id="SVGID_288_">
				<use xlink:href="#SVGID_345_"  style="overflow:visible;"/>
			</clipPath>
			<g style="clip-path:url(#SVGID_288_);">
				<defs>
					<path id="SVGID_347_" d="M438.3,213.8c-2.3-1.8-5.7-1.4-7.5,1c-22.8,29.9-57.3,47.1-94.7,47.1c-33.1,0-64.3-13.7-86.8-37.7
						l25.6,2.5c3,0.3,5.6-1.9,5.9-4.9c0.3-3-1.9-5.6-4.8-5.9l-32.6-3.2c-2.8-0.3-5.5,0.6-7.6,2.4c-2.1,1.8-3.4,4.3-3.6,7.1
						l-2.4,32.9c-0.2,3,2,5.6,5,5.8c0.1,0,0.3,0,0.4,0c2.8,0,5.1-2.2,5.3-5l1.7-23.7c24.5,25.8,58.2,40.5,94,40.5
						c40.8,0,78.4-18.7,103.3-51.3C441.1,219,440.7,215.6,438.3,213.8"/>
				</defs>
				<clipPath id="SVGID_290_">
					<use xlink:href="#SVGID_347_"  style="overflow:visible;"/>
				</clipPath>
				<g class="st144">
					<defs>
						<rect id="SVGID_349_" x="228.7" y="212.1" width="212" height="61"/>
					</defs>
					<clipPath id="SVGID_292_">
						<use xlink:href="#SVGID_349_"  style="overflow:visible;"/>
					</clipPath>
					<rect x="228.4" y="210.9" style="clip-path:url(#SVGID_292_);fill:#4A5A74;" width="213.7" height="62.7"/>
				</g>
			</g>
		</g>
	</g>
</g>
<g>
	<defs>
		<path id="SVGID_351_" d="M232.5,71c1,0.8,2.1,1.1,3.3,1.1c1.6,0,3.2-0.7,4.2-2.1c22.8-29.5,57.2-46.4,94.3-46.4
			c33,0,63.9,13.5,86.4,37.2L396,59.1c-3-0.2-5.5,2-5.7,5c-0.2,3,2,5.5,5,5.7l32.7,2.3c0.2,0,0.5,0,0.7,0c2.4,0,4.7-0.8,6.5-2.4
			c0,0,0.1,0,0.1-0.1c0,0,0,0,0,0c0.1,0,0.1-0.1,0.2-0.1c2.1-1.9,3.3-4.4,3.4-7.2l1.5-32.8c0.1-3-2.2-5.5-5.1-5.6
			c-3-0.1-5.5,2.2-5.6,5.1l-1.1,24.3c-24.5-25.9-58.2-40.5-94.2-40.5c-40.5,0-78,18.4-102.8,50.5C229.7,65.8,230.2,69.2,232.5,71"/>
	</defs>
	<clipPath id="SVGID_294_">
		<use xlink:href="#SVGID_351_"  style="overflow:visible;"/>
	</clipPath>
	<g class="st146">
		<defs>
			<rect id="SVGID_353_" x="-374.3" y="-1624.9" width="1440" height="2734"/>
		</defs>
		<clipPath id="SVGID_296_">
			<use xlink:href="#SVGID_353_"  style="overflow:visible;"/>
		</clipPath>
		<rect x="228.7" y="11.9" style="clip-path:url(#SVGID_296_);fill:#1C75B9;" width="212.8" height="61.2"/>
	</g>
</g>
<g>
	<defs>
		<path id="SVGID_355_" d="M180.9,71.7c-2.7-4.9-6.3-9.2-10.6-12.6c-4.3-3.4-9.2-6-14.6-7.5c-14.2-4.1-29.2-0.4-40.1,9.7
			c-5.6,5.2-9.7,11.9-11.8,19.3c-2.9,10.4-1.8,21.3,3.1,31l0.8,1.6l-1.3,1.2c-0.3,0.2-0.6,0.5-1.1,0.9l-6.3,4.8
			c-0.9,0.7-1.3,1.6-1.2,2.5c0.1,0.5,0.4,2,4.3,3.2l0.3,0.1c3.3,0.9,6.3,1.4,9,1.5l0.8,0c0.5,0,1.1,0,1.6,0c1.7-0.1,3.3-0.3,5.1-0.5
			l0.9-0.1l0.8,0.5c3.6,2.5,7.7,4.4,12,5.6c14.2,4.1,29.2,0.4,40.1-9.7c5.6-5.2,9.7-11.9,11.8-19.3C187.7,93,186.3,81.6,180.9,71.7
			 M118.9,98.9c-3.7,0-6.6-3-6.6-6.7c0-3.7,3-6.6,6.6-6.6c3.7,0,6.6,3,6.6,6.6C125.5,95.9,122.6,98.9,118.9,98.9 M144.2,98.9
			c-3.7,0-6.6-3-6.6-6.7c0-3.7,3-6.6,6.6-6.6c3.7,0,6.6,3,6.6,6.6C150.8,95.9,147.9,98.9,144.2,98.9 M169.5,98.9
			c-3.7,0-6.6-3-6.6-6.7c0-3.7,3-6.6,6.6-6.6c3.7,0,6.6,3,6.6,6.6C176.1,95.9,173.2,98.9,169.5,98.9"/>
	</defs>
	<clipPath id="SVGID_298_">
		<use xlink:href="#SVGID_355_"  style="overflow:visible;"/>
	</clipPath>
	<g class="st148">
		<defs>
			<rect id="SVGID_357_" x="-374.3" y="-1624.9" width="1440" height="2734"/>
		</defs>
		<clipPath id="SVGID_300_">
			<use xlink:href="#SVGID_357_"  style="overflow:visible;"/>
		</clipPath>
		<rect x="96.7" y="46.6" style="clip-path:url(#SVGID_300_);fill:#1C75B9;" width="92" height="91.3"/>
	</g>
</g>
<g>
	<defs>
		<path id="SVGID_359_" d="M491,103.8c2.1,7.4,6.2,14.1,11.8,19.3c10.9,10.1,25.9,13.8,40.1,9.7c4.3-1.2,8.3-3.1,12-5.6l0.8-0.5
			l0.9,0.1c1.8,0.3,3.4,0.5,5.1,0.5c0.6,0,1.1,0,1.6,0l0.8,0c2.7,0,5.8-0.5,9-1.5l0.3-0.1c4-1.2,4.2-2.7,4.3-3.2
			c0.2-1-0.2-1.8-1.2-2.5l-6.3-4.8c-0.5-0.3-0.8-0.6-1.1-0.9l-1.3-1.2l0.8-1.6c4.9-9.6,6-20.6,3.1-31c-2.1-7.4-6.2-14.1-11.8-19.3
			c-10.9-10.2-25.9-13.8-40.1-9.7c-5.4,1.5-10.3,4.1-14.6,7.5c-4.3,3.4-7.9,7.6-10.6,12.6C489.2,81.6,487.9,93,491,103.8 M550,92.2
			c0-3.7,3-6.6,6.6-6.6c3.7,0,6.6,3,6.6,6.6c0,3.7-3,6.7-6.6,6.7C553,98.9,550,95.9,550,92.2 M524.7,92.2c0-3.7,3-6.6,6.6-6.6
			c3.7,0,6.6,3,6.6,6.6c0,3.7-3,6.7-6.6,6.7C527.7,98.9,524.7,95.9,524.7,92.2 M499.4,92.2c0-3.7,3-6.6,6.6-6.6c3.7,0,6.6,3,6.6,6.6
			c0,3.7-3,6.7-6.6,6.7C502.4,98.9,499.4,95.9,499.4,92.2"/>
	</defs>
	<clipPath id="SVGID_302_">
		<use xlink:href="#SVGID_359_"  style="overflow:visible;"/>
	</clipPath>
	<g style="clip-path:url(#SVGID_302_);">
		<defs>
			<rect id="SVGID_361_" x="-374.3" y="-1624.9" width="1440" height="2734"/>
		</defs>
		<clipPath id="SVGID_304_">
			<use xlink:href="#SVGID_361_"  style="overflow:visible;"/>
		</clipPath>
		<rect x="486.9" y="46.6" style="clip-path:url(#SVGID_304_);fill:#4A5A74;" width="92" height="91.3"/>
	</g>
</g>
<g>
	<defs>
		<path id="SVGID_363_" d="M800.2,184.8c-1.9,2.7-4.1,5.2-6.6,7.4c-18.4,16.9-46.8,16.4-64.6-1.1s-18.8-45.8-2.3-64.6
			c16.5-18.7,44.8-21.2,64.4-5.7C810.6,136.4,814.6,164.5,800.2,184.8z M810.6,193.5c18.5-25.1,14.9-60.2-8.4-81.1
			c-23.3-20.8-58.5-20.6-81.5,0.5c-23,21.1-26.1,56.3-7.3,81.2s53.5,31.4,80.1,15l18.6,28.8c0.9,1.2,1.9,2.3,3.1,3.2
			c4.7,4.5,11.6,6,17.8,3.9c6.2-2.1,10.7-7.5,11.7-13.9c1-6.5-1.7-12.9-6.9-16.8L810.6,193.5z"/>
	</defs>
	<clipPath id="SVGID_306_">
		<use xlink:href="#SVGID_363_"  style="overflow:visible;"/>
	</clipPath>
	<g style="clip-path:url(#SVGID_306_);">
		<defs>
			<rect id="SVGID_365_" x="364.2" y="-874.5" width="1440" height="1966"/>
		</defs>
		<clipPath id="SVGID_308_">
			<use xlink:href="#SVGID_365_"  style="overflow:visible;"/>
		</clipPath>
	</g>
</g>
<g>
	<defs>
		<path id="SVGID_367_" d="M750.4,149.3c1,1.9,2.3,3.6,4,5.1c1.8,1.6,4.1,2.5,6.5,2.5h0.4c2.4,0,4.6-0.9,6.4-2.5
			c1.6-1.4,3-3.2,4-5.1c1.8-3.6,2.7-7.5,2.8-11.5v-0.4c0-0.4,0-0.9,0-1.4c-0.3-4.3-3.3-8.1-7.4-9.4c-3.9-1.4-8.1-1.4-11.9,0
			c-4.1,1.3-7.1,5-7.4,9.3c0,0.4,0,0.9,0,1.3v0.4C747.7,141.7,748.6,145.7,750.4,149.3z"/>
	</defs>
	<clipPath id="SVGID_310_">
		<use xlink:href="#SVGID_367_"  style="overflow:visible;"/>
	</clipPath>
	<g style="clip-path:url(#SVGID_310_);">
		<defs>
			<rect id="SVGID_369_" x="364.2" y="-874.5" width="1440" height="1966"/>
		</defs>
		<clipPath id="SVGID_312_">
			<use xlink:href="#SVGID_369_"  style="overflow:visible;"/>
		</clipPath>
	</g>
</g>
<g>
	<defs>
		<path id="SVGID_371_" d="M785.7,166.4c-1-0.8-2.1-1.4-3.3-1.8l-8.9-3.4c-1.8-0.9-3.9-0.7-5.6,0.5l-0.4,0.3
			c-0.4,0.4-0.8,0.9-1.1,1.5l-0.4,0.3L761,171l-0.7-0.9c-1.8-2.5-3.6-5-5.2-7.5c-0.1-0.2-0.2-0.4-0.4-0.5c-0.6-0.7-1.3-1.3-2.2-1.5
			l-0.8-0.1l-2.8,0.7l-9.2,3.5c-1.2,0.4-2.4,1-3.4,1.8c-1.9,1.2-3,3.4-3,5.6v7.3c0.1,0.8,0.3,1.6,0.6,2.3c0.8,2.2,2.9,3.7,5.3,3.8
			h43.5c2.3,0,4.4-1.5,5.3-3.8c0.4-0.8,0.6-1.7,0.7-2.6v-6.8C788.7,169.9,787.6,167.7,785.7,166.4z"/>
	</defs>
	<clipPath id="SVGID_314_">
		<use xlink:href="#SVGID_371_"  style="overflow:visible;"/>
	</clipPath>
	<g style="clip-path:url(#SVGID_314_);">
		<defs>
			<rect id="SVGID_373_" x="364.2" y="-874.5" width="1440" height="1966"/>
		</defs>
		<clipPath id="SVGID_316_">
			<use xlink:href="#SVGID_373_"  style="overflow:visible;"/>
		</clipPath>
	</g>
</g>
<g>
	<defs>
		<polygon id="SVGID_375_" points="878.8,167.7 903.9,167.7 903.9,178.2 928.8,164.4 903.9,150.6 903.9,161.1 878.8,161.1 		"/>
	</defs>
	<clipPath id="SVGID_318_">
		<use xlink:href="#SVGID_375_"  style="overflow:visible;"/>
	</clipPath>
	<g style="clip-path:url(#SVGID_318_);">
		<defs>
			<rect id="SVGID_377_" x="364.2" y="-874.5" width="1440" height="1966"/>
		</defs>
		<clipPath id="SVGID_320_">
			<use xlink:href="#SVGID_377_"  style="overflow:visible;"/>
		</clipPath>
	</g>
</g>
<g>
	<defs>
		<path id="SVGID_379_" d="M1042.4,99.2c-0.4,3.9,0,7.8,1.2,11.5c0.7,1.9,1.7,3.7,3,5.3c1.2,1.5,2.9,2.5,4.8,3l1,0.1
			c2.3,0.3,4.6-0.2,6.5-1.6c1.7-1.2,3.2-2.7,4.3-4.5c2.1-3.3,3.4-7,4-10.8v-0.5c0.1-0.4,0.1-0.8,0.1-1.3c0.3-4.1-1.9-7.9-5.6-9.8
			c-1.7-0.9-3.6-1.5-5.5-1.7c-1.9-0.2-3.8-0.1-5.7,0.3c-4,0.9-7.1,4.1-7.8,8.1c-0.1,0.4-0.2,0.8-0.2,1.3L1042.4,99.2z"/>
	</defs>
	<clipPath id="SVGID_322_">
		<use xlink:href="#SVGID_379_"  style="overflow:visible;"/>
	</clipPath>
	<g style="clip-path:url(#SVGID_322_);">
		<defs>
			<rect id="SVGID_381_" x="364.2" y="-874.5" width="1440" height="1966"/>
		</defs>
		<clipPath id="SVGID_324_">
			<use xlink:href="#SVGID_381_"  style="overflow:visible;"/>
		</clipPath>
	</g>
</g>
<g>
	<defs>
		<path id="SVGID_383_" d="M1007.5,168.2c0.8,0.9,1.8,1.5,3,1.7c2.2,0.6,4.5-0.6,5.3-2.8c0.3-0.5,0.6-1,1-1.8
			c2.1-4,6.7-12.3,7.8-14.3c1.3-0.7,3.8-1.9,5.5-2.7c0,0.5,0.1,1,0.2,1.5c0.3,1.6,0.4,3.3,0.4,4.9c-0.3,2.8-1,5.4-2.2,7.9
			c-0.8,1.7-1.4,3.5-1.9,5.4c-1.8,6.7,0,13.9,4.8,18.9c7,7.4,17.4,18.1,18.8,19.4c0.1,0.1,0.2,0.2,0.3,0.4c0.5,1.1,2.7,6.7,2.7,6.7
			l9.9,24.6c0.7,1.8,2.3,3.1,4.2,3.5c0.9,0.2,1.9,0.2,2.8,0l0.8-0.2c2.8-0.8,4.5-3.6,4-6.5l-5.6-31.7c-0.3-1.4-0.8-2.7-1.6-3.8
			l-0.6-0.9c-3.3-4.7-10.9-15.6-14.2-20.6c-0.1-0.5-0.1-1,0-1.5c1-4.2,2.2-8.6,3.8-13.9c0.4-1.5,1-3.1,1.5-4.6
			c2.5,3.6,7.2,9.9,9.2,11.2c2.6,1.5,5.6,0.3,7.7-0.8l3.4-1.9c3.9-2.1,9.7-5.3,11.9-6.4c2.9-1.2,4.2-4.6,3-7.5l-0.2-0.5
			c-1.2-2.9-4.6-4.3-7.5-3.1l-12.8,5.2c-2.4-5-5.2-9.8-8-14.4c-1-1.6-1.9-3.3-2.9-4.9c-4.5-6.9-12.7-10.4-20.8-8.7
			c-6.8,1.5-22.9,11.4-25.2,13.2c-1.8,1.2-3.2,2.9-4.2,4.9c-0.7,1-6.1,17-6.1,17.1C1005.2,163.6,1005.7,166.3,1007.5,168.2z"/>
	</defs>
	<clipPath id="SVGID_326_">
		<use xlink:href="#SVGID_383_"  style="overflow:visible;"/>
	</clipPath>
	<g style="clip-path:url(#SVGID_326_);">
		<defs>
			<rect id="SVGID_385_" x="364.2" y="-874.5" width="1440" height="1966"/>
		</defs>
		<clipPath id="SVGID_328_">
			<use xlink:href="#SVGID_385_"  style="overflow:visible;"/>
		</clipPath>
	</g>
</g>
<g>
	<defs>
		<path id="SVGID_387_" d="M986,215.5l32.1,14.1l1.1,0.3l3.3,0.8h0.4c0.7,0.2,1.5,0.3,2.3,0.3c3-0.1,5.9-1.6,7.5-4.2l2.5-3.6
			c1.5-2.1,3.3-4.7,5.1-7.3c0.7-1.1,1.5-2.1,2.1-3.2v-0.1c0.4-0.5,0.7-1.1,1-1.6l0.9-1.4c0,0,0-0.2,0.1-0.3l1.3-2.1l-4.3-4.3
			l-13.4-13.9l-0.9,2.8c-2.1,6.4-4.5,14.2-6,17.8l-32.3-5.1c-2.8-0.4-5.6,1.3-6.4,4.1c-0.8,2.8,0.6,5.7,3.2,6.9L986,215.5z"/>
	</defs>
	<clipPath id="SVGID_330_">
		<use xlink:href="#SVGID_387_"  style="overflow:visible;"/>
	</clipPath>
	<g class="st164">
		<defs>
			<rect id="SVGID_389_" x="364.2" y="-874.5" width="1440" height="1966"/>
		</defs>
		<clipPath id="SVGID_332_">
			<use xlink:href="#SVGID_389_"  style="overflow:visible;"/>
		</clipPath>
	</g>
</g>
<g>
	<defs>
		<path id="SVGID_391_" d="M1010.1,179c-0.6-0.3-0.8-1-0.5-1.6l0.3-0.5c0.2-0.3,0.4-0.7,0.5-1c0.1-0.2,0-0.4-0.1-0.5l-6.6-3.7
			c-0.1-0.1-0.3-0.1-0.4,0c-0.2,0.3-0.4,0.6-0.6,1c0,0.2-0.2,0.4-0.3,0.6c-0.1,0.3-0.4,0.5-0.7,0.6c-0.3,0.1-0.6,0.1-0.9-0.1
			c-0.6-0.3-0.8-1-0.5-1.6c0.1-0.2,0.2-0.3,0.3-0.5c0.2-0.5,0.5-0.9,0.8-1.3c0.8-1.1,2.2-1.4,3.3-0.7c2.4,1.3,4.6,2.5,6.6,3.7
			c1.2,0.7,1.7,2.2,1.1,3.5c-0.2,0.4-0.4,0.7-0.6,1.1l-0.3,0.5C1011.3,179.1,1010.6,179.3,1010.1,179z"/>
	</defs>
	<clipPath id="SVGID_334_">
		<use xlink:href="#SVGID_391_"  style="overflow:visible;"/>
	</clipPath>
	<g style="clip-path:url(#SVGID_334_);">
		<defs>
			<rect id="SVGID_393_" x="364.2" y="-874.5" width="1440" height="1966"/>
		</defs>
		<clipPath id="SVGID_336_">
			<use xlink:href="#SVGID_393_"  style="overflow:visible;"/>
		</clipPath>
	</g>
</g>
<g>
	<defs>
		<circle id="SVGID_395_" cx="996.2" cy="192.1" r="2.2"/>
	</defs>
	<clipPath id="SVGID_338_">
		<use xlink:href="#SVGID_395_"  style="overflow:visible;"/>
	</clipPath>
	<g style="clip-path:url(#SVGID_338_);">
		<defs>
			<rect id="SVGID_397_" x="364.2" y="-874.5" width="1440" height="1966"/>
		</defs>
		<clipPath id="SVGID_340_">
			<use xlink:href="#SVGID_397_"  style="overflow:visible;"/>
		</clipPath>
	</g>
</g>
<g>
	<defs>
		<path id="SVGID_399_" d="M1013.8,197.7c-0.1,0.2-0.2,0.2-0.4,0.2c-0.6-0.1-1.1-0.2-1.7-0.4c-3.9-1.1-7.6-2.6-11.2-4.3
			c0.4-1.7-0.4-3.5-1.9-4.3c-1.5-0.9-3.4-0.6-4.7,0.6c-3.7-2.2-7-5-10-8.1l-0.1-0.2l-0.1-0.1l-0.4-0.5l4.9-8.8
			c0.4-0.7,1-1.2,1.7-1.4c0.7-0.2,1.5-0.1,2.2,0.3l25.4,14.1c1.4,0.8,1.9,2.5,1.1,4L1013.8,197.7z"/>
	</defs>
	<clipPath id="SVGID_342_">
		<use xlink:href="#SVGID_399_"  style="overflow:visible;"/>
	</clipPath>
	<g style="clip-path:url(#SVGID_342_);">
		<defs>
			<rect id="SVGID_401_" x="364.2" y="-874.5" width="1440" height="1966"/>
		</defs>
		<clipPath id="SVGID_344_">
			<use xlink:href="#SVGID_401_"  style="overflow:visible;"/>
		</clipPath>
	</g>
</g>
<g>
	<defs>
		<path id="SVGID_403_" d="M1011,199.3l-4.6,8.5c-0.4,0.8-1.1,1.4-2,1.6c-0.9,0.2-1.8,0.1-2.5-0.3l-22.1-12.2
			c-1.6-0.9-2.2-3-1.3-4.6l4.8-8.6c2.9,2.9,6.1,5.5,9.6,7.6c-0.4,1.7,0.4,3.5,2,4.3c1.5,0.9,3.5,0.6,4.7-0.7
			C1003.1,196.7,1007,198.1,1011,199.3z"/>
	</defs>
	<clipPath id="SVGID_346_">
		<use xlink:href="#SVGID_403_"  style="overflow:visible;"/>
	</clipPath>
	<g class="st172">
		<defs>
			<rect id="SVGID_405_" x="364.2" y="-874.5" width="1440" height="1966"/>
		</defs>
		<clipPath id="SVGID_348_">
			<use xlink:href="#SVGID_405_"  style="overflow:visible;"/>
		</clipPath>
	</g>
</g>
<g>
	<defs>
		<path id="SVGID_407_" d="M983.3,181l-0.1-0.1L983.3,181z"/>
	</defs>
	<clipPath id="SVGID_350_">
		<use xlink:href="#SVGID_407_"  style="overflow:visible;"/>
	</clipPath>
	<g style="clip-path:url(#SVGID_350_);">
		<defs>
			<rect id="SVGID_409_" x="364.2" y="-874.5" width="1440" height="1966"/>
		</defs>
		<clipPath id="SVGID_352_">
			<use xlink:href="#SVGID_409_"  style="overflow:visible;"/>
		</clipPath>
	</g>
</g>
<g>
	<defs>
		<polygon id="SVGID_411_" points="1153.8,166.8 1178.9,166.8 1178.9,177.3 1203.8,163.5 1178.9,149.7 1178.9,160.2 1153.8,160.2 		
			"/>
	</defs>
	<clipPath id="SVGID_354_">
		<use xlink:href="#SVGID_411_"  style="overflow:visible;"/>
	</clipPath>
	<g style="clip-path:url(#SVGID_354_);">
		<defs>
			<rect id="SVGID_413_" x="364.2" y="-874.5" width="1440" height="1966"/>
		</defs>
		<clipPath id="SVGID_356_">
			<use xlink:href="#SVGID_413_"  style="overflow:visible;"/>
		</clipPath>
	</g>
</g>
<g>
	<defs>
		<path id="SVGID_415_" d="M1457.8,122.4h-32.7v-6.9h32.7V122.4z M1457.8,142h-32.7v-7h32.7V142z M1457.8,161.7h-32.7v-6.9h32.7
			V161.7z M1457.8,181.4h-32.7v-6.8h32.7V181.4z M1457.8,201.1h-32.7v-6.9h32.7V201.1z M1335.4,141.1h-40.2v-21.7h40.2V141.1z
			 M1335.4,175.9h-40.2v-21.8h40.2V175.9z M1335.4,210.7h-40.2V189h40.2V210.7z M1459,99.1h-42.7v114.3h-10V22.9h-10.9v18.9
			l-60.1,33.8v23.5h-52.7c-4.6,0-8.3,3.7-8.3,8.3v120.8h192.8V107.4C1467.1,102.9,1463.5,99.2,1459,99.1z"/>
	</defs>
	<clipPath id="SVGID_358_">
		<use xlink:href="#SVGID_415_"  style="overflow:visible;"/>
	</clipPath>
	<g style="clip-path:url(#SVGID_358_);">
		<defs>
			<rect id="SVGID_417_" x="364.2" y="-874.5" width="1440" height="1966"/>
		</defs>
		<clipPath id="SVGID_360_">
			<use xlink:href="#SVGID_417_"  style="overflow:visible;"/>
		</clipPath>
	</g>
</g>
</svg>
