<?xml version="1.0" encoding="utf-8"?>
<!-- Generator: Adobe Illustrator 25.3.1, SVG Export Plug-In . SVG Version: 6.00 Build 0)  -->
<svg version="1.1" id="Layer_1" xmlns="http://www.w3.org/2000/svg" xmlns:xlink="http://www.w3.org/1999/xlink" x="0px" y="0px"
	 viewBox="0 0 245.2 87.4" style="enable-background:new 0 0 245.2 87.4;" xml:space="preserve">
<style type="text/css">
	.st0{clip-path:url(#SVGID_2_);}
	.st1{clip-path:url(#SVGID_4_);fill:#DF3A42;}
	.st2{clip-path:url(#SVGID_6_);enable-background:new    ;}
	.st3{clip-path:url(#SVGID_8_);}
	.st4{clip-path:url(#SVGID_10_);}
	.st5{clip-path:url(#SVGID_12_);fill:#133050;}
	.st6{clip-path:url(#SVGID_14_);}
	.st7{clip-path:url(#SVGID_16_);fill:#DF3A42;}
	.st8{clip-path:url(#SVGID_18_);}
	.st9{clip-path:url(#SVGID_20_);fill:#DF3A42;}
	.st10{clip-path:url(#SVGID_22_);}
	.st11{clip-path:url(#SVGID_24_);fill:#133050;}
	.st12{clip-path:url(#SVGID_26_);}
	.st13{clip-path:url(#SVGID_28_);fill:#DF3A42;}
	.st14{clip-path:url(#SVGID_30_);}
	.st15{clip-path:url(#SVGID_32_);fill:#133050;}
	.st16{clip-path:url(#SVGID_34_);}
	.st17{clip-path:url(#SVGID_36_);fill:#DF3A42;}
	.st18{clip-path:url(#SVGID_38_);}
	.st19{clip-path:url(#SVGID_40_);fill:#DF3A42;}
	.st20{clip-path:url(#SVGID_42_);}
	.st21{clip-path:url(#SVGID_44_);fill:#DF3A42;}
	.st22{clip-path:url(#SVGID_46_);enable-background:new    ;}
	.st23{clip-path:url(#SVGID_48_);}
	.st24{clip-path:url(#SVGID_50_);}
	.st25{clip-path:url(#SVGID_52_);fill:#133050;}
	.st26{clip-path:url(#SVGID_54_);}
	.st27{clip-path:url(#SVGID_56_);fill:#DF3A42;}
	.st28{clip-path:url(#SVGID_58_);}
	.st29{clip-path:url(#SVGID_60_);fill:#DF3A42;}
	.st30{clip-path:url(#SVGID_62_);}
	.st31{clip-path:url(#SVGID_64_);fill:#133050;}
	.st32{clip-path:url(#SVGID_66_);}
	.st33{clip-path:url(#SVGID_68_);fill:#133050;}
	.st34{clip-path:url(#SVGID_70_);}
	.st35{clip-path:url(#SVGID_72_);fill:#133050;}
	.st36{clip-path:url(#SVGID_74_);}
	.st37{clip-path:url(#SVGID_76_);fill:#133050;}
	.st38{clip-path:url(#SVGID_78_);enable-background:new    ;}
	.st39{clip-path:url(#SVGID_80_);}
	.st40{clip-path:url(#SVGID_82_);}
	.st41{clip-path:url(#SVGID_84_);fill:#DF3A42;}
	.st42{clip-path:url(#SVGID_86_);}
	.st43{clip-path:url(#SVGID_88_);fill:#566581;}
	.st44{clip-path:url(#SVGID_90_);fill:#418AC6;}
	.st45{clip-path:url(#SVGID_92_);}
	.st46{clip-path:url(#SVGID_94_);fill:#FFFFFF;}
	.st47{clip-path:url(#SVGID_96_);}
	.st48{clip-path:url(#SVGID_98_);fill:#566581;}
	.st49{clip-path:url(#SVGID_100_);fill:#418AC6;}
	.st50{clip-path:url(#SVGID_102_);}
	.st51{clip-path:url(#SVGID_104_);fill:#FFFFFF;}
	.st52{clip-path:url(#SVGID_106_);}
	.st53{clip-path:url(#SVGID_108_);fill:#566581;}
	.st54{clip-path:url(#SVGID_110_);}
	.st55{clip-path:url(#SVGID_112_);fill:#566581;}
	.st56{clip-path:url(#SVGID_114_);fill:#418AC6;}
	.st57{clip-path:url(#SVGID_116_);}
	.st58{clip-path:url(#SVGID_118_);fill:#FFFFFF;}
	.st59{clip-path:url(#SVGID_120_);}
	.st60{clip-path:url(#SVGID_122_);fill:#566581;}
	.st61{clip-path:url(#SVGID_124_);}
	.st62{clip-path:url(#SVGID_126_);fill:#566581;}
	.st63{clip-path:url(#SVGID_128_);}
	.st64{clip-path:url(#SVGID_130_);fill:#566581;}
	.st65{clip-path:url(#SVGID_132_);}
	.st66{clip-path:url(#SVGID_134_);fill:#566581;}
	.st67{clip-path:url(#SVGID_136_);}
	.st68{clip-path:url(#SVGID_138_);fill:#566581;}
	.st69{clip-path:url(#SVGID_140_);}
	.st70{clip-path:url(#SVGID_142_);fill:#566581;}
	.st71{clip-path:url(#SVGID_144_);}
	.st72{clip-path:url(#SVGID_146_);fill:#566581;}
	.st73{clip-path:url(#SVGID_148_);}
	.st74{clip-path:url(#SVGID_150_);fill:#566581;}
	.st75{clip-path:url(#SVGID_152_);}
	.st76{clip-path:url(#SVGID_154_);fill:#566581;}
	.st77{clip-path:url(#SVGID_156_);}
	.st78{clip-path:url(#SVGID_158_);fill:#778698;}
	.st79{clip-path:url(#SVGID_160_);}
	.st80{clip-path:url(#SVGID_162_);fill:#DF3B42;}
	.st81{clip-path:url(#SVGID_164_);fill:#418AC6;}
	.st82{clip-path:url(#SVGID_166_);}
	.st83{clip-path:url(#SVGID_168_);fill:#FFFFFF;}
	.st84{clip-path:url(#SVGID_170_);}
	.st85{clip-path:url(#SVGID_172_);fill:#566581;}
	.st86{clip-path:url(#SVGID_174_);}
	.st87{clip-path:url(#SVGID_176_);fill:#566581;}
	.st88{clip-path:url(#SVGID_178_);}
	.st89{clip-path:url(#SVGID_180_);fill:#566581;}
	.st90{clip-path:url(#SVGID_182_);}
	.st91{clip-path:url(#SVGID_184_);fill:#566581;}
	.st92{clip-path:url(#SVGID_186_);}
	.st93{clip-path:url(#SVGID_188_);fill:#566581;}
	.st94{clip-path:url(#SVGID_190_);}
	.st95{clip-path:url(#SVGID_192_);fill:#566581;}
	.st96{clip-path:url(#SVGID_194_);}
	.st97{clip-path:url(#SVGID_196_);fill:#566581;}
	.st98{clip-path:url(#SVGID_198_);}
	.st99{clip-path:url(#SVGID_200_);fill:#566581;}
	.st100{clip-path:url(#SVGID_202_);}
	.st101{clip-path:url(#SVGID_204_);fill:#566581;}
	.st102{clip-path:url(#SVGID_206_);}
	.st103{clip-path:url(#SVGID_208_);fill:#566581;}
	.st104{clip-path:url(#SVGID_210_);}
	.st105{clip-path:url(#SVGID_212_);fill:#566581;}
	.st106{clip-path:url(#SVGID_214_);}
	.st107{clip-path:url(#SVGID_216_);fill:#566581;}
	.st108{clip-path:url(#SVGID_218_);}
	.st109{clip-path:url(#SVGID_220_);fill:#566581;}
	.st110{clip-path:url(#SVGID_222_);}
	.st111{clip-path:url(#SVGID_224_);fill:#566581;}
	.st112{clip-path:url(#SVGID_226_);}
	.st113{clip-path:url(#SVGID_228_);fill:#566581;}
	.st114{clip-path:url(#SVGID_230_);}
	.st115{clip-path:url(#SVGID_232_);fill:#566581;}
	.st116{clip-path:url(#SVGID_234_);}
	.st117{clip-path:url(#SVGID_236_);fill:#566581;}
	.st118{clip-path:url(#SVGID_238_);}
	.st119{clip-path:url(#SVGID_240_);fill:#566581;}
	.st120{clip-path:url(#SVGID_242_);}
	.st121{clip-path:url(#SVGID_244_);fill:#566581;}
	.st122{clip-path:url(#SVGID_246_);}
	.st123{clip-path:url(#SVGID_248_);fill:#566581;}
	.st124{clip-path:url(#SVGID_250_);}
	.st125{clip-path:url(#SVGID_252_);fill:#566581;}
	.st126{clip-path:url(#SVGID_254_);fill:#418AC5;}
	.st127{clip-path:url(#SVGID_256_);}
	.st128{clip-path:url(#SVGID_258_);fill:#FEFEFE;}
	.st129{clip-path:url(#SVGID_260_);}
	.st130{clip-path:url(#SVGID_262_);fill:#566580;}
	.st131{clip-path:url(#SVGID_264_);}
	.st132{clip-path:url(#SVGID_266_);fill:#FEFEFE;}
	.st133{clip-path:url(#SVGID_268_);}
	.st134{clip-path:url(#SVGID_270_);fill:#566580;}
	.st135{clip-path:url(#SVGID_272_);enable-background:new    ;}
	.st136{clip-path:url(#SVGID_274_);}
	.st137{clip-path:url(#SVGID_276_);}
	.st138{clip-path:url(#SVGID_278_);fill:#566580;}
	.st139{clip-path:url(#SVGID_280_);enable-background:new    ;}
	.st140{clip-path:url(#SVGID_282_);}
	.st141{clip-path:url(#SVGID_284_);fill:#418AC5;}
	.st142{clip-path:url(#SVGID_286_);}
	.st143{clip-path:url(#SVGID_288_);fill:#FEFEFE;}
	.st144{clip-path:url(#SVGID_290_);}
	.st145{clip-path:url(#SVGID_292_);fill:#566580;}
	.st146{clip-path:url(#SVGID_294_);}
	.st147{clip-path:url(#SVGID_296_);fill:#FFFFFF;}
	.st148{clip-path:url(#SVGID_298_);}
	.st149{clip-path:url(#SVGID_300_);fill:#566581;}
	.st150{clip-path:url(#SVGID_302_);fill:#418AC6;}
	.st151{clip-path:url(#SVGID_304_);}
	.st152{clip-path:url(#SVGID_306_);fill:#FFFFFF;}
	.st153{clip-path:url(#SVGID_308_);}
	.st154{clip-path:url(#SVGID_310_);fill:#566581;}
	.st155{clip-path:url(#SVGID_312_);}
	.st156{clip-path:url(#SVGID_314_);fill:#DF3B42;}
	.st157{clip-path:url(#SVGID_316_);}
	.st158{clip-path:url(#SVGID_318_);fill:#566581;}
	.st159{clip-path:url(#SVGID_320_);}
	.st160{clip-path:url(#SVGID_322_);fill:#566581;}
	.st161{clip-path:url(#SVGID_324_);}
	.st162{clip-path:url(#SVGID_326_);fill:#1C75B9;}
	.st163{clip-path:url(#SVGID_328_);enable-background:new    ;}
	.st164{clip-path:url(#SVGID_330_);}
	.st165{clip-path:url(#SVGID_332_);}
	.st166{clip-path:url(#SVGID_334_);fill:#1C75B9;}
	.st167{clip-path:url(#SVGID_336_);}
	.st168{clip-path:url(#SVGID_338_);fill:#4A5A74;}
	.st169{clip-path:url(#SVGID_340_);}
	.st170{clip-path:url(#SVGID_342_);fill:#4A5A74;}
	.st171{clip-path:url(#SVGID_344_);enable-background:new    ;}
	.st172{clip-path:url(#SVGID_346_);}
	.st173{clip-path:url(#SVGID_348_);}
	.st174{clip-path:url(#SVGID_350_);fill:#4A5A74;}
	.st175{clip-path:url(#SVGID_352_);}
	.st176{clip-path:url(#SVGID_354_);fill:#1C75B9;}
	.st177{clip-path:url(#SVGID_356_);}
	.st178{clip-path:url(#SVGID_358_);fill:#1C75B9;}
	.st179{clip-path:url(#SVGID_360_);}
	.st180{clip-path:url(#SVGID_362_);fill:#4A5A74;}
	.st181{clip-path:url(#SVGID_364_);}
	.st182{clip-path:url(#SVGID_366_);fill:#566581;}
	.st183{clip-path:url(#SVGID_368_);}
	.st184{clip-path:url(#SVGID_370_);fill:#1D75B9;}
	.st185{clip-path:url(#SVGID_372_);}
	.st186{clip-path:url(#SVGID_374_);fill:#1D75B9;}
	.st187{clip-path:url(#SVGID_376_);}
	.st188{clip-path:url(#SVGID_378_);fill:#4B5A74;}
	.st189{clip-path:url(#SVGID_380_);}
	.st190{clip-path:url(#SVGID_382_);fill:#566581;}
	.st191{clip-path:url(#SVGID_384_);}
	.st192{clip-path:url(#SVGID_386_);fill:#566581;}
	.st193{clip-path:url(#SVGID_388_);}
	.st194{clip-path:url(#SVGID_390_);fill:#566581;}
	.st195{clip-path:url(#SVGID_392_);}
	.st196{clip-path:url(#SVGID_394_);fill:#1D75B9;}
	.st197{clip-path:url(#SVGID_396_);}
	.st198{clip-path:url(#SVGID_398_);fill:#1D75B9;}
	.st199{clip-path:url(#SVGID_400_);}
	.st200{clip-path:url(#SVGID_402_);fill:#1D75B9;}
	.st201{clip-path:url(#SVGID_404_);}
	.st202{clip-path:url(#SVGID_406_);fill:#1D75B9;}
	.st203{clip-path:url(#SVGID_408_);}
	.st204{clip-path:url(#SVGID_410_);fill:#1D75B9;}
	.st205{clip-path:url(#SVGID_412_);}
	.st206{clip-path:url(#SVGID_414_);fill:#4B5A74;}
	.st207{clip-path:url(#SVGID_416_);}
	.st208{clip-path:url(#SVGID_418_);fill:#1D75B9;}
</style>
<g>
	<defs>
		<path id="SVGID_1_" d="M-622.9-136.9L-622.9-136.9c0-0.1,0-0.3,0-0.4v-2.4c0-5.7-4.5-10.5-10.2-10.6c-5.7,0.1-10.2,4.9-10.2,10.6
			v2.4c0,0.1,0,0.2,0,0.3v0c-0.2,0.1-0.4,0.3-0.4,0.5v2.6c0,0.2,0.2,0.5,0.4,0.5v0c0,0.1,0,0.2,0,0.3v0.1h0c0.2,1,1.1,1.8,2.2,1.8
			h0.5c0.6,0,1.1-0.5,1.1-1.1v-5.9c0-0.6-0.5-1.1-1.1-1.1h-0.5c-0.3,0-0.5,0.1-0.8,0.2v-0.6c0-4.9,3.9-9.1,8.8-9.2
			c4.9,0.1,8.8,4.2,8.8,9.2v0.6c-0.2-0.1-0.5-0.2-0.8-0.2h-0.5c-0.6,0-1.1,0.5-1.1,1.1v5.9c0,0.6,0.5,1.1,1.1,1.1h0.5
			c1.1,0,2-0.8,2.2-1.8h0v-0.1c0-0.1,0-0.2,0-0.3v0c0.2-0.1,0.4-0.3,0.4-0.5v-2.6C-622.5-136.6-622.6-136.8-622.9-136.9"/>
	</defs>
	<clipPath id="SVGID_2_">
		<use xlink:href="#SVGID_1_"  style="overflow:visible;"/>
	</clipPath>
	<g class="st0">
		<defs>
			<rect id="SVGID_3_" x="-830.6" y="-1538.8" width="1387.6" height="4286.3"/>
		</defs>
		<clipPath id="SVGID_4_">
			<use xlink:href="#SVGID_3_"  style="overflow:visible;"/>
		</clipPath>
	</g>
</g>
<g>
	<defs>
		<path id="SVGID_13_" d="M-548.9-142.8c-0.3,0-0.6,0-0.8-0.1c-3-0.5-5.1-3.3-4.6-6.3c0.2-1.3,0.9-2.5,1.9-3.4
			c1.2-1,2.8-1.5,4.4-1.3c3,0.4,5.1,3.3,4.6,6.3c-0.2,1.3-0.9,2.5-1.9,3.4C-546.3-143.3-547.6-142.8-548.9-142.8 M-548.9-152.9
			c-1.1,0-2.1,0.4-3,1.1c-0.8,0.7-1.4,1.7-1.6,2.8c-0.4,2.5,1.3,4.8,3.8,5.2c1.3,0.2,2.6-0.2,3.6-1c0.8-0.7,1.4-1.7,1.6-2.8
			c0.4-2.5-1.3-4.8-3.8-5.2C-548.4-152.9-548.6-152.9-548.9-152.9"/>
	</defs>
	<use xlink:href="#SVGID_13_"  style="overflow:visible;fill-rule:evenodd;clip-rule:evenodd;fill:#DF3A42;"/>
	<clipPath id="SVGID_6_">
		<use xlink:href="#SVGID_13_"  style="overflow:visible;"/>
	</clipPath>
	<g style="clip-path:url(#SVGID_6_);">
		<defs>
			<rect id="SVGID_15_" x="-910" y="-1215.7" width="1056" height="3261.8"/>
		</defs>
		<use xlink:href="#SVGID_15_"  style="overflow:visible;fill:#DF3A42;"/>
		<clipPath id="SVGID_8_">
			<use xlink:href="#SVGID_15_"  style="overflow:visible;"/>
		</clipPath>
	</g>
</g>
<g>
	<defs>
		<path id="SVGID_17_" d="M-535.8-148.1C-535.8-148.2-535.8-148.2-535.8-148.1c-0.5-0.2-0.9-0.4-1.2-0.7c-0.7-0.6-1-1.3-1.3-2
			c-0.2-0.5-0.4-1-0.6-1.4c-0.2-0.6-0.5-1.1-0.7-1.7c-0.2-0.5-0.3-0.9-0.4-1.3c-0.2-0.8,0-1.6,0.3-2.2c0,0,0,0,0,0
			c0-0.2-0.1-0.4-0.3-0.6c-0.6-0.5-1.2-1-1.7-1.4c0,0-0.1-0.1-0.3-0.1c-0.1,0-0.2-0.1-0.3-0.1c-0.6,0.6-1.5,0.9-2.5,0.9
			c-0.4,0-0.7-0.1-1-0.2c-0.2,0-0.4-0.1-0.6-0.1c-0.4-0.1-0.8-0.1-1.2-0.1c-0.6-0.1-1.2-0.1-1.8-0.2c-1.2-0.2-2.1-0.7-2.6-1.7
			c0,0,0,0,0,0c-0.2-0.1-0.4-0.1-1,0.1c-0.6,0.2-1.1,0.4-1.5,0.6c-0.3,0.1-0.5,0.3-0.7,0.6c0,0,0,0.1,0,0.1c0.1,0.3,0.1,0.5,0.1,0.8
			c-0.1,1.2-0.7,2.1-1.2,2.8c-0.7,0.8-1.3,1.6-1.9,2.4c-0.1,0.1-0.2,0.2-0.2,0.3c-0.3,0.4-0.8,0.9-1.5,1.2c-0.4,0.2-0.9,0.3-1.4,0.3
			c-0.1,0-0.1,0-0.1,0l0,0c-0.1,0.1-0.2,0.2-0.2,0.3c-0.2,0.8-0.3,1.6-0.4,2.3c0,0.2,0.1,0.5,0.1,0.7c0,0.1,0.1,0.1,0.1,0.2
			c0.4,0.1,0.8,0.4,1.2,0.7c0.7,0.6,1,1.4,1.3,2c0.2,0.5,0.4,1,0.6,1.5c0.2,0.5,0.4,1.1,0.6,1.6c0.2,0.5,0.3,0.9,0.4,1.2
			c0.2,0.8,0,1.6-0.3,2.2c0.1,0.2,0.1,0.4,0.2,0.4c0.6,0.7,1.3,1.2,2.1,1.7c0.1,0,0.1,0.1,0.2,0.1c0.2,0,0.2,0,0.2,0c0,0,0,0,0,0
			c0.3-0.3,0.7-0.5,1.2-0.7c0.8-0.2,1.6-0.1,2.2,0.1c0.6,0.1,1.3,0.2,1.9,0.3c0.4,0.1,0.7,0.1,1.1,0.2c0.1,0,0.2,0,0.4,0.1
			c0.4,0.1,0.9,0.1,1.4,0.3c0.6,0.2,1.1,0.6,1.4,1.1c0,0.1,0.1,0.1,0.2,0.2c0,0,0.1,0,0.1,0c0.3,0,0.5-0.1,0.7-0.1
			c0.6-0.2,1.2-0.4,1.6-0.6c0.3-0.1,0.5-0.4,0.7-0.6c-0.1-0.4-0.1-0.7,0-1c0.1-1,0.6-1.7,1.1-2.3c0.3-0.4,0.6-0.7,0.8-1.1
			c0.4-0.5,0.8-1.1,1.3-1.6l0,0c0.4-0.5,1-1,1.3-1.3c0.4-0.4,1-0.6,1.7-0.6c0,0,0,0,0,0c0.1-0.1,0.2-0.3,0.3-0.4
			c0.3-0.7,0.3-1.4,0.4-2.2C-535.7-147.5-535.7-147.9-535.8-148.1 M-541.5-147.2c-0.6,4.1-4.4,7-8.5,6.3c-4.1-0.6-6.9-4.5-6.3-8.6
			c0.6-4.1,4.4-6.9,8.5-6.3C-543.7-155.2-540.9-151.3-541.5-147.2"/>
	</defs>
	<use xlink:href="#SVGID_17_"  style="overflow:visible;fill-rule:evenodd;clip-rule:evenodd;fill:#DF3A42;"/>
	<clipPath id="SVGID_10_">
		<use xlink:href="#SVGID_17_"  style="overflow:visible;"/>
	</clipPath>
	<g class="st4">
		<defs>
			<rect id="SVGID_19_" x="-910.4" y="-1215.7" width="1056" height="3261.8"/>
		</defs>
		<use xlink:href="#SVGID_19_"  style="overflow:visible;fill:#DF3A42;"/>
		<clipPath id="SVGID_12_">
			<use xlink:href="#SVGID_19_"  style="overflow:visible;"/>
		</clipPath>
	</g>
</g>
<g>
	<defs>
		<path id="SVGID_21_" d="M-547.4-167.1c0.1-2.6-2.1-4.4-4.4-4.3c-7.8,0-15.6,0-23.5,0c-2.6,0-4.3,1.7-4.3,4.3v32.9
			c0,2.2,0,4.5,0,6.8c0,2.8,2.1,4.5,4.5,4.4c7.8-0.1,15.6,0,23.4,0c2.4,0,4.4-1.8,4.4-4.4c0-2.2,0-4.4,0-6.5
			c-0.1-0.2-0.4-0.3-0.6-0.4c-0.4-0.1-0.7-0.2-1.1-0.2l-1.6-0.3c-0.2,0-0.4-0.1-0.6-0.1v3.4h-24.5v-34h24.5v1.9l0.1,0.1l0.2,0.4
			c0.2,0.4,0.6,0.8,1.6,0.9c0.6,0.1,1.3,0.2,1.9,0.2c0,0,0.1,0,0.1,0v-1.8C-547.4-164.9-547.5-166-547.4-167.1 M-563.6-129.8
			c1.4,0,2.6,1.2,2.6,2.5c0,1.4-1.2,2.6-2.6,2.6c-1.4,0-2.6-1.2-2.6-2.6C-566.2-128.7-565-129.8-563.6-129.8"/>
	</defs>
	<use xlink:href="#SVGID_21_"  style="overflow:visible;fill-rule:evenodd;clip-rule:evenodd;fill:#133050;"/>
	<clipPath id="SVGID_14_">
		<use xlink:href="#SVGID_21_"  style="overflow:visible;"/>
	</clipPath>
	<g class="st6">
		<defs>
			<rect id="SVGID_23_" x="-910.4" y="-1215.7" width="1056" height="3261.8"/>
		</defs>
		<use xlink:href="#SVGID_23_"  style="overflow:visible;fill:#133050;"/>
		<clipPath id="SVGID_16_">
			<use xlink:href="#SVGID_23_"  style="overflow:visible;"/>
		</clipPath>
	</g>
</g>
<g>
	<defs>
		<path id="SVGID_25_" d="M-487.6-152.5c0.1-1.8,1-2.9,2.4-2.9c0.5,0,1.1,0.2,1.6,0.5c1.4,0.9,2.9,1.8,4.3,2.7
			c0.6,0.4,1.2,0.8,1.7,1.1l0.5,0.3c0.6,0.4,1.3,0.8,1.8,1.2c0.3,0.2,0.6,0.5,0.9,0.8c1.1,1.2,1.1,2.7,0.1,3.9
			c-0.3,0.3-0.5,0.5-0.9,0.8c-2.2,1.4-4.3,2.7-6.4,4.1l-1.7,1.1c-0.1,0.1-0.2,0.1-0.3,0.2c-0.5,0.3-1.1,0.5-1.5,0.5
			c-1.4,0-2.4-1.2-2.4-3c-0.1-1.3,0-2.6,0-3.8v-1.6v-0.5v-1v-0.2C-487.6-149.9-487.6-151.1-487.6-152.5"/>
	</defs>
	<clipPath id="SVGID_18_">
		<use xlink:href="#SVGID_25_"  style="overflow:visible;"/>
	</clipPath>
	<g class="st8">
		<defs>
			<rect id="SVGID_27_" x="-1209.6" y="-1588.4" width="1440" height="4448"/>
		</defs>
		<clipPath id="SVGID_20_">
			<use xlink:href="#SVGID_27_"  style="overflow:visible;"/>
		</clipPath>
	</g>
</g>
<g>
	<defs>
		<path id="SVGID_29_" d="M-483.7-168.4c-11.1,0-20.1,9.1-20.1,20.4c0,0.3,0,1.2,0,2.3c0,0.1,0,0.1,0,0.2c-0.1,0-0.3,0.1-0.4,0.1
			c-0.8,0.2-1.7,0.4-2.4,0.8c-0.6,0.4-1.1,0.9-1.4,1.5c-0.9,1.8-0.9,3.9-1.2,5.8c-0.3,2.2-0.5,4.5-0.5,6.8c0,4.5,3.5,7.8,7.9,8
			c4.4-0.3,7.9-3.5,7.9-8c0-2.3-0.2-4.5-0.5-6.8c-0.3-1.9-0.3-4-1.2-5.8c-0.8-1.7-2.5-2.1-4.2-2.5c0-0.1,0-0.2,0-0.3
			c0-1.1,0-2,0-2.3c0-9,7.2-16.3,16-16.3c8.8,0,16,7.3,16,16.3c0,9-7.2,16.3-16,16.3c-0.4,0-2.6,0-4.1-0.1c-1.1,0-2,0.9-2.1,2
			c0,1.1,0.9,2.1,2,2.1c2.5,0,3.9,0.1,4.2,0.1c11.1,0,20.1-9.1,20.1-20.4C-463.6-159.3-472.6-168.4-483.7-168.4 M-500-136.6
			c0,0.9-0.7,1.4-1.8,1.5c-0.9,0.1-1.6-0.4-1.7-1.2c0-0.8,0-1.7,0-2.5c0-0.8,0.1-1.7,0.1-2.5c0.1-0.9,0.9-1.4,1.9-1.3
			c1,0.1,1.4,0.6,1.5,1.5c0,0,0,0.1,0,0.1c0,0.7,0,1.5,0,2.2C-500-138.1-499.9-137.3-500-136.6"/>
	</defs>
	<clipPath id="SVGID_22_">
		<use xlink:href="#SVGID_29_"  style="overflow:visible;"/>
	</clipPath>
	<g class="st10">
		<defs>
			<rect id="SVGID_31_" x="-1209.6" y="-1588.4" width="1440" height="4448"/>
		</defs>
		<clipPath id="SVGID_24_">
			<use xlink:href="#SVGID_31_"  style="overflow:visible;"/>
		</clipPath>
	</g>
</g>
<g>
	<defs>
		<path id="SVGID_33_" d="M-402.6-150.3c1.6,0,3,1.5,3,3c0.1,1.5-1.4,3-3,3c-1.6,0-3-1.4-3-3C-405.6-148.9-404.2-150.3-402.6-150.3"
			/>
	</defs>
	<clipPath id="SVGID_26_">
		<use xlink:href="#SVGID_33_"  style="overflow:visible;"/>
	</clipPath>
	<g class="st12">
		<defs>
			<rect id="SVGID_35_" x="-1403.6" y="-1593.3" width="1440" height="4448"/>
		</defs>
		<clipPath id="SVGID_28_">
			<use xlink:href="#SVGID_35_"  style="overflow:visible;"/>
		</clipPath>
	</g>
</g>
<g>
	<defs>
		<path id="SVGID_37_" d="M-416.6-147.4c0-1.6,1.4-2.9,2.9-2.9c1.8,0,3.1,1.2,3.1,2.9c-0.1,1.8-1.4,3.1-3.1,3.1
			C-415.3-144.3-416.7-145.7-416.6-147.4"/>
	</defs>
	<clipPath id="SVGID_30_">
		<use xlink:href="#SVGID_37_"  style="overflow:visible;"/>
	</clipPath>
	<g class="st14">
		<defs>
			<rect id="SVGID_39_" x="-1403.6" y="-1593.3" width="1440" height="4448"/>
		</defs>
		<clipPath id="SVGID_32_">
			<use xlink:href="#SVGID_39_"  style="overflow:visible;"/>
		</clipPath>
	</g>
</g>
<g>
	<defs>
		<path id="SVGID_41_" d="M-423.6-150.3c1.6,0,3,1.5,3,3c0.1,1.5-1.4,3-3,3c-1.6,0-3-1.4-3-3C-426.6-148.9-425.2-150.3-423.6-150.3"
			/>
	</defs>
	<clipPath id="SVGID_34_">
		<use xlink:href="#SVGID_41_"  style="overflow:visible;"/>
	</clipPath>
	<g class="st16">
		<defs>
			<rect id="SVGID_43_" x="-1403.6" y="-1593.3" width="1440" height="4448"/>
		</defs>
		<clipPath id="SVGID_36_">
			<use xlink:href="#SVGID_43_"  style="overflow:visible;"/>
		</clipPath>
	</g>
</g>
<g>
	<defs>
		<polygon id="SVGID_85_" points="-567.2,-52.5 -554.2,-52.5 -554.2,-47.4 -541.2,-54.1 -554.2,-60.9 -554.2,-55.8 -567.2,-55.8 		
			"/>
	</defs>
	<clipPath id="SVGID_38_">
		<use xlink:href="#SVGID_85_"  style="overflow:visible;"/>
	</clipPath>
	<g class="st18">
		<defs>
			<rect id="SVGID_87_" x="-880.4" y="-1210.2" width="1440" height="2150"/>
		</defs>
		<clipPath id="SVGID_40_">
			<use xlink:href="#SVGID_87_"  style="overflow:visible;"/>
		</clipPath>
	</g>
</g>
<g>
	<defs>
		<path id="SVGID_91_" d="M-456.6-26.8h-48.1v-58l37-1.8c0,7.3,14.1,14.5,14.1,21.7C-453.6-52.8-456.6-38.9-456.6-26.8z"/>
	</defs>
	<clipPath id="SVGID_42_">
		<use xlink:href="#SVGID_91_"  style="overflow:visible;"/>
	</clipPath>
	<g class="st20">
		<defs>
			<rect id="SVGID_93_" x="-880.4" y="-1210.2" width="1440" height="2150"/>
		</defs>
		<clipPath id="SVGID_44_">
			<use xlink:href="#SVGID_93_"  style="overflow:visible;"/>
		</clipPath>
	</g>
</g>
<g>
	<defs>
		<path id="SVGID_95_" d="M-467.5-37c0,0.8-0.7,1.5-1.5,0.8h-26.1c-0.8,0.6-1.5,0-1.5-0.8c0-0.8,0.7-1.5,1.5-1.5h26
			C-468.3-38.5-467.6-37.9-467.5-37z M-462.5-44.3c0,0.8-0.7,1.5-1.5,1.1h-31.2c-0.8,0.4-1.5-0.3-1.5-1.1c0-0.4,0.1-0.7,0.4-1
			c0.3-0.3,0.7-0.4,1-0.3h31.3c0.4-0.1,0.8,0,1.1,0.3c0.3,0.3,0.5,0.6,0.4,1H-462.5z M-462.5-51.7c0,0.4-0.1,0.8-0.4,1
			c-0.3,0.3-0.7,0.4-1.1,0.3h-31.2c-0.4,0.1-0.8-0.1-1-0.3c-0.3-0.3-0.4-0.6-0.4-1c0-0.8,0.7-1.5,1.5-1h31.3c0.8-0.3,1.5,0.2,1.5,1
			H-462.5z M-495.2-59.8h31.4c0.8-0.7,1.5,0,1.5,0.8c0,0.8-0.7,1.5-1.5,1.6h-31.3c-0.8-0.1-1.4-0.8-1.5-1.6c0-0.8,0.7-1.5,1.5-0.8
			H-495.2z M-466.7-81l7.1,7h-7.1V-81z M-454.8-26.7h-48.8v-57.8h32.2v16.5h16.7V-26.7z M-509.6-90.5V-22h60.8v-49.9l-18.7-18.5
			H-509.6z"/>
	</defs>
	<clipPath id="SVGID_46_">
		<use xlink:href="#SVGID_95_"  style="overflow:visible;"/>
	</clipPath>
	<g style="clip-path:url(#SVGID_46_);">
		<defs>
			<rect id="SVGID_97_" x="-880.4" y="-1210.2" width="1440" height="2150"/>
		</defs>
		<clipPath id="SVGID_48_">
			<use xlink:href="#SVGID_97_"  style="overflow:visible;"/>
		</clipPath>
	</g>
</g>
<g>
	<defs>
		<path id="SVGID_101_" d="M-593.7-26.8h-48.1v-58l37-1.8c0,7.3,14.1,14.5,14.1,21.7C-590.8-52.8-593.7-38.9-593.7-26.8z"/>
	</defs>
	<clipPath id="SVGID_50_">
		<use xlink:href="#SVGID_101_"  style="overflow:visible;"/>
	</clipPath>
	<g class="st24">
		<defs>
			<rect id="SVGID_103_" x="-880.4" y="-1210.2" width="1440" height="2150"/>
		</defs>
		<clipPath id="SVGID_52_">
			<use xlink:href="#SVGID_103_"  style="overflow:visible;"/>
		</clipPath>
	</g>
</g>
<g>
	<defs>
		<path id="SVGID_105_" d="M-604.7-37c0,0.8-0.7,1.5-1.5,0.8h-26.1c-0.8,0.6-1.5,0-1.5-0.8c0-0.8,0.7-1.5,1.5-1.5h26
			C-605.4-38.5-604.7-37.9-604.7-37z M-599.6-44.3c0,0.8-0.7,1.5-1.5,1.1h-31.2c-0.8,0.4-1.5-0.3-1.5-1.1c0-0.4,0.1-0.7,0.4-1
			c0.3-0.3,0.7-0.4,1-0.3h31.3c0.4-0.1,0.8,0,1.1,0.3c0.3,0.3,0.5,0.6,0.4,1H-599.6z M-599.6-51.7c0,0.4-0.1,0.8-0.4,1
			c-0.3,0.3-0.7,0.4-1.1,0.3h-31.2c-0.4,0.1-0.8-0.1-1-0.3c-0.3-0.3-0.4-0.6-0.4-1c0-0.8,0.7-1.5,1.5-1h31.3c0.8-0.3,1.5,0.2,1.5,1
			H-599.6z M-632.4-59.8h31.4c0.8-0.7,1.5,0,1.5,0.8c0,0.8-0.7,1.5-1.5,1.6h-31.3c-0.8-0.1-1.4-0.8-1.5-1.6c0-0.8,0.7-1.5,1.5-0.8
			H-632.4z M-603.8-81l7.1,7h-7.1V-81z M-591.9-26.7h-48.8v-57.8h32.2v16.5h16.7V-26.7z M-646.7-90.5V-22h60.8v-49.9l-18.7-18.5
			H-646.7z"/>
	</defs>
	<clipPath id="SVGID_54_">
		<use xlink:href="#SVGID_105_"  style="overflow:visible;"/>
	</clipPath>
	<g class="st26">
		<defs>
			<rect id="SVGID_107_" x="-880.4" y="-1210.2" width="1440" height="2150"/>
		</defs>
		<clipPath id="SVGID_56_">
			<use xlink:href="#SVGID_107_"  style="overflow:visible;"/>
		</clipPath>
	</g>
</g>
<g>
	<defs>
		<polygon id="SVGID_109_" points="-327.9,-52.9 -314.9,-52.9 -314.9,-47.8 -301.9,-54.5 -314.9,-61.3 -314.9,-56.1 -327.9,-56.1 		
			"/>
	</defs>
	<clipPath id="SVGID_58_">
		<use xlink:href="#SVGID_109_"  style="overflow:visible;"/>
	</clipPath>
	<g class="st28">
		<defs>
			<rect id="SVGID_111_" x="-1008.1" y="-1210.6" width="1440" height="2150"/>
		</defs>
		<clipPath id="SVGID_60_">
			<use xlink:href="#SVGID_111_"  style="overflow:visible;"/>
		</clipPath>
	</g>
</g>
<g>
	<defs>
		<path id="SVGID_115_" d="M-354.4-27.2h-48.1v-58l37-1.8c0,7.3,14.1,14.5,14.1,21.7C-351.4-53.2-354.4-39.3-354.4-27.2z"/>
	</defs>
	<clipPath id="SVGID_62_">
		<use xlink:href="#SVGID_115_"  style="overflow:visible;"/>
	</clipPath>
	<g class="st30">
		<defs>
			<rect id="SVGID_117_" x="-1008.1" y="-1210.6" width="1440" height="2150"/>
		</defs>
		<clipPath id="SVGID_64_">
			<use xlink:href="#SVGID_117_"  style="overflow:visible;"/>
		</clipPath>
	</g>
</g>
<g>
	<defs>
		<path id="SVGID_119_" d="M-365.4-37.4c0,0.8-0.7,1.5-1.5,0.8h-26.1c-0.8,0.6-1.5,0-1.5-0.8c0-0.8,0.7-1.5,1.5-1.5h26
			C-366.1-38.9-365.4-38.2-365.4-37.4z M-360.3-44.7c0,0.8-0.7,1.5-1.5,1.1h-31.2c-0.8,0.4-1.5-0.3-1.5-1.1c0-0.4,0.1-0.7,0.4-1
			c0.3-0.3,0.7-0.4,1-0.3h31.3c0.4-0.1,0.8,0,1.1,0.3c0.3,0.3,0.5,0.6,0.4,1H-360.3z M-360.3-52c0,0.4-0.1,0.8-0.4,1
			c-0.3,0.3-0.7,0.4-1.1,0.3h-31.2c-0.4,0.1-0.8-0.1-1-0.3c-0.3-0.3-0.4-0.6-0.4-1c0-0.8,0.7-1.5,1.5-1h31.3c0.8-0.3,1.5,0.2,1.5,1
			H-360.3z M-393.1-60.2h31.4c0.8-0.7,1.5,0,1.5,0.8c0,0.8-0.7,1.5-1.5,1.6h-31.3c-0.8-0.1-1.4-0.8-1.5-1.6c0-0.8,0.7-1.5,1.5-0.8
			H-393.1z M-364.5-81.4l7.1,7h-7.1V-81.4z M-352.6-27.1h-48.8V-85h32.2v16.5h16.7V-27.1z M-407.4-90.9v68.5h60.8v-49.9l-18.7-18.5
			H-407.4z"/>
	</defs>
	<clipPath id="SVGID_66_">
		<use xlink:href="#SVGID_119_"  style="overflow:visible;"/>
	</clipPath>
	<g class="st32">
		<defs>
			<rect id="SVGID_121_" x="-1008.1" y="-1210.6" width="1440" height="2150"/>
		</defs>
		<clipPath id="SVGID_68_">
			<use xlink:href="#SVGID_121_"  style="overflow:visible;"/>
		</clipPath>
	</g>
</g>
<g>
	<defs>
		<path id="SVGID_123_" d="M-255.9-91.1c0.1-2.5,2-4.4,4.4-4.4h0.2c2.4,0,4.4,2,4.4,4.4v0.4h-9.1V-91.1z M-262.5-78.4h22.1
			c1.8-0.1,3.3-1.3,3.8-3c0.1-0.2,0.1-0.5,0.1-0.8V-87c0-0.3-0.1-0.5-0.1-0.8c-0.1-0.4-0.3-0.8-0.6-1.2c-0.5-0.8-1.3-1.4-2.2-1.6
			c-0.3-0.1-0.7-0.1-1.1-0.1h-2.4v-0.4c-0.1-4.7-3.8-8.5-8.4-8.5h-0.1c-2.2,0-4.3,0.9-5.9,2.5c-1.6,1.6-2.6,3.7-2.6,6v0.4h-2.4
			c-0.4,0-0.7,0.1-1.1,0.2c-0.9,0.3-1.7,0.8-2.2,1.6c-0.3,0.3-0.5,0.7-0.6,1.1c-0.1,0.3-0.1,0.5-0.2,0.8v4.8c0,0.3,0.1,0.5,0.2,0.8
			C-265.7-79.6-264.2-78.4-262.5-78.4z"/>
	</defs>
	<clipPath id="SVGID_70_">
		<use xlink:href="#SVGID_123_"  style="overflow:visible;"/>
	</clipPath>
	<g class="st34">
		<defs>
			<rect id="SVGID_125_" x="-1008.1" y="-1210.6" width="1440" height="2150"/>
		</defs>
		<clipPath id="SVGID_72_">
			<use xlink:href="#SVGID_125_"  style="overflow:visible;"/>
		</clipPath>
	</g>
</g>
<g>
	<defs>
		<path id="SVGID_127_" d="M-220.1-40.8v-0.8c0-1.8,0-3.8,0-5.6c0-4.5,0-0.7,0-5.2v-2.2c0-6.7,0-13.9,0-20.9
			c0.3-4.7-2.3-9.1-6.6-11.2c-1.7-0.9-3.6-1.3-5.5-1.3h-1.2v5.5h0.3c0.8,0,1.4,0,2,0c3,0.2,5.3,2.5,5.6,5.4c0.2,2.8,0.2,5.6,0.2,8.2
			v35.1c0.1,1.5-0.1,3.1-0.7,4.5c-1,2.1-3.2,3.5-5.6,3.4h-39.4c-2.4,0.1-4.6-1.3-5.6-3.4c-0.6-1.4-0.9-3-0.7-4.5v-35
			c0-2.5,0-5.4,0.2-8.2c0.2-2.9,2.6-5.2,5.6-5.4c0.6,0,1.2,0,2,0h0.3V-88h-1.2c-1.9-0.1-3.8,0.3-5.5,1.2c-4.3,2.2-6.8,6.6-6.6,11.2
			c0,7,0,14.2,0,21v2.2c0,4.5,0,0.8,0,5.2c0,1.9,0,3.8,0,5.6v0.8c0,5.3,0,3.8,0,9.2c0.2,6.1,5.3,11,11.5,11.1h19h1.4h19
			c3,0,5.9-1.2,8.1-3.3c2.2-2,3.4-4.8,3.5-7.8C-220-37-220.1-35.5-220.1-40.8z"/>
	</defs>
	<clipPath id="SVGID_74_">
		<use xlink:href="#SVGID_127_"  style="overflow:visible;"/>
	</clipPath>
	<g class="st36">
		<defs>
			<rect id="SVGID_129_" x="-1008.1" y="-1210.6" width="1440" height="2150"/>
		</defs>
		<clipPath id="SVGID_76_">
			<use xlink:href="#SVGID_129_"  style="overflow:visible;"/>
		</clipPath>
	</g>
</g>
<g>
	<defs>
		<path id="SVGID_131_" d="M-236.7-56.2h-15.8c-0.7,0-1.2,0.6-1.2,1.4c0,0.8,0.6,1.4,1.2,1.4h15.8c0.7,0,1.2-0.6,1.2-1.4
			C-235.5-55.6-236.1-56.2-236.7-56.2z"/>
	</defs>
	<clipPath id="SVGID_78_">
		<use xlink:href="#SVGID_131_"  style="overflow:visible;"/>
	</clipPath>
	<g style="clip-path:url(#SVGID_78_);">
		<defs>
			<rect id="SVGID_133_" x="-1008.1" y="-1210.6" width="1440" height="2150"/>
		</defs>
		<clipPath id="SVGID_80_">
			<use xlink:href="#SVGID_133_"  style="overflow:visible;"/>
		</clipPath>
	</g>
</g>
<g>
	<defs>
		<path id="SVGID_135_" d="M-236.7-40.8h-15.8c-0.7,0-1.2,0.6-1.2,1.4c0,0.8,0.6,1.4,1.2,1.4h15.8c0.7,0,1.2-0.6,1.2-1.4
			C-235.5-40.1-236.1-40.8-236.7-40.8z"/>
	</defs>
	<clipPath id="SVGID_82_">
		<use xlink:href="#SVGID_135_"  style="overflow:visible;"/>
	</clipPath>
	<g class="st40">
		<defs>
			<rect id="SVGID_137_" x="-1008.1" y="-1210.6" width="1440" height="2150"/>
		</defs>
		<clipPath id="SVGID_84_">
			<use xlink:href="#SVGID_137_"  style="overflow:visible;"/>
		</clipPath>
	</g>
</g>
<g>
	<defs>
		<path id="SVGID_139_" d="M-265.2-63.5c0.7,0.7,1.8,0.7,2.5,0l3.7-4c0.3-0.3,0.5-0.8,0.4-1.2c-0.1-0.5-0.4-0.8-0.8-0.9
			c-0.4-0.1-0.9,0-1.1,0.4l-3.3,3.6l-1.2-1.4c-0.3-0.4-0.7-0.6-1.2-0.5c-0.4,0.1-0.8,0.5-0.9,1c-0.1,0.5,0.1,1,0.4,1.3L-265.2-63.5z
			"/>
	</defs>
	<clipPath id="SVGID_86_">
		<use xlink:href="#SVGID_139_"  style="overflow:visible;"/>
	</clipPath>
	<g class="st42">
		<defs>
			<rect id="SVGID_141_" x="-1008.1" y="-1210.6" width="1440" height="2150"/>
		</defs>
		<clipPath id="SVGID_88_">
			<use xlink:href="#SVGID_141_"  style="overflow:visible;"/>
		</clipPath>
	</g>
</g>
<g>
	<defs>
		<path id="SVGID_143_" d="M-265.9-42.2h4.8v4.8h-4.8V-42.2z M-268.3-35h9.6v-9.6h-9.6V-35z"/>
	</defs>
	<clipPath id="SVGID_90_">
		<use xlink:href="#SVGID_143_"  style="overflow:visible;"/>
	</clipPath>
	<g style="clip-path:url(#SVGID_90_);">
		<defs>
			<rect id="SVGID_145_" x="-1008.1" y="-1210.6" width="1440" height="2150"/>
		</defs>
		<clipPath id="SVGID_92_">
			<use xlink:href="#SVGID_145_"  style="overflow:visible;"/>
		</clipPath>
	</g>
</g>
<g>
	<defs>
		<path id="SVGID_147_" d="M-252.6-66.8c-0.7,0-1.2,0.6-1.2,1.4c0,0.8,0.6,1.4,1.2,1.4h15.8c0.7,0,1.2-0.6,1.2-1.4
			c0-0.8-0.6-1.4-1.2-1.4H-252.6z"/>
	</defs>
	<clipPath id="SVGID_94_">
		<use xlink:href="#SVGID_147_"  style="overflow:visible;"/>
	</clipPath>
	<g style="clip-path:url(#SVGID_94_);">
		<defs>
			<rect id="SVGID_149_" x="-1008.1" y="-1210.6" width="1440" height="2150"/>
		</defs>
		<clipPath id="SVGID_96_">
			<use xlink:href="#SVGID_149_"  style="overflow:visible;"/>
		</clipPath>
	</g>
</g>
<g>
	<defs>
		<path id="SVGID_151_" d="M-265.2-51c0.7,0.8,1.8,0.8,2.6,0l3.8-4.2c0.3-0.5,0.2-1.2-0.2-1.6c-0.4-0.4-1-0.5-1.5-0.1l-3.4,3.7
			l-1.3-1.3c-0.3-0.4-0.8-0.6-1.2-0.5c-0.5,0.1-0.8,0.5-0.9,1c-0.1,0.5,0.1,1,0.4,1.3L-265.2-51z"/>
	</defs>
	<clipPath id="SVGID_98_">
		<use xlink:href="#SVGID_151_"  style="overflow:visible;"/>
	</clipPath>
	<g style="clip-path:url(#SVGID_98_);">
		<defs>
			<rect id="SVGID_153_" x="-1008.1" y="-1210.6" width="1440" height="2150"/>
		</defs>
		<clipPath id="SVGID_100_">
			<use xlink:href="#SVGID_153_"  style="overflow:visible;"/>
		</clipPath>
	</g>
</g>
<g>
	<defs>
		<path id="SVGID_155_" d="M-128.6-35.8c0,0.8-0.7,1.5-1.5,1.5h-26.4c-0.8,0-1.5-0.7-1.5-1.5c0-0.4,0.2-0.8,0.4-1.1
			c0.3-0.3,0.7-0.4,1.1-0.4h26.4c0.4,0,0.8,0.1,1.1,0.4C-128.8-36.6-128.6-36.2-128.6-35.8z M-123.4-42.8c0,0.8-0.7,1.5-1.5,1.5
			h-31.8c-0.8,0-1.5-0.7-1.5-1.5c0-0.8,0.7-1.5,1.5-1.5h31.7c0.4,0,0.8,0.1,1.1,0.4C-123.6-43.6-123.4-43.2-123.4-42.8z
			 M-123.4-50.8c0,0.8-0.7,1.5-1.5,1.5h-31.8c-0.5,0-1-0.3-1.3-0.8c-0.3-0.5-0.3-1,0-1.5c0.3-0.5,0.8-0.8,1.3-0.8h31.7
			c0.4,0,0.8,0.1,1.1,0.4C-123.6-51.6-123.4-51.2-123.4-50.8z M-156.7-59.4h31.7c0.8,0,1.5,0.7,1.5,1.5c0,0.8-0.7,1.5-1.5,1.5h-31.7
			c-0.8,0-1.5-0.7-1.5-1.5C-158.2-58.7-157.5-59.4-156.7-59.4z M-127.9-79.4l6.9,7h-6.9V-79.4z M-116.9-26.2h-48v-57.2h31v17.1h17
			V-26.2z M-170.9-88.5v68.3h60V-70l-18.5-18.5H-170.9z"/>
	</defs>
	<clipPath id="SVGID_102_">
		<use xlink:href="#SVGID_155_"  style="overflow:visible;"/>
	</clipPath>
	<g class="st50">
		<defs>
			<rect id="SVGID_157_" x="-1230.5" y="-1210.1" width="1440" height="2150"/>
		</defs>
		<clipPath id="SVGID_104_">
			<use xlink:href="#SVGID_157_"  style="overflow:visible;"/>
		</clipPath>
	</g>
</g>
<g>
	<defs>
		<path id="SVGID_159_" d="M-146.8-98.3c-1.7-1.3-4.1-1.1-5.6,0.5l-17.3,17.3l-7.7-7.7c-1.5-1.6-3.9-1.8-5.6-0.5
			c-0.9,0.7-1.4,1.8-1.5,3c-0.1,1.2,0.4,2.3,1.2,3.1l11.5,11.5c0.6,0.6,1.4,1,2.2,1s1.6-0.3,2.2-1l21-21.1c0.8-0.8,1.2-2,1.1-3.1
			C-145.4-96.5-145.9-97.5-146.8-98.3z"/>
	</defs>
	<clipPath id="SVGID_106_">
		<use xlink:href="#SVGID_159_"  style="overflow:visible;"/>
	</clipPath>
	<g class="st52">
		<defs>
			<rect id="SVGID_161_" x="-1230.5" y="-1210.1" width="1440" height="2150"/>
		</defs>
		<clipPath id="SVGID_108_">
			<use xlink:href="#SVGID_161_"  style="overflow:visible;"/>
		</clipPath>
	</g>
</g>
<g>
	<defs>
		<path id="SVGID_165_" d="M-592.4,79.9h-50.7V20.1l39.1-1.9c0,7.5,14.9,15,14.9,22.5C-589.2,53.1-592.4,67.5-592.4,79.9z"/>
	</defs>
	<clipPath id="SVGID_110_">
		<use xlink:href="#SVGID_165_"  style="overflow:visible;"/>
	</clipPath>
	<g class="st54">
		<defs>
			<rect id="SVGID_167_" x="-1149.8" y="-1655.7" width="1440" height="3155"/>
		</defs>
		<clipPath id="SVGID_112_">
			<use xlink:href="#SVGID_167_"  style="overflow:visible;"/>
		</clipPath>
	</g>
</g>
<g>
	<defs>
		<path id="SVGID_169_" d="M-605.8,70.1c0,0.8-0.7,1.5-1.5,0.9h-26.7c-0.8,0.7-1.5,0-1.5-0.9c0-0.8,0.7-1.5,1.5-1.6h26.8
			C-606.4,68.5-605.7,69.2-605.8,70.1L-605.8,70.1z M-600.3,62.4c0,0.8-0.7,1.5-1.5,1.1h-32.2c-0.8,0.4-1.5-0.3-1.5-1.1
			c0-0.4,0.1-0.8,0.4-1s0.7-0.4,1.1-0.3h32.3c0.4-0.1,0.8,0,1.1,0.3S-600.2,62-600.3,62.4L-600.3,62.4z M-600.3,54.8
			c0,0.4-0.1,0.8-0.4,1.1c-0.3,0.3-0.7,0.4-1.1,0.3h-32.2c-0.4,0.1-0.8-0.1-1.1-0.3c-0.3-0.3-0.5-0.6-0.4-1c0-0.8,0.7-1.5,1.5-1.1
			h32.3C-600.9,53.4-600.2,54-600.3,54.8L-600.3,54.8z M-634.1,46.3h32.4c0.9-0.7,1.5,0,1.5,0.8c0,0.9-0.7,1.6-1.5,1.6h-32.3
			c-0.8-0.1-1.5-0.8-1.5-1.6C-635.6,46.3-634.9,45.7-634.1,46.3L-634.1,46.3z M-604.7,24.3l7.3,7.3h-7.3V24.3z M-592.3,80.8h-50.5
			V20.5h33.2v17.2h17.2L-592.3,80.8z M-648.9,14.4v71.4h62.7v-52l-19.4-19.3H-648.9z"/>
	</defs>
	<clipPath id="SVGID_114_">
		<use xlink:href="#SVGID_169_"  style="overflow:visible;"/>
	</clipPath>
	<g style="clip-path:url(#SVGID_114_);">
		<defs>
			<rect id="SVGID_171_" x="-1149.8" y="-1655.7" width="1440" height="3155"/>
		</defs>
		<clipPath id="SVGID_116_">
			<use xlink:href="#SVGID_171_"  style="overflow:visible;"/>
		</clipPath>
	</g>
</g>
<g>
	<defs>
		<polygon id="SVGID_173_" points="-562.2,45.5 -549.1,45.5 -549.1,51 -536.1,43.8 -549.1,36.5 -549.1,42 -562.2,42 		"/>
	</defs>
	<clipPath id="SVGID_118_">
		<use xlink:href="#SVGID_173_"  style="overflow:visible;"/>
	</clipPath>
	<g style="clip-path:url(#SVGID_118_);">
		<defs>
			<rect id="SVGID_175_" x="-1149.8" y="-1655.7" width="1440" height="3155"/>
		</defs>
		<clipPath id="SVGID_120_">
			<use xlink:href="#SVGID_175_"  style="overflow:visible;"/>
		</clipPath>
	</g>
</g>
<g>
	<defs>
		<path id="SVGID_177_" d="M-439.7,58.3c-22.2,0-44.5,0-66.7,0c-2.3,0-2.3,0-2.3-2.3V16.7c0-2.6,0-2.6,2.8-2.6h65.9
			c2.3,0,2.5,0,2.5,2.3c0,12.3,0,27.4,0,39.7c0,1.6-0.4,2.2-2.2,2.2H-439.7z M-437.4,6.7h-70.7c-4.8,0-6.8,2-6.8,6.8v49.9
			c0,4.7,1.9,6.8,6.6,6.8h26.3v3c-0.1,1.5-1,2.9-2.3,3.7c-0.8,0.6-1.8,1.2-2.7,1.6c-0.8,0.4-1.7,0.7-2.5,1c-0.6,0.2-1.1,0.8-1.1,1.5
			v0.2c0,1,0.8,1.8,1.8,1.8h31.5c0.5,0,0.9-0.2,1.2-0.5c0.3-0.3,0.5-0.8,0.5-1.2c0-0.8-0.5-1.4-1.2-1.7c-0.8-0.3-1.5-0.6-2.3-0.9
			c-1-0.4-1.9-1-2.7-1.6c-1.3-0.8-2.1-2.1-2.3-3.7V70h26.6c4.4,0,6.3-2.1,6.3-6.5V13c0.2-1.7-0.4-3.5-1.6-4.7
			C-433.9,7-435.7,6.4-437.4,6.7z"/>
	</defs>
	<clipPath id="SVGID_122_">
		<use xlink:href="#SVGID_177_"  style="overflow:visible;"/>
	</clipPath>
	<g style="clip-path:url(#SVGID_122_);">
		<defs>
			<rect id="SVGID_179_" x="-1149.8" y="-1655.7" width="1440" height="3155"/>
		</defs>
		<clipPath id="SVGID_124_">
			<use xlink:href="#SVGID_179_"  style="overflow:visible;"/>
		</clipPath>
	</g>
</g>
<g>
	<defs>
		<path id="SVGID_181_" d="M-383.3,10.3c0.1-2.5,2-4.4,4.4-4.4h0.2c2.4,0,4.4,2,4.4,4.4v0.4h-9.1V10.3z M-389.9,23h22.1
			c1.8-0.1,3.3-1.3,3.8-3c0.1-0.2,0.1-0.5,0.1-0.8v-4.9c0-0.3-0.1-0.5-0.1-0.8c-0.1-0.4-0.3-0.8-0.6-1.2c-0.5-0.8-1.3-1.4-2.2-1.6
			c-0.3-0.1-0.7-0.1-1.1-0.1h-2.4v-0.4c-0.1-4.7-3.8-8.5-8.4-8.5h-0.1c-2.2,0-4.3,0.9-5.9,2.5c-1.6,1.6-2.6,3.7-2.6,6v0.4h-2.4
			c-0.4,0-0.7,0.1-1.1,0.2c-0.9,0.3-1.7,0.8-2.2,1.6c-0.3,0.3-0.5,0.7-0.6,1.1c-0.1,0.3-0.1,0.5-0.2,0.8v4.8c0,0.3,0.1,0.5,0.2,0.8
			C-393.1,21.8-391.6,23-389.9,23z"/>
	</defs>
	<clipPath id="SVGID_126_">
		<use xlink:href="#SVGID_181_"  style="overflow:visible;"/>
	</clipPath>
	<g style="clip-path:url(#SVGID_126_);">
		<defs>
			<rect id="SVGID_183_" x="-1368.2" y="-1637.2" width="1440" height="3155"/>
		</defs>
		<clipPath id="SVGID_128_">
			<use xlink:href="#SVGID_183_"  style="overflow:visible;"/>
		</clipPath>
	</g>
</g>
<g>
	<defs>
		<path id="SVGID_185_" d="M-347.5,60.6v-0.8c0-1.8,0-3.8,0-5.6c0-4.5,0-0.7,0-5.2v-2.2c0-6.7,0-13.9,0-20.9
			c0.3-4.7-2.3-9.1-6.6-11.2c-1.7-0.9-3.6-1.3-5.5-1.3h-1.2v5.5h0.3c0.8,0,1.4,0,2,0c3,0.2,5.3,2.5,5.6,5.4c0.2,2.8,0.2,5.6,0.2,8.2
			v35.1c0.1,1.5-0.1,3.1-0.7,4.5c-1,2.1-3.2,3.5-5.6,3.4h-39.4c-2.4,0.1-4.6-1.3-5.6-3.4c-0.6-1.4-0.9-3-0.7-4.5v-35
			c0-2.5,0-5.4,0.2-8.2c0.2-2.9,2.6-5.2,5.6-5.4c0.6,0,1.2,0,2,0h0.3v-5.5h-1.2c-1.9-0.1-3.8,0.3-5.5,1.2c-4.3,2.2-6.8,6.6-6.6,11.2
			c0,7,0,14.2,0,21V49c0,4.5,0,0.8,0,5.2c0,1.9,0,3.8,0,5.6v0.8c0,5.3,0,3.8,0,9.2c0.2,6.1,5.3,11,11.5,11.1h19h1.4h19
			c3,0,5.9-1.2,8.1-3.3c2.2-2,3.4-4.8,3.5-7.8C-347.5,64.4-347.5,65.9-347.5,60.6z"/>
	</defs>
	<clipPath id="SVGID_130_">
		<use xlink:href="#SVGID_185_"  style="overflow:visible;"/>
	</clipPath>
	<g style="clip-path:url(#SVGID_130_);">
		<defs>
			<rect id="SVGID_187_" x="-1368.2" y="-1637.2" width="1440" height="3155"/>
		</defs>
		<clipPath id="SVGID_132_">
			<use xlink:href="#SVGID_187_"  style="overflow:visible;"/>
		</clipPath>
	</g>
</g>
<g>
	<defs>
		<path id="SVGID_189_" d="M-364.2,45.2H-380c-0.7,0-1.2,0.6-1.2,1.4c0,0.8,0.6,1.4,1.2,1.4h15.8c0.7,0,1.2-0.6,1.2-1.4
			C-362.9,45.9-363.5,45.2-364.2,45.2z"/>
	</defs>
	<clipPath id="SVGID_134_">
		<use xlink:href="#SVGID_189_"  style="overflow:visible;"/>
	</clipPath>
	<g style="clip-path:url(#SVGID_134_);">
		<defs>
			<rect id="SVGID_191_" x="-1368.2" y="-1637.2" width="1440" height="3155"/>
		</defs>
		<clipPath id="SVGID_136_">
			<use xlink:href="#SVGID_191_"  style="overflow:visible;"/>
		</clipPath>
	</g>
</g>
<g>
	<defs>
		<path id="SVGID_193_" d="M-364.2,60.6H-380c-0.7,0-1.2,0.6-1.2,1.4c0,0.8,0.6,1.4,1.2,1.4h15.8c0.7,0,1.2-0.6,1.2-1.4
			C-362.9,61.3-363.5,60.6-364.2,60.6z"/>
	</defs>
	<clipPath id="SVGID_138_">
		<use xlink:href="#SVGID_193_"  style="overflow:visible;"/>
	</clipPath>
	<g style="clip-path:url(#SVGID_138_);">
		<defs>
			<rect id="SVGID_195_" x="-1368.2" y="-1637.2" width="1440" height="3155"/>
		</defs>
		<clipPath id="SVGID_140_">
			<use xlink:href="#SVGID_195_"  style="overflow:visible;"/>
		</clipPath>
	</g>
</g>
<g>
	<defs>
		<path id="SVGID_197_" d="M-392.7,37.9c0.7,0.7,1.8,0.7,2.5,0l3.7-4c0.3-0.3,0.5-0.8,0.4-1.2c-0.1-0.5-0.4-0.8-0.8-0.9
			c-0.4-0.1-0.9,0-1.1,0.4l-3.3,3.6l-1.2-1.4c-0.3-0.4-0.7-0.6-1.2-0.5c-0.4,0.1-0.8,0.5-0.9,1c-0.1,0.5,0.1,1,0.4,1.3L-392.7,37.9z
			"/>
	</defs>
	<clipPath id="SVGID_142_">
		<use xlink:href="#SVGID_197_"  style="overflow:visible;"/>
	</clipPath>
	<g style="clip-path:url(#SVGID_142_);">
		<defs>
			<rect id="SVGID_199_" x="-1368.2" y="-1637.2" width="1440" height="3155"/>
		</defs>
		<clipPath id="SVGID_144_">
			<use xlink:href="#SVGID_199_"  style="overflow:visible;"/>
		</clipPath>
	</g>
</g>
<g>
	<defs>
		<path id="SVGID_201_" d="M-393.3,59.2h4.8V64h-4.8V59.2z M-395.7,66.4h9.6v-9.6h-9.6V66.4z"/>
	</defs>
	<clipPath id="SVGID_146_">
		<use xlink:href="#SVGID_201_"  style="overflow:visible;"/>
	</clipPath>
	<g style="clip-path:url(#SVGID_146_);">
		<defs>
			<rect id="SVGID_203_" x="-1368.2" y="-1637.2" width="1440" height="3155"/>
		</defs>
		<clipPath id="SVGID_148_">
			<use xlink:href="#SVGID_203_"  style="overflow:visible;"/>
		</clipPath>
	</g>
</g>
<g>
	<defs>
		<path id="SVGID_205_" d="M-380,34.6c-0.7,0-1.2,0.6-1.2,1.4c0,0.8,0.6,1.4,1.2,1.4h15.8c0.7,0,1.2-0.6,1.2-1.4
			c0-0.8-0.6-1.4-1.2-1.4H-380z"/>
	</defs>
	<clipPath id="SVGID_150_">
		<use xlink:href="#SVGID_205_"  style="overflow:visible;"/>
	</clipPath>
	<g style="clip-path:url(#SVGID_150_);">
		<defs>
			<rect id="SVGID_207_" x="-1368.2" y="-1637.2" width="1440" height="3155"/>
		</defs>
		<clipPath id="SVGID_152_">
			<use xlink:href="#SVGID_207_"  style="overflow:visible;"/>
		</clipPath>
	</g>
</g>
<g>
	<defs>
		<path id="SVGID_209_" d="M-392.6,50.4c0.7,0.8,1.8,0.8,2.6,0l3.8-4.2c0.3-0.5,0.2-1.2-0.2-1.6c-0.4-0.4-1-0.5-1.5-0.1l-3.4,3.7
			l-1.3-1.3c-0.3-0.4-0.8-0.6-1.2-0.5c-0.5,0.1-0.8,0.5-0.9,1c-0.1,0.5,0.1,1,0.4,1.3L-392.6,50.4z"/>
	</defs>
	<clipPath id="SVGID_154_">
		<use xlink:href="#SVGID_209_"  style="overflow:visible;"/>
	</clipPath>
	<g style="clip-path:url(#SVGID_154_);">
		<defs>
			<rect id="SVGID_211_" x="-1368.2" y="-1637.2" width="1440" height="3155"/>
		</defs>
		<clipPath id="SVGID_156_">
			<use xlink:href="#SVGID_211_"  style="overflow:visible;"/>
		</clipPath>
	</g>
</g>
<g>
	<defs>
		<path id="SVGID_213_" d="M-325.6,47.1c0-1.7,0.1-3.4,0.4-5.1c0.2-1.2-0.6-2.4-1.8-2.6c-0.6-0.1-1.2,0-1.7,0.4
			c-0.5,0.3-0.8,0.9-0.9,1.5c-0.3,1.9-0.5,3.9-0.5,5.9c0,1.2,1,2.3,2.3,2.3C-326.6,49.3-325.6,48.3-325.6,47.1z"/>
	</defs>
	<clipPath id="SVGID_158_">
		<use xlink:href="#SVGID_213_"  style="overflow:visible;"/>
	</clipPath>
	<g style="clip-path:url(#SVGID_158_);">
		<defs>
			<rect id="SVGID_215_" x="-1368.2" y="-1637.2" width="1440" height="3155"/>
		</defs>
		<clipPath id="SVGID_160_">
			<use xlink:href="#SVGID_215_"  style="overflow:visible;"/>
		</clipPath>
	</g>
</g>
<g>
	<defs>
		<path id="SVGID_217_" d="M-310.1,20.9c0.4,0,0.7-0.1,1-0.2c2.8-1.4,5.7-2.3,8.8-2.7c0.6-0.1,1.2-0.4,1.5-0.9
			c0.4-0.5,0.5-1.1,0.4-1.7c-0.1-0.6-0.4-1.1-0.9-1.5c-0.5-0.4-1.2-0.6-1.8-0.4c-3.5,0.5-7,1.6-10.1,3.2c-0.9,0.5-1.4,1.5-1.2,2.6
			S-311.2,20.9-310.1,20.9z"/>
	</defs>
	<clipPath id="SVGID_162_">
		<use xlink:href="#SVGID_217_"  style="overflow:visible;"/>
	</clipPath>
	<g style="clip-path:url(#SVGID_162_);">
		<defs>
			<rect id="SVGID_219_" x="-1368.2" y="-1637.2" width="1440" height="3155"/>
		</defs>
		<clipPath id="SVGID_164_">
			<use xlink:href="#SVGID_219_"  style="overflow:visible;"/>
		</clipPath>
	</g>
</g>
<g>
	<defs>
		<path id="SVGID_221_" d="M-325.2,34.2L-325.2,34.2c0.5,0.3,1.2,0.3,1.7,0.1s1-0.6,1.3-1.1c1.5-2.7,3.3-5.2,5.6-7.3
			c0.9-0.9,0.9-2.3,0-3.2c-0.4-0.4-1-0.7-1.6-0.7c-0.6,0-1.2,0.2-1.6,0.7c-2.5,2.5-4.7,5.3-6.4,8.4c-0.3,0.5-0.3,1.1-0.2,1.7
			C-326.2,33.4-325.8,33.9-325.2,34.2z"/>
	</defs>
	<clipPath id="SVGID_166_">
		<use xlink:href="#SVGID_221_"  style="overflow:visible;"/>
	</clipPath>
	<g class="st82">
		<defs>
			<rect id="SVGID_223_" x="-1368.2" y="-1637.2" width="1440" height="3155"/>
		</defs>
		<clipPath id="SVGID_168_">
			<use xlink:href="#SVGID_223_"  style="overflow:visible;"/>
		</clipPath>
	</g>
</g>
<g>
	<defs>
		<path id="SVGID_225_" d="M-300.1,76.3c-3.1-0.4-6-1.3-8.8-2.6c-0.8-0.4-1.8-0.3-2.5,0.3c-0.7,0.6-0.9,1.5-0.7,2.4
			c0.2,0.6,0.6,1,1.2,1.3c3.2,1.6,6.6,2.6,10.2,3.1h0.3c0.9,0,1.6-0.5,2-1.3c0.4-0.8,0.3-1.7-0.2-2.3
			C-299,76.8-299.5,76.4-300.1,76.3z"/>
	</defs>
	<clipPath id="SVGID_170_">
		<use xlink:href="#SVGID_225_"  style="overflow:visible;"/>
	</clipPath>
	<g class="st84">
		<defs>
			<rect id="SVGID_227_" x="-1368.2" y="-1637.2" width="1440" height="3155"/>
		</defs>
		<clipPath id="SVGID_172_">
			<use xlink:href="#SVGID_227_"  style="overflow:visible;"/>
		</clipPath>
	</g>
</g>
<g>
	<defs>
		<path id="SVGID_229_" d="M-266.3,59.3c-1.1-0.6-2.4-0.1-3,0.9c-1.4,2.7-3.2,5.3-5.4,7.5c-0.4,0.4-0.7,1-0.7,1.6
			c0,1.2,1,2.3,2.3,2.3c0.6,0,1.2-0.2,1.6-0.7c2.5-2.5,4.6-5.4,6.2-8.6C-264.8,61.2-265.2,59.9-266.3,59.3z"/>
	</defs>
	<clipPath id="SVGID_174_">
		<use xlink:href="#SVGID_229_"  style="overflow:visible;"/>
	</clipPath>
	<g class="st86">
		<defs>
			<rect id="SVGID_231_" x="-1368.2" y="-1637.2" width="1440" height="3155"/>
		</defs>
		<clipPath id="SVGID_176_">
			<use xlink:href="#SVGID_231_"  style="overflow:visible;"/>
		</clipPath>
	</g>
</g>
<g>
	<defs>
		<path id="SVGID_233_" d="M-269.4,33.7c0.4,0.7,1.2,1.2,2,1.2c0.4,0,0.7-0.1,1-0.2c1.1-0.6,1.5-1.9,1-3c-1.6-3.2-3.7-6-6.3-8.5
			c-0.4-0.4-1-0.7-1.6-0.7c-0.6,0-1.2,0.2-1.6,0.7c-0.9,0.9-0.9,2.3,0,3.2C-272.6,28.4-270.8,30.9-269.4,33.7z"/>
	</defs>
	<clipPath id="SVGID_178_">
		<use xlink:href="#SVGID_233_"  style="overflow:visible;"/>
	</clipPath>
	<g class="st88">
		<defs>
			<rect id="SVGID_235_" x="-1368.2" y="-1637.2" width="1440" height="3155"/>
		</defs>
		<clipPath id="SVGID_180_">
			<use xlink:href="#SVGID_235_"  style="overflow:visible;"/>
		</clipPath>
	</g>
</g>
<g>
	<defs>
		<path id="SVGID_237_" d="M-291.1,18L-291.1,18c3.1,0.5,6,1.5,8.8,2.9c0.3,0.2,0.7,0.3,1,0.2c0.8,0,1.6-0.5,2-1.2
			c0.6-1.1,0.1-2.4-1-3c-3.2-1.6-6.6-2.7-10.1-3.3c-0.6-0.1-1.2,0-1.7,0.4c-0.5,0.3-0.8,0.9-0.9,1.5
			C-293.1,16.6-292.3,17.8-291.1,18z"/>
	</defs>
	<clipPath id="SVGID_182_">
		<use xlink:href="#SVGID_237_"  style="overflow:visible;"/>
	</clipPath>
	<g class="st90">
		<defs>
			<rect id="SVGID_239_" x="-1368.2" y="-1637.2" width="1440" height="3155"/>
		</defs>
		<clipPath id="SVGID_184_">
			<use xlink:href="#SVGID_239_"  style="overflow:visible;"/>
		</clipPath>
	</g>
</g>
<g>
	<defs>
		<path id="SVGID_241_" d="M-280.4,73.1c-0.6-0.2-1.2-0.1-1.7,0.2c-2.7,1.4-5.7,2.4-8.7,3c-0.6,0.1-1.1,0.4-1.5,0.9
			c-0.3,0.5-0.5,1.1-0.4,1.7c0.2,1.1,1.2,1.9,2.3,1.9h0.4c3.5-0.6,6.9-1.7,10.1-3.4c0.8-0.4,1.3-1.3,1.2-2.2
			C-278.9,74.2-279.5,73.4-280.4,73.1L-280.4,73.1z"/>
	</defs>
	<clipPath id="SVGID_186_">
		<use xlink:href="#SVGID_241_"  style="overflow:visible;"/>
	</clipPath>
	<g class="st92">
		<defs>
			<rect id="SVGID_243_" x="-1368.2" y="-1637.2" width="1440" height="3155"/>
		</defs>
		<clipPath id="SVGID_188_">
			<use xlink:href="#SVGID_243_"  style="overflow:visible;"/>
		</clipPath>
	</g>
</g>
<g>
	<defs>
		<path id="SVGID_245_" d="M-310.7,64.6c0.4-0.4,0.7-1,0.7-1.6c0-1.2-1-2.3-2.3-2.3h-11.3c-1,0-2,0.4-2.7,1.1
			c-0.7,0.7-1.1,1.7-1.1,2.7v11.3c0,0.9,0.6,1.7,1.4,2.1c0.8,0.3,1.8,0.1,2.5-0.5c0.4-0.4,0.7-1,0.7-1.6v-7.6c1,1.2,2.1,2.3,3.2,3.4
			c0.9,0.9,2.3,0.9,3.2,0c0.9-0.9,0.9-2.3,0-3.2c-1-1-1.9-2-2.8-3.1h7C-311.6,65.2-311.1,65-310.7,64.6z"/>
	</defs>
	<clipPath id="SVGID_190_">
		<use xlink:href="#SVGID_245_"  style="overflow:visible;"/>
	</clipPath>
	<g class="st94">
		<defs>
			<rect id="SVGID_247_" x="-1368.2" y="-1637.2" width="1440" height="3155"/>
		</defs>
		<clipPath id="SVGID_192_">
			<use xlink:href="#SVGID_247_"  style="overflow:visible;"/>
		</clipPath>
	</g>
</g>
<g>
	<defs>
		<path id="SVGID_249_" d="M-280.9,32.3l-10.5,8.1c-1.3-0.9-2.9-1.4-4.5-1.4c-3.3,0-6.2,1.9-7.5,5c-1.3,3-0.6,6.5,1.7,8.8
			c2.3,2.3,5.8,3,8.8,1.8c3-1.2,5-4.2,5-7.4c0-1.1-0.2-2.2-0.7-3.2l10.4-8c0.5-0.4,0.8-0.9,0.9-1.5c0.1-0.6-0.1-1.2-0.5-1.7
			C-278.5,31.8-279.9,31.6-280.9,32.3z"/>
	</defs>
	<clipPath id="SVGID_194_">
		<use xlink:href="#SVGID_249_"  style="overflow:visible;"/>
	</clipPath>
	<g class="st96">
		<defs>
			<rect id="SVGID_251_" x="-1368.2" y="-1637.2" width="1440" height="3155"/>
		</defs>
		<clipPath id="SVGID_196_">
			<use xlink:href="#SVGID_251_"  style="overflow:visible;"/>
		</clipPath>
	</g>
</g>
<g>
	<defs>
		<path id="SVGID_255_" d="M-175,75.7h-48.6V18.8l37.5-1.8c0,7.1,14.2,14.2,14.2,21.3C-171.9,50.2-175,63.8-175,75.7"/>
	</defs>
	<clipPath id="SVGID_198_">
		<use xlink:href="#SVGID_255_"  style="overflow:visible;"/>
	</clipPath>
	<g class="st98">
		<defs>
			<rect id="SVGID_257_" x="-558.1" y="-1867.5" width="1440" height="3155"/>
		</defs>
		<clipPath id="SVGID_200_">
			<use xlink:href="#SVGID_257_"  style="overflow:visible;"/>
		</clipPath>
	</g>
</g>
<g>
	<defs>
		<path id="SVGID_259_" d="M-229.5,13.6v67.9h60.1V32L-188,13.6H-229.5z M-175.3,76.8h-48.3V19.5h31.8v16.4h16.5V76.8z M-187,23.1
			l7,6.9h-7V23.1z M-215.2,44h30.9c0.8-0.7,1.5,0,1.5,0.8c0,0.8-0.7,1.5-1.5,1.5h-30.9c-0.8-0.1-1.5-0.7-1.5-1.5
			C-216.6,44-216,43.4-215.2,44z M-182.8,52.1c0,0.8-0.7,1.5-1.5,1.3h-30.9c-0.8,0.1-1.5-0.5-1.5-1.3c0-0.8,0.7-1.5,1.5-1h30.9
			C-183.4,50.7-182.8,51.3-182.8,52.1z M-182.8,59.4c0,0.8-0.7,1.5-1.5,1.1h-30.9c-0.8,0.4-1.5-0.3-1.5-1.1c0-0.8,0.7-1.5,1.5-1.3
			h30.9C-183.4,57.9-182.8,58.6-182.8,59.4z M-188,66.6c0,0.8-0.7,1.5-1.5,0.8h-25.7c-0.8,0.6-1.5,0-1.5-0.8s0.7-1.4,1.5-1.5h25.7
			C-188.6,65.2-188,65.8-188,66.6z"/>
	</defs>
	<clipPath id="SVGID_202_">
		<use xlink:href="#SVGID_259_"  style="overflow:visible;"/>
	</clipPath>
	<g class="st100">
		<defs>
			<rect id="SVGID_261_" x="-558.1" y="-1867.5" width="1440" height="3155"/>
		</defs>
		<clipPath id="SVGID_204_">
			<use xlink:href="#SVGID_261_"  style="overflow:visible;"/>
		</clipPath>
	</g>
</g>
<g>
	<defs>
		<path id="SVGID_263_" d="M-157.4,45.6c0,11.7-9.5,21.2-21.3,21.2c-11.8,0-21.3-9.5-21.3-21.2s9.5-21.2,21.3-21.2
			C-167,24.4-157.4,33.9-157.4,45.6"/>
	</defs>
	<clipPath id="SVGID_206_">
		<use xlink:href="#SVGID_263_"  style="overflow:visible;"/>
	</clipPath>
	<g class="st102">
		<defs>
			<rect id="SVGID_265_" x="-558.1" y="-1867.5" width="1440" height="3155"/>
		</defs>
		<clipPath id="SVGID_208_">
			<use xlink:href="#SVGID_265_"  style="overflow:visible;"/>
		</clipPath>
	</g>
</g>
<g>
	<defs>
		<path id="SVGID_267_" d="M-157.8,60.3c7.1-9.6,6.6-23.2-1.8-32.3c-9.6-10.3-25.8-11-36.2-1.5c-10.4,9.5-11,25.6-1.5,35.9
			c8.4,9.1,22,10.7,32.2,4.4l7.9,12.1c0.4,0.5,0.8,1,1.3,1.4c3.1,2.6,7.8,2.2,10.5-0.9c2.6-3.1,2.2-7.8-0.9-10.4L-157.8,60.3z
			 M-162.1,56.6c-0.8,1.1-1.7,2.2-2.8,3.1c-1,1-2.2,1.8-3.4,2.5c-7.9,4.6-18.3,3.4-24.7-3.6c-7.4-8-6.9-20.5,1.2-27.9
			c8.1-7.4,20.7-6.9,28.1,1.1C-157.3,38.8-156.9,49.2-162.1,56.6z"/>
	</defs>
	<clipPath id="SVGID_210_">
		<use xlink:href="#SVGID_267_"  style="overflow:visible;"/>
	</clipPath>
	<g class="st104">
		<defs>
			<rect id="SVGID_269_" x="-558.1" y="-1867.5" width="1440" height="3155"/>
		</defs>
		<clipPath id="SVGID_212_">
			<use xlink:href="#SVGID_269_"  style="overflow:visible;"/>
		</clipPath>
	</g>
</g>
<g>
	<defs>
		<path id="SVGID_293_" d="M50.6,57.1H13.5V13.2l28.6-1.4c0,5.5,10.9,11,10.9,16.5C53,37.4,50.6,48,50.6,57.1z"/>
	</defs>
	<clipPath id="SVGID_214_">
		<use xlink:href="#SVGID_293_"  style="overflow:visible;"/>
	</clipPath>
	<g class="st106">
		<defs>
			<rect id="SVGID_295_" x="-257.6" y="-2075.9" width="1440" height="3155"/>
		</defs>
		<clipPath id="SVGID_216_">
			<use xlink:href="#SVGID_295_"  style="overflow:visible;"/>
		</clipPath>
		<rect x="12.5" y="10.8" style="clip-path:url(#SVGID_216_);fill:#FFFFFF;" width="41.5" height="47.3"/>
	</g>
</g>
<g>
	<defs>
		<path id="SVGID_297_" d="M40,51.8c0,0.6-0.5,1.2-1.2,1.2H18c-0.7,0-1.2-0.5-1.2-1.2s0.5-1.2,1.2-1.2h20.7c0.3,0,0.7,0.1,0.9,0.3
			C39.9,51.1,40,51.4,40,51.8z M44.2,46.3c0,0.6-0.5,1.2-1.2,1.2H18c-0.7,0-1.2-0.5-1.2-1.2c0-0.7,0.5-1.2,1.2-1.2h25
			c0.3,0,0.7,0.1,0.9,0.4C44.1,45.7,44.2,46.1,44.2,46.3L44.2,46.3z M44.2,40.1c0,0.3-0.1,0.6-0.3,0.8c-0.2,0.2-0.5,0.3-0.8,0.3H18
			c-0.7,0-1.2-0.5-1.2-1.2c0-0.7,0.5-1.2,1.2-1.2h25c0.3,0,0.6,0.1,0.8,0.3C44.1,39.4,44.2,39.7,44.2,40.1z M18,33.4h25
			c0.7,0,1.2,0.5,1.2,1.2c0,0.7-0.5,1.2-1.2,1.2H18c-0.7,0-1.2-0.5-1.2-1.2C16.8,34,17.3,33.4,18,33.4z M40.6,17.9l5.4,5.4h-5.4
			V17.9z M49.3,59.2H11.5V14.7h24.4V28h13.4V59.2z M6.8,10.8v53H54V25.2L39.4,10.8H6.8z"/>
	</defs>
	<clipPath id="SVGID_218_">
		<use xlink:href="#SVGID_297_"  style="overflow:visible;"/>
	</clipPath>
	<g class="st108">
		<defs>
			<rect id="SVGID_299_" x="-257.6" y="-2075.9" width="1440" height="3155"/>
		</defs>
		<clipPath id="SVGID_220_">
			<use xlink:href="#SVGID_299_"  style="overflow:visible;"/>
		</clipPath>
		<rect x="5.8" y="9.8" class="st109" width="49.3" height="55"/>
	</g>
</g>
<g>
	<defs>
		<rect id="SVGID_301_" x="14.5" y="17.5" width="49.2" height="55.9"/>
	</defs>
	<clipPath id="SVGID_222_">
		<use xlink:href="#SVGID_301_"  style="overflow:visible;"/>
	</clipPath>
	<rect x="13.5" y="16.5" style="clip-path:url(#SVGID_222_);fill:#418AC6;" width="51.2" height="57.9"/>
</g>
<g>
	<defs>
		<path id="SVGID_303_" d="M69.8,77.3H29.9V29.6l30.7-1.5c0,6,11.7,12,11.7,17.9C72.3,55.9,69.8,67.4,69.8,77.3z"/>
	</defs>
	<clipPath id="SVGID_224_">
		<use xlink:href="#SVGID_303_"  style="overflow:visible;"/>
	</clipPath>
	<g style="clip-path:url(#SVGID_224_);">
		<defs>
			<rect id="SVGID_305_" x="-257.6" y="-2075.9" width="1440" height="3155"/>
		</defs>
		<clipPath id="SVGID_226_">
			<use xlink:href="#SVGID_305_"  style="overflow:visible;"/>
		</clipPath>
		<rect x="28.9" y="27.2" style="clip-path:url(#SVGID_226_);fill:#FFFFFF;" width="44.4" height="51.2"/>
	</g>
</g>
<g>
	<defs>
		<path id="SVGID_307_" d="M58.6,69c0,0.7-0.6,1.2-1.2,0.7H36c-0.7,0.5-1.2,0-1.2-0.7c0-0.7,0.5-1.2,1.2-1.3h21.5
			C58.2,67.7,58.7,68.3,58.6,69L58.6,69z M63,63c0,0.7-0.6,1.2-1.2,0.9H36c-0.7,0.3-1.2-0.2-1.2-0.9c0-0.3,0.1-0.6,0.3-0.8
			c0.2-0.2,0.6-0.3,0.9-0.2h25.8c0.3-0.1,0.6,0,0.9,0.2C63,62.3,63.1,62.6,63,63L63,63z M63,57c0,0.3-0.1,0.6-0.3,0.8
			c-0.2,0.2-0.6,0.3-0.9,0.3H36c-0.3,0.1-0.6,0-0.9-0.3c-0.2-0.2-0.4-0.5-0.3-0.8c0-0.7,0.6-1.2,1.2-0.8h25.8
			C62.5,55.8,63.1,56.3,63,57L63,57z M35.9,50.3h25.9c0.7-0.5,1.2,0,1.2,0.7c0,0.7-0.6,1.2-1.2,1.3H36c-0.7-0.1-1.2-0.6-1.2-1.3
			C34.8,50.3,35.4,49.8,35.9,50.3L35.9,50.3z M59.4,33l5.8,5.7h-5.8V33z M69.3,77.3H29V30.2h26.5v13.5h13.8L69.3,77.3z M24.1,25.3
			v55.9h50.1V40.4L58.7,25.3H24.1z"/>
	</defs>
	<clipPath id="SVGID_228_">
		<use xlink:href="#SVGID_307_"  style="overflow:visible;"/>
	</clipPath>
	<g style="clip-path:url(#SVGID_228_);">
		<defs>
			<rect id="SVGID_309_" x="-257.6" y="-2075.9" width="1440" height="3155"/>
		</defs>
		<clipPath id="SVGID_230_">
			<use xlink:href="#SVGID_309_"  style="overflow:visible;"/>
		</clipPath>
		<rect x="23.1" y="24.3" style="clip-path:url(#SVGID_230_);fill:#566581;" width="52.1" height="57.9"/>
	</g>
</g>
<g>
	<defs>
		<path id="SVGID_311_" d="M18.6,9.3c-0.8-0.6-2-0.5-2.8,0.2l-8.5,8.7l-3.8-3.9c-0.7-0.8-1.9-0.9-2.8-0.2C0.3,14.5,0,15,0,15.6
			c0,0.6,0.2,1.1,0.6,1.6l5.6,5.7c0.6,0.6,1.5,0.6,2.1,0l10.4-10.6c0.4-0.4,0.6-1,0.6-1.5C19.3,10.2,19,9.7,18.6,9.3z"/>
	</defs>
	<clipPath id="SVGID_232_">
		<use xlink:href="#SVGID_311_"  style="overflow:visible;"/>
	</clipPath>
	<g style="clip-path:url(#SVGID_232_);">
		<defs>
			<rect id="SVGID_313_" x="-257.6" y="-2075.9" width="1440" height="3155"/>
		</defs>
		<clipPath id="SVGID_234_">
			<use xlink:href="#SVGID_313_"  style="overflow:visible;"/>
		</clipPath>
		<rect x="-1" y="7.6" style="clip-path:url(#SVGID_234_);fill:#DF3B42;" width="21.3" height="16.8"/>
	</g>
</g>
<g>
	<defs>
		<polygon id="SVGID_315_" points="102.2,47.7 115.8,47.7 115.8,53.2 129.2,46 115.8,38.8 115.8,44.3 102.2,44.3 		"/>
	</defs>
	<clipPath id="SVGID_236_">
		<use xlink:href="#SVGID_315_"  style="overflow:visible;"/>
	</clipPath>
	<g style="clip-path:url(#SVGID_236_);">
		<defs>
			<rect id="SVGID_317_" x="-257.6" y="-2075.9" width="1440" height="3155"/>
		</defs>
		<clipPath id="SVGID_238_">
			<use xlink:href="#SVGID_317_"  style="overflow:visible;"/>
		</clipPath>
		<rect x="101.2" y="37.8" style="clip-path:url(#SVGID_238_);fill:#566581;" width="29" height="16.5"/>
	</g>
</g>
<g>
	<defs>
		<path id="SVGID_319_" d="M235,60.2h-70.5c-2.4,0-2.4,0-2.4-2.4V16.6c0-2.7,0-2.7,3-2.7h69.9c2.4,0,2.6,0,2.6,2.4
			c0,13,0,28.8,0,41.7C237.4,59.6,237,60.2,235,60.2L235,60.2z M237.4,6h-74.9c-5.1,0-7.2,2.1-7.2,7.1v52.4c0,5,2.1,7.1,7,7.1h27.8
			v3.2c-0.2,1.6-1,3-2.4,3.8c-0.9,0.7-1.9,1.3-2.9,1.7c-0.9,0.4-1.8,0.8-2.7,1c-0.7,0.2-1.1,0.8-1.1,1.5v0.2c0,0.5,0.2,1,0.5,1.3
			c0.3,0.3,0.8,0.5,1.3,0.5h33.4c1,0,1.9-0.8,1.9-1.8c0-0.8-0.5-1.5-1.3-1.8c-0.8-0.3-1.6-0.6-2.4-1c-1-0.5-2-1-2.9-1.7
			c-1.4-0.8-2.2-2.3-2.4-3.8v-3.3h28.1c4.6,0,6.7-2.2,6.7-6.8V12.6c0.3-1.8-0.4-3.6-1.6-4.9C241,6.4,239.2,5.8,237.4,6z"/>
	</defs>
	<clipPath id="SVGID_240_">
		<use xlink:href="#SVGID_319_"  style="overflow:visible;"/>
	</clipPath>
	<g style="clip-path:url(#SVGID_240_);">
		<defs>
			<rect id="SVGID_321_" x="-257.6" y="-2075.9" width="1440" height="3155"/>
		</defs>
		<clipPath id="SVGID_242_">
			<use xlink:href="#SVGID_321_"  style="overflow:visible;"/>
		</clipPath>
		<rect x="154.3" y="4.8" style="clip-path:url(#SVGID_242_);fill:#566581;" width="90.9" height="82.2"/>
	</g>
</g>
<g>
	<defs>
		<path id="SVGID_323_" d="M-621.8,266.4c1.8,3.7,4.5,7.2,8.1,10.5c3.6,3.3,8.3,5.1,13.5,5.1c0,0,0,0,0.1,0l0.7,0
			c4.8,0,9.5-1.8,13.1-5.2c3.7-3.3,6.3-6.8,8.1-10.5c3.8-7.9,5.7-15.9,5.8-23.8l0-0.9c0-0.9,0-1.8-0.1-2.8
			c-0.9-9.3-6.2-16-15.2-19.4c-3.7-1.4-7.9-2.1-12.4-2.1c-4.4,0-8.5,0.8-12.3,2.2c-9,3.4-14.3,10.1-15.2,19.4
			c-0.1,0.9-0.1,1.9-0.1,2.8l0,0.9C-627.5,250.6-625.6,258.6-621.8,266.4z"/>
	</defs>
	<clipPath id="SVGID_244_">
		<use xlink:href="#SVGID_323_"  style="overflow:visible;"/>
	</clipPath>
	<g style="clip-path:url(#SVGID_244_);">
		<defs>
			<rect id="SVGID_325_" x="-1033.4" y="-1500.1" width="1440" height="2734"/>
		</defs>
		<clipPath id="SVGID_246_">
			<use xlink:href="#SVGID_325_"  style="overflow:visible;"/>
		</clipPath>
	</g>
</g>
<g>
	<defs>
		<path id="SVGID_335_" d="M-63.6,268.8c1.8,3.7,4.5,7.2,8.3,10.5c3.7,3.3,8.4,5.1,13.7,5.1c0,0,0,0,0.1,0l0.7,0
			c4.9,0,9.6-1.8,13.3-5.2c3.7-3.3,6.4-6.8,8.3-10.5c3.8-7.9,5.8-15.9,5.9-23.8l0-0.9c0-0.9,0-1.8-0.1-2.8
			c-0.9-9.3-6.3-16-15.5-19.4c-3.8-1.4-8-2.1-12.5-2.1c-4.5,0-8.6,0.8-12.5,2.2c-9.2,3.4-14.5,10.1-15.4,19.4
			c-0.1,0.9-0.1,1.9-0.1,2.8l0,0.9C-69.4,252.9-67.4,260.9-63.6,268.8z"/>
	</defs>
	<clipPath id="SVGID_248_">
		<use xlink:href="#SVGID_335_"  style="overflow:visible;"/>
	</clipPath>
	<g style="clip-path:url(#SVGID_248_);">
		<defs>
			<rect id="SVGID_337_" x="-1033.4" y="-1500.1" width="1440" height="2734"/>
		</defs>
		<clipPath id="SVGID_250_">
			<use xlink:href="#SVGID_337_"  style="overflow:visible;"/>
		</clipPath>
	</g>
</g>
<g>
	<defs>
		<path id="SVGID_339_" d="M10.4,305.5c-2-1.5-4.4-2.7-7-3.6c0,0-18.7-7-18.7-7c-3.9-1.5-7.9-1.9-11.7,0.8l-0.8,0.6
			c-1.1,1-1.8,2.1-2.4,3.1c-0.2,0.3-0.4,0.6-0.6,0.9l-10.7,14.8l-1.5-2c-3.7-5.1-7.3-10.2-11-15.3c-0.3-0.4-0.5-0.7-0.8-1.1
			c-1.4-1.6-2.9-2.6-4.6-3.2l-1.6-0.3l-5.9,1.5l-19.2,7.2c-2.8,0.9-5.2,2.2-7.2,3.7c-6.6,5-6.2,11.2-6.2,11.5l0,14.9
			c0.2,1.8,0.6,3.4,1.2,4.8c2.4,5.7,7.5,7.8,11.1,7.8H4.3c3.6,0,8.6-2,11-7.7c0.6-1.5,1-3.1,1.3-5.3l0-14
			C16.6,316.7,17,310.5,10.4,305.5"/>
	</defs>
	<clipPath id="SVGID_252_">
		<use xlink:href="#SVGID_339_"  style="overflow:visible;"/>
	</clipPath>
	<g style="clip-path:url(#SVGID_252_);">
		<defs>
			<rect id="SVGID_341_" x="-1033.4" y="-1500.1" width="1440" height="2734"/>
		</defs>
		<clipPath id="SVGID_254_">
			<use xlink:href="#SVGID_341_"  style="overflow:visible;"/>
		</clipPath>
	</g>
</g>
<g>
	<defs>
		<path id="SVGID_351_" d="M-426.6,195.7c1,0.8,2.1,1.1,3.3,1.1c1.6,0,3.2-0.7,4.2-2.1c22.8-29.5,57.2-46.4,94.3-46.4
			c33,0,63.9,13.5,86.4,37.2l-24.8-1.7c-3-0.2-5.5,2-5.7,5c-0.2,3,2,5.5,5,5.7l32.7,2.3c0.2,0,0.5,0,0.7,0c2.4,0,4.7-0.8,6.5-2.4
			c0,0,0.1,0,0.1-0.1c0,0,0,0,0,0c0.1,0,0.1-0.1,0.2-0.1c2.1-1.9,3.3-4.4,3.4-7.2l1.5-32.8c0.1-3-2.2-5.5-5.1-5.6
			c-3-0.1-5.5,2.2-5.6,5.1l-1.1,24.3c-24.5-25.9-58.2-40.5-94.2-40.5c-40.5,0-78,18.4-102.8,50.5
			C-429.4,190.5-428.9,193.9-426.6,195.7"/>
	</defs>
	<clipPath id="SVGID_256_">
		<use xlink:href="#SVGID_351_"  style="overflow:visible;"/>
	</clipPath>
	<g class="st127">
		<defs>
			<rect id="SVGID_353_" x="-1033.4" y="-1500.1" width="1440" height="2734"/>
		</defs>
		<clipPath id="SVGID_258_">
			<use xlink:href="#SVGID_353_"  style="overflow:visible;"/>
		</clipPath>
	</g>
</g>
<g>
	<defs>
		<path id="SVGID_355_" d="M-478.2,196.5c-2.7-4.9-6.3-9.2-10.6-12.6c-4.3-3.4-9.2-6-14.6-7.5c-14.2-4.1-29.2-0.4-40.1,9.7
			c-5.6,5.2-9.7,11.9-11.8,19.3c-2.9,10.4-1.8,21.3,3.1,31l0.8,1.6l-1.3,1.2c-0.3,0.2-0.6,0.5-1.1,0.9l-6.3,4.8
			c-0.9,0.7-1.3,1.6-1.2,2.5c0.1,0.5,0.4,2,4.3,3.2l0.3,0.1c3.3,0.9,6.3,1.4,9,1.5l0.8,0c0.5,0,1.1,0,1.6,0c1.7-0.1,3.3-0.3,5.1-0.5
			l0.9-0.1l0.8,0.5c3.6,2.5,7.7,4.4,12,5.6c14.2,4.1,29.2,0.4,40.1-9.7c5.6-5.2,9.7-11.9,11.8-19.3
			C-471.5,217.7-472.8,206.3-478.2,196.5 M-540.2,223.6c-3.7,0-6.6-3-6.6-6.7c0-3.7,3-6.6,6.6-6.6c3.7,0,6.6,3,6.6,6.6
			C-533.6,220.7-536.5,223.6-540.2,223.6 M-514.9,223.6c-3.7,0-6.6-3-6.6-6.7c0-3.7,3-6.6,6.6-6.6c3.7,0,6.6,3,6.6,6.6
			C-508.3,220.7-511.2,223.6-514.9,223.6 M-489.6,223.6c-3.7,0-6.6-3-6.6-6.7c0-3.7,3-6.6,6.6-6.6c3.7,0,6.6,3,6.6,6.6
			C-483,220.7-485.9,223.6-489.6,223.6"/>
	</defs>
	<clipPath id="SVGID_260_">
		<use xlink:href="#SVGID_355_"  style="overflow:visible;"/>
	</clipPath>
	<g class="st129">
		<defs>
			<rect id="SVGID_357_" x="-1033.4" y="-1500.1" width="1440" height="2734"/>
		</defs>
		<clipPath id="SVGID_262_">
			<use xlink:href="#SVGID_357_"  style="overflow:visible;"/>
		</clipPath>
	</g>
</g>
<g>
	<defs>
		<path id="SVGID_359_" d="M-168.1,228.6c2.1,7.4,6.2,14.1,11.8,19.3c10.9,10.1,25.9,13.8,40.1,9.7c4.3-1.2,8.3-3.1,12-5.6l0.8-0.5
			l0.9,0.1c1.8,0.3,3.4,0.5,5.1,0.5c0.6,0,1.1,0,1.6,0l0.8,0c2.7,0,5.8-0.5,9-1.5l0.3-0.1c4-1.2,4.2-2.7,4.3-3.2
			c0.2-1-0.2-1.8-1.2-2.5l-6.3-4.8c-0.5-0.3-0.8-0.6-1.1-0.9l-1.3-1.2l0.8-1.6c4.9-9.6,6-20.6,3.1-31c-2.1-7.4-6.2-14.1-11.8-19.3
			c-10.9-10.2-25.9-13.8-40.1-9.7c-5.4,1.5-10.3,4.1-14.6,7.5c-4.3,3.4-7.9,7.6-10.6,12.6C-169.9,206.3-171.2,217.7-168.1,228.6
			 M-109.1,217c0-3.7,3-6.6,6.6-6.6c3.7,0,6.6,3,6.6,6.6c0,3.7-3,6.7-6.6,6.7C-106.1,223.6-109.1,220.7-109.1,217 M-134.4,217
			c0-3.7,3-6.6,6.6-6.6c3.7,0,6.6,3,6.6,6.6c0,3.7-3,6.7-6.6,6.7C-131.4,223.6-134.4,220.7-134.4,217 M-159.7,217
			c0-3.7,3-6.6,6.6-6.6c3.7,0,6.6,3,6.6,6.6c0,3.7-3,6.7-6.6,6.7C-156.7,223.6-159.7,220.7-159.7,217"/>
	</defs>
	<clipPath id="SVGID_264_">
		<use xlink:href="#SVGID_359_"  style="overflow:visible;"/>
	</clipPath>
	<g class="st131">
		<defs>
			<rect id="SVGID_361_" x="-1033.4" y="-1500.1" width="1440" height="2734"/>
		</defs>
		<clipPath id="SVGID_266_">
			<use xlink:href="#SVGID_361_"  style="overflow:visible;"/>
		</clipPath>
	</g>
</g>
<g>
	<defs>
		<path id="SVGID_363_" d="M141.1,309.6c-1.9,2.7-4.1,5.2-6.6,7.4c-18.4,16.9-46.8,16.4-64.6-1.1c-17.8-17.5-18.8-45.8-2.3-64.6
			c16.5-18.7,44.8-21.2,64.4-5.7C151.5,261.1,155.5,289.2,141.1,309.6z M151.5,318.3c18.5-25.1,14.9-60.2-8.4-81.1
			c-23.3-20.8-58.5-20.6-81.5,0.5c-23,21.1-26.1,56.3-7.3,81.2c18.8,24.9,53.5,31.4,80.1,15l18.6,28.8c0.9,1.2,1.9,2.3,3.1,3.2
			c4.7,4.5,11.6,6,17.8,3.9c6.2-2.1,10.7-7.5,11.7-13.9c1-6.5-1.7-12.9-6.9-16.8L151.5,318.3z"/>
	</defs>
	<clipPath id="SVGID_268_">
		<use xlink:href="#SVGID_363_"  style="overflow:visible;"/>
	</clipPath>
	<g class="st133">
		<defs>
			<rect id="SVGID_365_" x="-294.9" y="-749.8" width="1440" height="1966"/>
		</defs>
		<clipPath id="SVGID_270_">
			<use xlink:href="#SVGID_365_"  style="overflow:visible;"/>
		</clipPath>
	</g>
</g>
<g>
	<defs>
		<path id="SVGID_367_" d="M91.3,274c1,1.9,2.3,3.6,4,5.1c1.8,1.6,4.1,2.5,6.5,2.5h0.4c2.4,0,4.6-0.9,6.4-2.5c1.6-1.4,3-3.2,4-5.1
			c1.8-3.6,2.7-7.5,2.8-11.5v-0.4c0-0.4,0-0.9,0-1.4c-0.3-4.3-3.3-8.1-7.4-9.4c-3.9-1.4-8.1-1.4-11.9,0c-4.1,1.3-7.1,5-7.4,9.3
			c0,0.4,0,0.9,0,1.3v0.4C88.6,266.5,89.5,270.4,91.3,274z"/>
	</defs>
	<clipPath id="SVGID_272_">
		<use xlink:href="#SVGID_367_"  style="overflow:visible;"/>
	</clipPath>
	<g style="clip-path:url(#SVGID_272_);">
		<defs>
			<rect id="SVGID_369_" x="-294.9" y="-749.8" width="1440" height="1966"/>
		</defs>
		<clipPath id="SVGID_274_">
			<use xlink:href="#SVGID_369_"  style="overflow:visible;"/>
		</clipPath>
	</g>
</g>
<g>
	<defs>
		<path id="SVGID_371_" d="M126.6,291.1c-1-0.8-2.1-1.4-3.3-1.8l-8.9-3.4c-1.8-0.9-3.9-0.7-5.6,0.5l-0.4,0.3
			c-0.4,0.4-0.8,0.9-1.1,1.5l-0.4,0.3l-5.1,7.2l-0.7-0.9c-1.8-2.5-3.6-5-5.2-7.5c-0.1-0.2-0.2-0.4-0.4-0.5c-0.6-0.7-1.3-1.3-2.2-1.5
			l-0.8-0.1l-2.8,0.7l-9.2,3.5c-1.2,0.4-2.4,1-3.4,1.8c-1.9,1.2-3,3.4-3,5.6v7.3c0.1,0.8,0.3,1.6,0.6,2.3c0.8,2.2,2.9,3.7,5.3,3.8
			h43.5c2.3,0,4.4-1.5,5.3-3.8c0.4-0.8,0.6-1.7,0.7-2.6v-6.8C129.6,294.6,128.5,292.4,126.6,291.1z"/>
	</defs>
	<clipPath id="SVGID_276_">
		<use xlink:href="#SVGID_371_"  style="overflow:visible;"/>
	</clipPath>
	<g class="st137">
		<defs>
			<rect id="SVGID_373_" x="-294.9" y="-749.8" width="1440" height="1966"/>
		</defs>
		<clipPath id="SVGID_278_">
			<use xlink:href="#SVGID_373_"  style="overflow:visible;"/>
		</clipPath>
	</g>
</g>
<g>
	<defs>
		<polygon id="SVGID_375_" points="219.7,292.5 244.8,292.5 244.8,303 269.7,289.1 244.8,275.3 244.8,285.8 219.7,285.8 		"/>
	</defs>
	<clipPath id="SVGID_280_">
		<use xlink:href="#SVGID_375_"  style="overflow:visible;"/>
	</clipPath>
	<g style="clip-path:url(#SVGID_280_);">
		<defs>
			<rect id="SVGID_377_" x="-294.9" y="-749.8" width="1440" height="1966"/>
		</defs>
		<clipPath id="SVGID_282_">
			<use xlink:href="#SVGID_377_"  style="overflow:visible;"/>
		</clipPath>
	</g>
</g>
<g>
	<defs>
		<path id="SVGID_379_" d="M383.3,224c-0.4,3.9,0,7.8,1.2,11.5c0.7,1.9,1.7,3.7,3,5.3c1.2,1.5,2.9,2.5,4.8,3l1,0.1
			c2.3,0.3,4.6-0.2,6.5-1.6c1.7-1.2,3.2-2.7,4.3-4.5c2.1-3.3,3.4-7,4-10.8v-0.5c0.1-0.4,0.1-0.8,0.1-1.3c0.3-4.1-1.9-7.9-5.6-9.8
			c-1.7-0.9-3.6-1.5-5.5-1.7c-1.9-0.2-3.8-0.1-5.7,0.3c-4,0.9-7.1,4.1-7.8,8.1c-0.1,0.4-0.2,0.8-0.2,1.3L383.3,224z"/>
	</defs>
	<clipPath id="SVGID_284_">
		<use xlink:href="#SVGID_379_"  style="overflow:visible;"/>
	</clipPath>
	<g style="clip-path:url(#SVGID_284_);">
		<defs>
			<rect id="SVGID_381_" x="-294.9" y="-749.8" width="1440" height="1966"/>
		</defs>
		<clipPath id="SVGID_286_">
			<use xlink:href="#SVGID_381_"  style="overflow:visible;"/>
		</clipPath>
	</g>
</g>
<g>
	<defs>
		<path id="SVGID_383_" d="M348.3,293c0.8,0.9,1.8,1.5,3,1.7c2.2,0.6,4.5-0.6,5.3-2.8c0.3-0.5,0.6-1,1-1.8c2.1-4,6.7-12.3,7.8-14.3
			c1.3-0.7,3.8-1.9,5.5-2.7c0,0.5,0.1,1,0.2,1.5c0.3,1.6,0.4,3.3,0.4,4.9c-0.3,2.8-1,5.4-2.2,7.9c-0.8,1.7-1.4,3.5-1.9,5.4
			c-1.8,6.7,0,13.9,4.8,18.9c7,7.4,17.4,18.1,18.8,19.4c0.1,0.1,0.2,0.2,0.3,0.4c0.5,1.1,2.7,6.7,2.7,6.7l9.9,24.6
			c0.7,1.8,2.3,3.1,4.2,3.5c0.9,0.2,1.9,0.2,2.8,0l0.8-0.2c2.8-0.8,4.5-3.6,4-6.5l-5.6-31.7c-0.3-1.4-0.8-2.7-1.6-3.8L408,323
			c-3.3-4.7-10.9-15.6-14.2-20.6c-0.1-0.5-0.1-1,0-1.5c1-4.2,2.2-8.6,3.8-13.9c0.4-1.5,1-3.1,1.5-4.6c2.5,3.6,7.2,9.9,9.2,11.2
			c2.6,1.5,5.6,0.3,7.7-0.8l3.4-1.9c3.9-2.1,9.7-5.3,11.9-6.4c2.9-1.2,4.2-4.6,3-7.5l-0.2-0.5c-1.2-2.9-4.6-4.3-7.5-3.1l-12.8,5.2
			c-2.4-5-5.2-9.8-8-14.4c-1-1.6-1.9-3.3-2.9-4.9c-4.5-6.9-12.7-10.4-20.8-8.7c-6.8,1.5-22.9,11.4-25.2,13.2
			c-1.8,1.2-3.2,2.9-4.2,4.9c-0.7,1-6.1,17-6.1,17.1C346.1,288.4,346.6,291,348.3,293z"/>
	</defs>
	<clipPath id="SVGID_288_">
		<use xlink:href="#SVGID_383_"  style="overflow:visible;"/>
	</clipPath>
	<g style="clip-path:url(#SVGID_288_);">
		<defs>
			<rect id="SVGID_385_" x="-294.9" y="-749.8" width="1440" height="1966"/>
		</defs>
		<clipPath id="SVGID_290_">
			<use xlink:href="#SVGID_385_"  style="overflow:visible;"/>
		</clipPath>
	</g>
</g>
<g>
	<defs>
		<path id="SVGID_387_" d="M326.9,340.2l32.1,14.1l1.1,0.3l3.3,0.8h0.4c0.7,0.2,1.5,0.3,2.3,0.3c3-0.1,5.9-1.6,7.5-4.2l2.5-3.6
			c1.5-2.1,3.3-4.7,5.1-7.3c0.7-1.1,1.5-2.1,2.1-3.2v-0.1c0.4-0.5,0.7-1.1,1-1.6l0.9-1.4c0,0,0-0.2,0.1-0.3l1.3-2.1l-4.3-4.3
			L369,313.7l-0.9,2.8c-2.1,6.4-4.5,14.2-6,17.8l-32.3-5.1c-2.8-0.4-5.6,1.3-6.4,4.1c-0.8,2.8,0.6,5.7,3.2,6.9L326.9,340.2z"/>
	</defs>
	<clipPath id="SVGID_292_">
		<use xlink:href="#SVGID_387_"  style="overflow:visible;"/>
	</clipPath>
	<g style="clip-path:url(#SVGID_292_);">
		<defs>
			<rect id="SVGID_389_" x="-294.9" y="-749.8" width="1440" height="1966"/>
		</defs>
		<clipPath id="SVGID_294_">
			<use xlink:href="#SVGID_389_"  style="overflow:visible;"/>
		</clipPath>
	</g>
</g>
<g>
	<defs>
		<path id="SVGID_391_" d="M351,303.7c-0.6-0.3-0.8-1-0.5-1.6l0.3-0.5c0.2-0.3,0.4-0.7,0.5-1c0.1-0.2,0-0.4-0.1-0.5l-6.6-3.7
			c-0.1-0.1-0.3-0.1-0.4,0c-0.2,0.3-0.4,0.6-0.6,1c0,0.2-0.2,0.4-0.3,0.6c-0.1,0.3-0.4,0.5-0.7,0.6c-0.3,0.1-0.6,0.1-0.9-0.1
			c-0.6-0.3-0.8-1-0.5-1.6c0.1-0.2,0.2-0.3,0.3-0.5c0.2-0.5,0.5-0.9,0.8-1.3c0.8-1.1,2.2-1.4,3.3-0.7c2.4,1.3,4.6,2.5,6.6,3.7
			c1.2,0.7,1.7,2.2,1.1,3.5c-0.2,0.4-0.4,0.7-0.6,1.1l-0.3,0.5C352.2,303.8,351.5,304,351,303.7z"/>
	</defs>
	<clipPath id="SVGID_296_">
		<use xlink:href="#SVGID_391_"  style="overflow:visible;"/>
	</clipPath>
	<g style="clip-path:url(#SVGID_296_);">
		<defs>
			<rect id="SVGID_393_" x="-294.9" y="-749.8" width="1440" height="1966"/>
		</defs>
		<clipPath id="SVGID_298_">
			<use xlink:href="#SVGID_393_"  style="overflow:visible;"/>
		</clipPath>
	</g>
</g>
<g>
	<defs>
		<circle id="SVGID_395_" cx="337.1" cy="316.8" r="2.2"/>
	</defs>
	<clipPath id="SVGID_300_">
		<use xlink:href="#SVGID_395_"  style="overflow:visible;"/>
	</clipPath>
	<g style="clip-path:url(#SVGID_300_);">
		<defs>
			<rect id="SVGID_397_" x="-294.9" y="-749.8" width="1440" height="1966"/>
		</defs>
		<clipPath id="SVGID_302_">
			<use xlink:href="#SVGID_397_"  style="overflow:visible;"/>
		</clipPath>
	</g>
</g>
<g>
	<defs>
		<path id="SVGID_399_" d="M354.7,322.4c-0.1,0.2-0.2,0.2-0.4,0.2c-0.6-0.1-1.1-0.2-1.7-0.4c-3.9-1.1-7.6-2.6-11.2-4.3
			c0.4-1.7-0.4-3.5-1.9-4.3c-1.5-0.9-3.4-0.6-4.7,0.6c-3.7-2.2-7-5-10-8.1l-0.1-0.2l-0.1-0.1l-0.4-0.5l4.9-8.8
			c0.4-0.7,1-1.2,1.7-1.4s1.5-0.1,2.2,0.3l25.4,14.1c1.4,0.8,1.9,2.5,1.1,4L354.7,322.4z"/>
	</defs>
	<clipPath id="SVGID_304_">
		<use xlink:href="#SVGID_399_"  style="overflow:visible;"/>
	</clipPath>
	<g class="st151">
		<defs>
			<rect id="SVGID_401_" x="-294.9" y="-749.8" width="1440" height="1966"/>
		</defs>
		<clipPath id="SVGID_306_">
			<use xlink:href="#SVGID_401_"  style="overflow:visible;"/>
		</clipPath>
	</g>
</g>
<g>
	<defs>
		<path id="SVGID_403_" d="M351.9,324l-4.6,8.5c-0.4,0.8-1.1,1.4-2,1.6c-0.9,0.2-1.8,0.1-2.5-0.3l-22.1-12.2c-1.6-0.9-2.2-3-1.3-4.6
			l4.8-8.6c2.9,2.9,6.1,5.5,9.6,7.6c-0.4,1.7,0.4,3.5,2,4.3c1.5,0.9,3.5,0.6,4.7-0.7C344,321.4,347.9,322.9,351.9,324z"/>
	</defs>
	<clipPath id="SVGID_308_">
		<use xlink:href="#SVGID_403_"  style="overflow:visible;"/>
	</clipPath>
	<g class="st153">
		<defs>
			<rect id="SVGID_405_" x="-294.9" y="-749.8" width="1440" height="1966"/>
		</defs>
		<clipPath id="SVGID_310_">
			<use xlink:href="#SVGID_405_"  style="overflow:visible;"/>
		</clipPath>
	</g>
</g>
<g>
	<defs>
		<path id="SVGID_407_" d="M324.2,305.7l-0.1-0.1L324.2,305.7z"/>
	</defs>
	<clipPath id="SVGID_312_">
		<use xlink:href="#SVGID_407_"  style="overflow:visible;"/>
	</clipPath>
	<g class="st155">
		<defs>
			<rect id="SVGID_409_" x="-294.9" y="-749.8" width="1440" height="1966"/>
		</defs>
		<clipPath id="SVGID_314_">
			<use xlink:href="#SVGID_409_"  style="overflow:visible;"/>
		</clipPath>
	</g>
</g>
<g>
	<defs>
		<polygon id="SVGID_411_" points="494.7,291.6 519.8,291.6 519.8,302.1 544.7,288.2 519.8,274.4 519.8,284.9 494.7,284.9 		"/>
	</defs>
	<clipPath id="SVGID_316_">
		<use xlink:href="#SVGID_411_"  style="overflow:visible;"/>
	</clipPath>
	<g class="st157">
		<defs>
			<rect id="SVGID_413_" x="-294.9" y="-749.8" width="1440" height="1966"/>
		</defs>
		<clipPath id="SVGID_318_">
			<use xlink:href="#SVGID_413_"  style="overflow:visible;"/>
		</clipPath>
	</g>
</g>
<g>
	<defs>
		<path id="SVGID_415_" d="M798.7,247.1H766v-6.9h32.7V247.1z M798.7,266.8H766v-7h32.7V266.8z M798.7,286.5H766v-6.9h32.7V286.5z
			 M798.7,306.1H766v-6.8h32.7V306.1z M798.7,325.8H766v-6.9h32.7V325.8z M676.2,265.8H636v-21.7h40.2V265.8z M676.2,300.6H636
			v-21.8h40.2V300.6z M676.2,335.5H636v-21.8h40.2V335.5z M799.9,223.9h-42.7v114.3h-10V147.6h-10.9v18.9l-60.1,33.8v23.5h-52.7
			c-4.6,0-8.3,3.7-8.3,8.3V353h192.8V232.1C808,227.6,804.4,223.9,799.9,223.9z"/>
	</defs>
	<clipPath id="SVGID_320_">
		<use xlink:href="#SVGID_415_"  style="overflow:visible;"/>
	</clipPath>
	<g class="st159">
		<defs>
			<rect id="SVGID_417_" x="-294.9" y="-749.8" width="1440" height="1966"/>
		</defs>
		<clipPath id="SVGID_322_">
			<use xlink:href="#SVGID_417_"  style="overflow:visible;"/>
		</clipPath>
	</g>
</g>
</svg>
