<?xml version="1.0" encoding="utf-8"?>
<!-- Generator: Adobe Illustrator 25.2.0, SVG Export Plug-In . SVG Version: 6.00 Build 0)  -->
<svg version="1.1" id="Layer_1" xmlns="http://www.w3.org/2000/svg" xmlns:xlink="http://www.w3.org/1999/xlink" x="0px" y="0px"
	 viewBox="0 0 53 52" style="enable-background:new 0 0 53 52;" xml:space="preserve">
<style type="text/css">
	.st0{clip-path:url(#SVGID_2_);}
	.st1{clip-path:url(#SVGID_4_);fill:#FFFFFF;}
	.st2{clip-path:url(#SVGID_6_);}
	.st3{clip-path:url(#SVGID_8_);fill:#FFFFFF;}
	.st4{clip-path:url(#SVGID_10_);}
	.st5{clip-path:url(#SVGID_12_);fill:#FFFFFF;}
	.st6{clip-path:url(#SVGID_14_);}
	.st7{clip-path:url(#SVGID_16_);fill:#FFFFFF;}
	.st8{clip-path:url(#SVGID_18_);}
	.st9{clip-path:url(#SVGID_20_);fill:#FFFFFF;}
	.st10{clip-path:url(#SVGID_22_);}
	.st11{clip-path:url(#SVGID_24_);fill:#FFFFFF;}
	.st12{clip-path:url(#SVGID_26_);}
	.st13{clip-path:url(#SVGID_28_);fill:#FFFFFF;}
</style>
<g>
	<g>
		<defs>
			<path id="SVGID_1_" d="M40.2,6.4L40.2,6.4c0-1.5-0.8-3-2-3.9c-0.9-0.7-2-1.1-3.1-1.1c-1.6,0-3,0-4.3,0c-2.9,0-5.7,0-9,0
				c-1.3,0-2.7,0.5-3.6,1.5c-1,0.9-1.5,2.2-1.5,3.6v15c0,0.2,0.1,0.4,0.3,0.5c0.1,0,0.1,0,0.2,0s0.3-0.1,0.4-0.2
				c0.4-0.4,1-1,1.5-1.5c0.8-0.8,1.7-1.7,2.3-2.3l0.1-0.1c0.1-0.1,0.2-0.1,0.4-0.1c2.2,0,4.3,0,6.5,0c0.5,0,1,0,1.4,0
				c1.3,0,2.3,0.1,3.8-0.4c1.8-0.5,3.4-1.7,4.6-3.2c0.5-0.7,1-1.5,1.3-2.3C40.4,10.1,40.3,8.3,40.2,6.4z M18.9,6.6
				c0-1,0.5-1.7,0.8-2c0.5-0.5,1.3-0.9,2-0.9l0,0c3.3,0,6.1,0,9,0c1.4,0,2.8,0,4.3,0c0.7,0,1.3,0.2,1.8,0.6C37.6,4.8,38,5.6,38,6.5
				c0,1.6,0.1,3.2-0.5,4.6c-0.3,0.6-0.6,1.2-1,1.8c-0.9,1.2-2.2,2.1-3.5,2.5c-1.2,0.4-1.9,0.3-3.1,0.3h-0.1c-0.4,0-0.9,0-1.5,0
				c-2.2,0-4.3,0-6.5,0c-0.7,0-1.4,0.3-1.9,0.8l-0.1,0.1c-0.3,0.3-0.6,0.6-0.9,0.9l-0.1,0.1v-11H18.9z"/>
		</defs>
		<use xlink:href="#SVGID_1_"  style="overflow:visible;fill:#FFFFFF;"/>
		<clipPath id="SVGID_2_">
			<use xlink:href="#SVGID_1_"  style="overflow:visible;"/>
		</clipPath>
		<g class="st0">
			<g>
				<defs>
					<rect id="SVGID_3_" x="16.7" y="1.5" width="23.6" height="20.7"/>
				</defs>
				<use xlink:href="#SVGID_3_"  style="overflow:visible;fill:#FFFFFF;"/>
				<clipPath id="SVGID_4_">
					<use xlink:href="#SVGID_3_"  style="overflow:visible;"/>
				</clipPath>
				<rect x="15.7" y="0.4" class="st1" width="25.7" height="22.7"/>
			</g>
		</g>
	</g>
</g>
<g>
	<g>
		<defs>
			<path id="SVGID_5_" d="M20.9,32.6c0.4,0.8,1,1.5,1.7,2.2c0.8,0.7,1.8,1.1,2.9,1.1l0,0h0.2c1,0,2-0.4,2.8-1.1
				c0.8-0.7,1.4-1.4,1.7-2.2c0.8-1.7,1.2-3.4,1.2-5.1v-0.2c0-0.2,0-0.4,0-0.6c-0.2-2-1.3-3.4-3.3-4.1c-0.8-0.3-1.7-0.4-2.6-0.5
				c-0.9,0-1.8,0.2-2.6,0.5c-1.9,0.7-3.1,2.1-3.3,4.1c0,0.2,0,0.4,0,0.6v0.2C19.6,29.2,20,30.9,20.9,32.6z"/>
		</defs>
		<use xlink:href="#SVGID_5_"  style="overflow:visible;fill:#FFFFFF;"/>
		<clipPath id="SVGID_6_">
			<use xlink:href="#SVGID_5_"  style="overflow:visible;"/>
		</clipPath>
		<g class="st2">
			<g>
				<defs>
					<rect id="SVGID_7_" x="-1212.3" y="-1393.8" width="1416.9" height="4376.5"/>
				</defs>
				<use xlink:href="#SVGID_7_"  style="overflow:visible;fill:#FFFFFF;"/>
				<clipPath id="SVGID_8_">
					<use xlink:href="#SVGID_7_"  style="overflow:visible;"/>
				</clipPath>
				<rect x="18.6" y="21.1" class="st3" width="13.8" height="15.7"/>
			</g>
		</g>
	</g>
</g>
<g>
	<g>
		<defs>
			<path id="SVGID_9_" d="M37.9,40.7c-0.4-0.3-1-0.6-1.6-0.8L32,38.3c-0.9-0.3-1.8-0.4-2.7,0.2l-0.2,0.1c-0.2,0.2-0.4,0.5-0.5,0.7
				c0,0.1-0.1,0.1-0.1,0.2L26,42.9l-0.3-0.5c-0.8-1.2-1.7-2.3-2.5-3.5c-0.1-0.1-0.1-0.2-0.2-0.3c-0.3-0.4-0.7-0.6-1.1-0.7l-0.4-0.1
				l-1.4,0.3l-4.4,1.7c-0.6,0.2-1.2,0.5-1.6,0.8c-1.5,1.2-1.4,2.6-1.4,2.6v3.4c0,0.4,0.1,0.8,0.3,1.1c0.5,1.3,1.7,1.8,2.5,1.8h20.9
				c0.8,0,2-0.5,2.5-1.8c0.1-0.3,0.2-0.7,0.3-1.2v-3.2C39.3,43.3,39.4,41.8,37.9,40.7"/>
		</defs>
		<use xlink:href="#SVGID_9_"  style="overflow:visible;fill:#FFFFFF;"/>
		<clipPath id="SVGID_10_">
			<use xlink:href="#SVGID_9_"  style="overflow:visible;"/>
		</clipPath>
		<g class="st4">
			<g>
				<defs>
					<rect id="SVGID_11_" x="-1212.3" y="-1393.8" width="1416.9" height="4376.5"/>
				</defs>
				<use xlink:href="#SVGID_11_"  style="overflow:visible;fill:#FFFFFF;"/>
				<clipPath id="SVGID_12_">
					<use xlink:href="#SVGID_11_"  style="overflow:visible;"/>
				</clipPath>
				<rect x="11.7" y="36.8" class="st5" width="28.7" height="13.8"/>
			</g>
		</g>
	</g>
</g>
<g>
	<g>
		<defs>
			<path id="SVGID_13_" d="M46.2,24.7c-0.1-1.6-1-2.7-2.4-3.2c-0.6-0.2-1.3-0.4-2-0.4s-1.4,0.1-2,0.4c-1.4,0.6-2.3,1.7-2.4,3.2
				c0,0.2,0,0.3,0,0.5v0.2c0,1.3,0.3,2.7,0.9,4c0.3,0.6,0.7,1.2,1.3,1.8c0.6,0.6,1.3,0.9,2.2,0.9l0,0h0.1c0.8,0,1.5-0.3,2.1-0.9
				s1-1.1,1.3-1.8c0.6-1.3,0.9-2.7,0.9-4v-0.2C46.2,25,46.2,24.9,46.2,24.7"/>
		</defs>
		<use xlink:href="#SVGID_13_"  style="overflow:visible;fill:#FFFFFF;"/>
		<clipPath id="SVGID_14_">
			<use xlink:href="#SVGID_13_"  style="overflow:visible;"/>
		</clipPath>
		<g class="st6">
			<g>
				<defs>
					<rect id="SVGID_15_" x="-1212.3" y="-1393.8" width="1416.9" height="4376.5"/>
				</defs>
				<use xlink:href="#SVGID_15_"  style="overflow:visible;fill:#FFFFFF;"/>
				<clipPath id="SVGID_16_">
					<use xlink:href="#SVGID_15_"  style="overflow:visible;"/>
				</clipPath>
				<rect x="36.3" y="20.2" class="st7" width="10.8" height="12.8"/>
			</g>
		</g>
	</g>
</g>
<g>
	<g>
		<defs>
			<path id="SVGID_17_" d="M53.1,40.5c0,0.4-0.1,0.7-0.2,0.9c-0.4,1-1.3,1.3-1.9,1.3h-9.1c-0.2-0.9-0.8-2.1-2.1-3.1l0,0
				c-0.6-0.5-1.4-0.9-2.2-1.2l-4.1-1.6c0.2-0.3,0.4-0.6,0.8-0.9c0.3-0.3,0.8-0.5,1.2-0.6l3.3-1.2l1-0.3h0.3c0.3,0.1,0.6,0.3,0.8,0.5
				c0.1,0.1,0.1,0.1,0.1,0.2c0.6,0.9,1.3,1.8,1.9,2.6l0.3,0.3l1.8-2.6c0,0,0.1-0.1,0.1-0.2c0.1-0.2,0.2-0.4,0.4-0.5l0.1-0.1
				c0.6-0.5,1.3-0.4,2-0.1l3.2,1.2c0.5,0.2,0.9,0.4,1.2,0.6c1.1,0.9,1.1,1.9,1.1,2.1L53.1,40.5z"/>
		</defs>
		<use xlink:href="#SVGID_17_"  style="overflow:visible;fill:#FFFFFF;"/>
		<clipPath id="SVGID_18_">
			<use xlink:href="#SVGID_17_"  style="overflow:visible;"/>
		</clipPath>
		<g class="st8">
			<g>
				<defs>
					<rect id="SVGID_19_" x="-1212.3" y="-1393.8" width="1416.9" height="4376.5"/>
				</defs>
				<use xlink:href="#SVGID_19_"  style="overflow:visible;fill:#FFFFFF;"/>
				<clipPath id="SVGID_20_">
					<use xlink:href="#SVGID_19_"  style="overflow:visible;"/>
				</clipPath>
				<rect x="32.4" y="32.9" class="st9" width="21.7" height="10.9"/>
			</g>
		</g>
	</g>
</g>
<g>
	<g>
		<defs>
			<path id="SVGID_21_" d="M14.7,24.7c-0.1-1.6-1-2.7-2.4-3.2c-0.6-0.2-1.3-0.4-2-0.4s-1.4,0.1-2,0.4c-1.4,0.6-2.3,1.7-2.4,3.2
				c0,0.2,0,0.3,0,0.5v0.2c0,1.3,0.3,2.7,0.9,4c0.3,0.6,0.7,1.2,1.3,1.8c0.6,0.6,1.3,0.9,2.2,0.9l0,0h0.1c0.8,0,1.5-0.3,2.1-0.9
				s1-1.1,1.3-1.8c0.6-1.3,0.9-2.7,0.9-4v-0.2C14.7,25,14.7,24.9,14.7,24.7"/>
		</defs>
		<use xlink:href="#SVGID_21_"  style="overflow:visible;fill:#FFFFFF;"/>
		<clipPath id="SVGID_22_">
			<use xlink:href="#SVGID_21_"  style="overflow:visible;"/>
		</clipPath>
		<g class="st10">
			<g>
				<defs>
					<rect id="SVGID_23_" x="-1212.3" y="-1393.8" width="1416.9" height="4376.5"/>
				</defs>
				<use xlink:href="#SVGID_23_"  style="overflow:visible;fill:#FFFFFF;"/>
				<clipPath id="SVGID_24_">
					<use xlink:href="#SVGID_23_"  style="overflow:visible;"/>
				</clipPath>
				<rect x="4.9" y="20.2" class="st11" width="10.8" height="12.8"/>
			</g>
		</g>
	</g>
</g>
<g>
	<g>
		<defs>
			<path id="SVGID_25_" d="M19.6,37l-4.1,1.5c-0.9,0.3-1.6,0.7-2.2,1.2c-1.3,1-1.9,2.1-2.1,3.1H2.1c-0.6,0-1.5-0.4-1.9-1.3
				C0,41.2,0,40.9-0.1,40.6V38c0-0.1-0.1-1.1,1.1-2c0.3-0.3,0.7-0.5,1.2-0.6l3.3-1.2l1-0.3h0.3c0.3,0.1,0.6,0.3,0.8,0.5
				c0.1,0.1,0.1,0.1,0.1,0.2c0.6,0.9,1.3,1.8,1.9,2.6l0.2,0.3l1.8-2.6c0,0,0.1-0.1,0.1-0.2c0.1-0.2,0.2-0.4,0.4-0.5l0.1-0.1
				c0.6-0.5,1.3-0.4,2-0.1l3.2,1.2c0.5,0.2,0.9,0.4,1.2,0.6C19.2,36.3,19.5,36.7,19.6,37"/>
		</defs>
		<use xlink:href="#SVGID_25_"  style="overflow:visible;fill:#FFFFFF;"/>
		<clipPath id="SVGID_26_">
			<use xlink:href="#SVGID_25_"  style="overflow:visible;"/>
		</clipPath>
		<g class="st12">
			<g>
				<defs>
					<rect id="SVGID_27_" x="-1212.3" y="-1393.8" width="1416.9" height="4376.5"/>
				</defs>
				<use xlink:href="#SVGID_27_"  style="overflow:visible;fill:#FFFFFF;"/>
				<clipPath id="SVGID_28_">
					<use xlink:href="#SVGID_27_"  style="overflow:visible;"/>
				</clipPath>
				<rect x="-1.1" y="32.9" class="st13" width="21.7" height="10.9"/>
			</g>
		</g>
	</g>
</g>
</svg>
