<?xml version="1.0" encoding="utf-8"?>
<!-- Generator: Adobe Illustrator 25.3.1, SVG Export Plug-In . SVG Version: 6.00 Build 0)  -->
<svg version="1.1" id="Layer_1" xmlns="http://www.w3.org/2000/svg" xmlns:xlink="http://www.w3.org/1999/xlink" x="0px" y="0px"
	 viewBox="0 0 53 52" style="enable-background:new 0 0 53 52;" xml:space="preserve">
<style type="text/css">
	.st0{clip-path:url(#SVGID_2_);}
	.st1{clip-path:url(#SVGID_4_);fill:#DF3A42;}
	.st2{clip-path:url(#SVGID_6_);enable-background:new    ;}
	.st3{clip-path:url(#SVGID_8_);}
	.st4{clip-path:url(#SVGID_10_);}
	.st5{clip-path:url(#SVGID_12_);fill:#133050;}
	.st6{clip-path:url(#SVGID_14_);}
	.st7{clip-path:url(#SVGID_16_);fill:#DF3A42;}
	.st8{clip-path:url(#SVGID_18_);}
	.st9{clip-path:url(#SVGID_20_);fill:#DF3A42;}
	.st10{clip-path:url(#SVGID_22_);}
	.st11{clip-path:url(#SVGID_24_);fill:#133050;}
	.st12{clip-path:url(#SVGID_26_);}
	.st13{clip-path:url(#SVGID_28_);fill:#DF3A42;}
	.st14{clip-path:url(#SVGID_30_);}
	.st15{clip-path:url(#SVGID_32_);fill:#133050;}
	.st16{clip-path:url(#SVGID_34_);}
	.st17{clip-path:url(#SVGID_36_);fill:#DF3A42;}
	.st18{clip-path:url(#SVGID_38_);}
	.st19{clip-path:url(#SVGID_40_);fill:#DF3A42;}
	.st20{clip-path:url(#SVGID_42_);}
	.st21{clip-path:url(#SVGID_44_);fill:#DF3A42;}
	.st22{clip-path:url(#SVGID_46_);enable-background:new    ;}
	.st23{clip-path:url(#SVGID_48_);}
	.st24{clip-path:url(#SVGID_50_);}
	.st25{clip-path:url(#SVGID_52_);fill:#133050;}
	.st26{clip-path:url(#SVGID_54_);}
	.st27{clip-path:url(#SVGID_56_);fill:#DF3A42;}
	.st28{clip-path:url(#SVGID_58_);}
	.st29{clip-path:url(#SVGID_60_);fill:#DF3A42;}
	.st30{clip-path:url(#SVGID_62_);}
	.st31{clip-path:url(#SVGID_64_);fill:#133050;}
	.st32{clip-path:url(#SVGID_66_);}
	.st33{clip-path:url(#SVGID_68_);fill:#133050;}
	.st34{clip-path:url(#SVGID_70_);}
	.st35{clip-path:url(#SVGID_72_);fill:#133050;}
	.st36{clip-path:url(#SVGID_74_);}
	.st37{clip-path:url(#SVGID_76_);fill:#133050;}
	.st38{clip-path:url(#SVGID_78_);enable-background:new    ;}
	.st39{clip-path:url(#SVGID_80_);}
	.st40{clip-path:url(#SVGID_82_);}
	.st41{clip-path:url(#SVGID_84_);fill:#DF3A42;}
	.st42{clip-path:url(#SVGID_86_);}
	.st43{clip-path:url(#SVGID_88_);fill:#566581;}
	.st44{clip-path:url(#SVGID_90_);fill:#418AC6;}
	.st45{clip-path:url(#SVGID_92_);}
	.st46{clip-path:url(#SVGID_94_);fill:#FFFFFF;}
	.st47{clip-path:url(#SVGID_96_);}
	.st48{clip-path:url(#SVGID_98_);fill:#566581;}
	.st49{clip-path:url(#SVGID_100_);fill:#418AC6;}
	.st50{clip-path:url(#SVGID_102_);}
	.st51{clip-path:url(#SVGID_104_);fill:#FFFFFF;}
	.st52{clip-path:url(#SVGID_106_);}
	.st53{clip-path:url(#SVGID_108_);fill:#566581;}
	.st54{clip-path:url(#SVGID_110_);}
	.st55{clip-path:url(#SVGID_112_);fill:#566581;}
	.st56{clip-path:url(#SVGID_114_);fill:#418AC6;}
	.st57{clip-path:url(#SVGID_116_);}
	.st58{clip-path:url(#SVGID_118_);fill:#FFFFFF;}
	.st59{clip-path:url(#SVGID_120_);}
	.st60{clip-path:url(#SVGID_122_);fill:#566581;}
	.st61{clip-path:url(#SVGID_124_);}
	.st62{clip-path:url(#SVGID_126_);fill:#566581;}
	.st63{clip-path:url(#SVGID_128_);}
	.st64{clip-path:url(#SVGID_130_);fill:#566581;}
	.st65{clip-path:url(#SVGID_132_);}
	.st66{clip-path:url(#SVGID_134_);fill:#566581;}
	.st67{clip-path:url(#SVGID_136_);}
	.st68{clip-path:url(#SVGID_138_);fill:#566581;}
	.st69{clip-path:url(#SVGID_140_);}
	.st70{clip-path:url(#SVGID_142_);fill:#566581;}
	.st71{clip-path:url(#SVGID_144_);}
	.st72{clip-path:url(#SVGID_146_);fill:#566581;}
	.st73{clip-path:url(#SVGID_148_);}
	.st74{clip-path:url(#SVGID_150_);fill:#566581;}
	.st75{clip-path:url(#SVGID_152_);}
	.st76{clip-path:url(#SVGID_154_);fill:#566581;}
	.st77{clip-path:url(#SVGID_156_);}
	.st78{clip-path:url(#SVGID_158_);fill:#778698;}
	.st79{clip-path:url(#SVGID_160_);}
	.st80{clip-path:url(#SVGID_162_);fill:#DF3B42;}
	.st81{clip-path:url(#SVGID_164_);fill:#418AC6;}
	.st82{clip-path:url(#SVGID_166_);}
	.st83{clip-path:url(#SVGID_168_);fill:#FFFFFF;}
	.st84{clip-path:url(#SVGID_170_);}
	.st85{clip-path:url(#SVGID_172_);fill:#566581;}
	.st86{clip-path:url(#SVGID_174_);}
	.st87{clip-path:url(#SVGID_176_);fill:#566581;}
	.st88{clip-path:url(#SVGID_178_);}
	.st89{clip-path:url(#SVGID_180_);fill:#566581;}
	.st90{clip-path:url(#SVGID_182_);}
	.st91{clip-path:url(#SVGID_184_);fill:#566581;}
	.st92{clip-path:url(#SVGID_186_);}
	.st93{clip-path:url(#SVGID_188_);fill:#566581;}
	.st94{clip-path:url(#SVGID_190_);}
	.st95{clip-path:url(#SVGID_192_);fill:#566581;}
	.st96{clip-path:url(#SVGID_194_);}
	.st97{clip-path:url(#SVGID_196_);fill:#566581;}
	.st98{clip-path:url(#SVGID_198_);}
	.st99{clip-path:url(#SVGID_200_);fill:#566581;}
	.st100{clip-path:url(#SVGID_202_);}
	.st101{clip-path:url(#SVGID_204_);fill:#566581;}
	.st102{clip-path:url(#SVGID_206_);}
	.st103{clip-path:url(#SVGID_208_);fill:#566581;}
	.st104{clip-path:url(#SVGID_210_);}
	.st105{clip-path:url(#SVGID_212_);fill:#566581;}
	.st106{clip-path:url(#SVGID_214_);}
	.st107{clip-path:url(#SVGID_216_);fill:#566581;}
	.st108{clip-path:url(#SVGID_218_);}
	.st109{clip-path:url(#SVGID_220_);fill:#566581;}
	.st110{clip-path:url(#SVGID_222_);}
	.st111{clip-path:url(#SVGID_224_);fill:#566581;}
	.st112{clip-path:url(#SVGID_226_);}
	.st113{clip-path:url(#SVGID_228_);fill:#566581;}
	.st114{clip-path:url(#SVGID_230_);}
	.st115{clip-path:url(#SVGID_232_);fill:#566581;}
	.st116{clip-path:url(#SVGID_234_);}
	.st117{clip-path:url(#SVGID_236_);fill:#566581;}
	.st118{clip-path:url(#SVGID_238_);}
	.st119{clip-path:url(#SVGID_240_);fill:#566581;}
	.st120{clip-path:url(#SVGID_242_);}
	.st121{clip-path:url(#SVGID_244_);fill:#566581;}
	.st122{clip-path:url(#SVGID_246_);}
	.st123{clip-path:url(#SVGID_248_);fill:#566581;}
	.st124{clip-path:url(#SVGID_250_);}
	.st125{clip-path:url(#SVGID_252_);fill:#566581;}
	.st126{clip-path:url(#SVGID_254_);fill:#418AC5;}
	.st127{clip-path:url(#SVGID_256_);}
	.st128{clip-path:url(#SVGID_258_);fill:#FEFEFE;}
	.st129{clip-path:url(#SVGID_260_);}
	.st130{clip-path:url(#SVGID_262_);fill:#566580;}
	.st131{clip-path:url(#SVGID_264_);}
	.st132{clip-path:url(#SVGID_266_);fill:#FEFEFE;}
	.st133{clip-path:url(#SVGID_268_);}
	.st134{clip-path:url(#SVGID_270_);fill:#566580;}
	.st135{clip-path:url(#SVGID_272_);enable-background:new    ;}
	.st136{clip-path:url(#SVGID_274_);}
	.st137{clip-path:url(#SVGID_276_);}
	.st138{clip-path:url(#SVGID_278_);fill:#566580;}
	.st139{clip-path:url(#SVGID_280_);enable-background:new    ;}
	.st140{clip-path:url(#SVGID_282_);}
	.st141{clip-path:url(#SVGID_284_);fill:#418AC5;}
	.st142{clip-path:url(#SVGID_286_);}
	.st143{clip-path:url(#SVGID_288_);fill:#FEFEFE;}
	.st144{clip-path:url(#SVGID_290_);}
	.st145{clip-path:url(#SVGID_292_);fill:#566580;}
	.st146{clip-path:url(#SVGID_294_);}
	.st147{clip-path:url(#SVGID_296_);fill:#FFFFFF;}
	.st148{clip-path:url(#SVGID_298_);}
	.st149{clip-path:url(#SVGID_300_);fill:#566581;}
	.st150{clip-path:url(#SVGID_302_);fill:#418AC6;}
	.st151{clip-path:url(#SVGID_304_);}
	.st152{clip-path:url(#SVGID_306_);fill:#FFFFFF;}
	.st153{clip-path:url(#SVGID_308_);}
	.st154{clip-path:url(#SVGID_310_);fill:#566581;}
	.st155{clip-path:url(#SVGID_312_);}
	.st156{clip-path:url(#SVGID_314_);fill:#DF3B42;}
	.st157{clip-path:url(#SVGID_316_);}
	.st158{clip-path:url(#SVGID_318_);fill:#566581;}
	.st159{clip-path:url(#SVGID_320_);}
	.st160{clip-path:url(#SVGID_322_);fill:#566581;}
	.st161{clip-path:url(#SVGID_324_);}
	.st162{clip-path:url(#SVGID_326_);fill:#1C75B9;}
	.st163{clip-path:url(#SVGID_328_);enable-background:new    ;}
	.st164{clip-path:url(#SVGID_330_);}
	.st165{clip-path:url(#SVGID_332_);}
	.st166{clip-path:url(#SVGID_334_);fill:#1C75B9;}
	.st167{clip-path:url(#SVGID_336_);}
	.st168{clip-path:url(#SVGID_338_);fill:#4A5A74;}
	.st169{clip-path:url(#SVGID_340_);}
	.st170{clip-path:url(#SVGID_342_);fill:#4A5A74;}
	.st171{clip-path:url(#SVGID_344_);enable-background:new    ;}
	.st172{clip-path:url(#SVGID_346_);}
	.st173{clip-path:url(#SVGID_348_);}
	.st174{clip-path:url(#SVGID_350_);fill:#4A5A74;}
	.st175{clip-path:url(#SVGID_352_);}
	.st176{clip-path:url(#SVGID_354_);fill:#1C75B9;}
	.st177{clip-path:url(#SVGID_356_);}
	.st178{clip-path:url(#SVGID_358_);fill:#1C75B9;}
	.st179{clip-path:url(#SVGID_360_);}
	.st180{clip-path:url(#SVGID_362_);fill:#4A5A74;}
	.st181{clip-path:url(#SVGID_364_);}
	.st182{clip-path:url(#SVGID_366_);fill:#566581;}
	.st183{clip-path:url(#SVGID_368_);}
	.st184{clip-path:url(#SVGID_370_);fill:#1D75B9;}
	.st185{clip-path:url(#SVGID_372_);}
	.st186{clip-path:url(#SVGID_374_);fill:#1D75B9;}
	.st187{clip-path:url(#SVGID_376_);}
	.st188{clip-path:url(#SVGID_378_);fill:#4B5A74;}
	.st189{clip-path:url(#SVGID_380_);}
	.st190{clip-path:url(#SVGID_382_);fill:#566581;}
	.st191{clip-path:url(#SVGID_384_);}
	.st192{clip-path:url(#SVGID_386_);fill:#566581;}
	.st193{clip-path:url(#SVGID_388_);}
	.st194{clip-path:url(#SVGID_390_);fill:#566581;}
	.st195{clip-path:url(#SVGID_392_);}
	.st196{clip-path:url(#SVGID_394_);fill:#1D75B9;}
	.st197{clip-path:url(#SVGID_396_);}
	.st198{clip-path:url(#SVGID_398_);fill:#1D75B9;}
	.st199{clip-path:url(#SVGID_400_);}
	.st200{clip-path:url(#SVGID_402_);fill:#1D75B9;}
	.st201{clip-path:url(#SVGID_404_);}
	.st202{clip-path:url(#SVGID_406_);fill:#1D75B9;}
	.st203{clip-path:url(#SVGID_408_);}
	.st204{clip-path:url(#SVGID_410_);fill:#1D75B9;}
	.st205{clip-path:url(#SVGID_412_);}
	.st206{clip-path:url(#SVGID_414_);fill:#4B5A74;}
	.st207{clip-path:url(#SVGID_416_);}
	.st208{clip-path:url(#SVGID_418_);fill:#1D75B9;}
</style>
<g>
	<defs>
		<path id="SVGID_1_" d="M-255.8,35.4L-255.8,35.4c0-0.1,0-0.3,0-0.4v-2.4c0-5.7-4.5-10.5-10.2-10.6c-5.7,0.1-10.2,4.9-10.2,10.6V35
			c0,0.1,0,0.2,0,0.3v0c-0.2,0.1-0.4,0.3-0.4,0.5v2.6c0,0.2,0.2,0.5,0.4,0.5v0c0,0.1,0,0.2,0,0.3v0.1h0c0.2,1,1.1,1.8,2.2,1.8h0.5
			c0.6,0,1.1-0.5,1.1-1.1v-5.9c0-0.6-0.5-1.1-1.1-1.1h-0.5c-0.3,0-0.5,0.1-0.8,0.2v-0.6c0-4.9,3.9-9.1,8.8-9.2
			c4.9,0.1,8.8,4.2,8.8,9.2v0.6c-0.2-0.1-0.5-0.2-0.8-0.2h-0.5c-0.6,0-1.1,0.5-1.1,1.1v5.9c0,0.6,0.5,1.1,1.1,1.1h0.5
			c1.1,0,2-0.8,2.2-1.8h0v-0.1c0-0.1,0-0.2,0-0.3v0c0.2-0.1,0.4-0.3,0.4-0.5v-2.6C-255.4,35.6-255.5,35.4-255.8,35.4"/>
	</defs>
	<clipPath id="SVGID_2_">
		<use xlink:href="#SVGID_1_"  style="overflow:visible;"/>
	</clipPath>
	<g class="st0">
		<defs>
			<rect id="SVGID_3_" x="-463.5" y="-1366.6" width="1387.6" height="4286.3"/>
		</defs>
		<clipPath id="SVGID_4_">
			<use xlink:href="#SVGID_3_"  style="overflow:visible;"/>
		</clipPath>
	</g>
</g>
<g>
	<defs>
		<path id="SVGID_13_" d="M-181.8,29.4c-0.3,0-0.6,0-0.8-0.1c-3-0.5-5.1-3.3-4.6-6.3c0.2-1.3,0.9-2.5,1.9-3.4c1.2-1,2.8-1.5,4.4-1.3
			c3,0.4,5.1,3.3,4.6,6.3c-0.2,1.3-0.9,2.5-1.9,3.4C-179.2,28.9-180.5,29.4-181.8,29.4 M-181.8,19.3c-1.1,0-2.1,0.4-3,1.1
			c-0.8,0.7-1.4,1.7-1.6,2.8c-0.4,2.5,1.3,4.8,3.8,5.2c1.3,0.2,2.6-0.2,3.6-1c0.8-0.7,1.4-1.7,1.6-2.8c0.4-2.5-1.3-4.8-3.8-5.2
			C-181.3,19.4-181.5,19.3-181.8,19.3"/>
	</defs>
	<use xlink:href="#SVGID_13_"  style="overflow:visible;fill-rule:evenodd;clip-rule:evenodd;fill:#DF3A42;"/>
	<clipPath id="SVGID_6_">
		<use xlink:href="#SVGID_13_"  style="overflow:visible;"/>
	</clipPath>
	<g style="clip-path:url(#SVGID_6_);">
		<defs>
			<rect id="SVGID_15_" x="-542.9" y="-1043.4" width="1056" height="3261.8"/>
		</defs>
		<use xlink:href="#SVGID_15_"  style="overflow:visible;fill:#DF3A42;"/>
		<clipPath id="SVGID_8_">
			<use xlink:href="#SVGID_15_"  style="overflow:visible;"/>
		</clipPath>
	</g>
</g>
<g>
	<defs>
		<path id="SVGID_17_" d="M-168.7,24.1C-168.7,24.1-168.7,24.1-168.7,24.1c-0.5-0.2-0.9-0.4-1.2-0.7c-0.7-0.6-1-1.3-1.3-2
			c-0.2-0.5-0.4-1-0.6-1.4c-0.2-0.6-0.5-1.1-0.7-1.7c-0.2-0.5-0.3-0.9-0.4-1.3c-0.2-0.8,0-1.6,0.3-2.2c0,0,0,0,0,0
			c0-0.2-0.1-0.4-0.3-0.6c-0.6-0.5-1.2-1-1.7-1.4c0,0-0.1-0.1-0.3-0.1c-0.1,0-0.2-0.1-0.3-0.1c-0.6,0.6-1.5,0.9-2.5,0.9
			c-0.4,0-0.7-0.1-1-0.2c-0.2,0-0.4-0.1-0.6-0.1c-0.4-0.1-0.8-0.1-1.2-0.1c-0.6-0.1-1.2-0.1-1.8-0.2c-1.2-0.2-2.1-0.7-2.6-1.7
			c0,0,0,0,0,0c-0.2-0.1-0.4-0.1-1,0.1c-0.6,0.2-1.1,0.4-1.5,0.6c-0.3,0.1-0.5,0.3-0.7,0.6c0,0,0,0.1,0,0.1c0.1,0.3,0.1,0.5,0.1,0.8
			c-0.1,1.2-0.7,2.1-1.2,2.8c-0.7,0.8-1.3,1.6-1.9,2.4c-0.1,0.1-0.2,0.2-0.2,0.3c-0.3,0.4-0.8,0.9-1.5,1.2c-0.4,0.2-0.9,0.3-1.4,0.3
			c-0.1,0-0.1,0-0.1,0l0,0c-0.1,0.1-0.2,0.2-0.2,0.3c-0.2,0.8-0.3,1.6-0.4,2.3c0,0.2,0.1,0.5,0.1,0.7c0,0.1,0.1,0.1,0.1,0.2
			c0.4,0.1,0.8,0.4,1.2,0.7c0.7,0.6,1,1.4,1.3,2c0.2,0.5,0.4,1,0.6,1.5c0.2,0.5,0.4,1.1,0.6,1.6c0.2,0.5,0.3,0.9,0.4,1.2
			c0.2,0.8,0,1.6-0.3,2.2c0.1,0.2,0.1,0.4,0.2,0.4c0.6,0.7,1.3,1.2,2.1,1.7c0.1,0,0.1,0.1,0.2,0.1c0.2,0,0.2,0,0.2,0c0,0,0,0,0,0
			c0.3-0.3,0.7-0.5,1.2-0.7c0.8-0.2,1.6-0.1,2.2,0.1c0.6,0.1,1.3,0.2,1.9,0.3c0.4,0.1,0.7,0.1,1.1,0.2c0.1,0,0.2,0,0.4,0.1
			c0.4,0.1,0.9,0.1,1.4,0.3c0.6,0.2,1.1,0.6,1.4,1.1c0,0.1,0.1,0.1,0.2,0.2c0,0,0.1,0,0.1,0c0.3,0,0.5-0.1,0.7-0.1
			c0.6-0.2,1.2-0.4,1.6-0.6c0.3-0.1,0.5-0.4,0.7-0.6c-0.1-0.4-0.1-0.7,0-1c0.1-1,0.6-1.7,1.1-2.3c0.3-0.4,0.6-0.7,0.8-1.1
			c0.4-0.5,0.8-1.1,1.3-1.6l0,0c0.4-0.5,1-1,1.3-1.3c0.4-0.4,1-0.6,1.7-0.6c0,0,0,0,0,0c0.1-0.1,0.2-0.3,0.3-0.4
			c0.3-0.7,0.3-1.4,0.4-2.2C-168.6,24.7-168.6,24.4-168.7,24.1 M-174.4,25c-0.6,4.1-4.4,7-8.5,6.3c-4.1-0.6-6.9-4.5-6.3-8.6
			c0.6-4.1,4.4-6.9,8.5-6.3C-176.6,17.1-173.8,20.9-174.4,25"/>
	</defs>
	<use xlink:href="#SVGID_17_"  style="overflow:visible;fill-rule:evenodd;clip-rule:evenodd;fill:#DF3A42;"/>
	<clipPath id="SVGID_10_">
		<use xlink:href="#SVGID_17_"  style="overflow:visible;"/>
	</clipPath>
	<g class="st4">
		<defs>
			<rect id="SVGID_19_" x="-543.3" y="-1043.4" width="1056" height="3261.8"/>
		</defs>
		<use xlink:href="#SVGID_19_"  style="overflow:visible;fill:#DF3A42;"/>
		<clipPath id="SVGID_12_">
			<use xlink:href="#SVGID_19_"  style="overflow:visible;"/>
		</clipPath>
	</g>
</g>
<g>
	<defs>
		<path id="SVGID_21_" d="M-180.3,5.1c0.1-2.6-2.1-4.4-4.4-4.3c-7.8,0-15.6,0-23.5,0c-2.6,0-4.3,1.7-4.3,4.3V38c0,2.2,0,4.5,0,6.8
			c0,2.8,2.1,4.5,4.5,4.4c7.8-0.1,15.6,0,23.4,0c2.4,0,4.4-1.8,4.4-4.4c0-2.2,0-4.4,0-6.5c-0.1-0.2-0.4-0.3-0.6-0.4
			c-0.4-0.1-0.7-0.2-1.1-0.2l-1.6-0.3c-0.2,0-0.4-0.1-0.6-0.1v3.4h-24.5v-34h24.5v1.9l0.1,0.1l0.2,0.4c0.2,0.4,0.6,0.8,1.6,0.9
			c0.6,0.1,1.3,0.2,1.9,0.2c0,0,0.1,0,0.1,0V8.5C-180.3,7.4-180.4,6.3-180.3,5.1 M-196.5,42.4c1.4,0,2.6,1.2,2.6,2.5
			c0,1.4-1.2,2.6-2.6,2.6c-1.4,0-2.6-1.2-2.6-2.6C-199.1,43.6-197.9,42.4-196.5,42.4"/>
	</defs>
	<use xlink:href="#SVGID_21_"  style="overflow:visible;fill-rule:evenodd;clip-rule:evenodd;fill:#133050;"/>
	<clipPath id="SVGID_14_">
		<use xlink:href="#SVGID_21_"  style="overflow:visible;"/>
	</clipPath>
	<g class="st6">
		<defs>
			<rect id="SVGID_23_" x="-543.3" y="-1043.4" width="1056" height="3261.8"/>
		</defs>
		<use xlink:href="#SVGID_23_"  style="overflow:visible;fill:#133050;"/>
		<clipPath id="SVGID_16_">
			<use xlink:href="#SVGID_23_"  style="overflow:visible;"/>
		</clipPath>
	</g>
</g>
<g>
	<defs>
		<path id="SVGID_25_" d="M-120.5,19.8c0.1-1.8,1-2.9,2.4-2.9c0.5,0,1.1,0.2,1.6,0.5c1.4,0.9,2.9,1.8,4.3,2.7
			c0.6,0.4,1.2,0.8,1.7,1.1l0.5,0.3c0.6,0.4,1.3,0.8,1.8,1.2c0.3,0.2,0.6,0.5,0.9,0.8c1.1,1.2,1.1,2.7,0.1,3.9
			c-0.3,0.3-0.5,0.5-0.9,0.8c-2.2,1.4-4.3,2.7-6.4,4.1l-1.7,1.1c-0.1,0.1-0.2,0.1-0.3,0.2c-0.5,0.3-1.1,0.5-1.5,0.5
			c-1.4,0-2.4-1.2-2.4-3c-0.1-1.3,0-2.6,0-3.8v-1.6v-0.5v-1v-0.2C-120.5,22.4-120.5,21.1-120.5,19.8"/>
	</defs>
	<clipPath id="SVGID_18_">
		<use xlink:href="#SVGID_25_"  style="overflow:visible;"/>
	</clipPath>
	<g class="st8">
		<defs>
			<rect id="SVGID_27_" x="-842.5" y="-1416.2" width="1440" height="4448"/>
		</defs>
		<clipPath id="SVGID_20_">
			<use xlink:href="#SVGID_27_"  style="overflow:visible;"/>
		</clipPath>
	</g>
</g>
<g>
	<defs>
		<path id="SVGID_29_" d="M-116.6,3.8c-11.1,0-20.1,9.1-20.1,20.4c0,0.3,0,1.2,0,2.3c0,0.1,0,0.1,0,0.2c-0.1,0-0.3,0.1-0.4,0.1
			c-0.8,0.2-1.7,0.4-2.4,0.8c-0.6,0.4-1.1,0.9-1.4,1.5c-0.9,1.8-0.9,3.9-1.2,5.8c-0.3,2.2-0.5,4.5-0.5,6.8c0,4.5,3.5,7.8,7.9,8
			c4.4-0.3,7.9-3.5,7.9-8c0-2.3-0.2-4.5-0.5-6.8c-0.3-1.9-0.3-4-1.2-5.8c-0.8-1.7-2.5-2.1-4.2-2.5c0-0.1,0-0.2,0-0.3
			c0-1.1,0-2,0-2.3c0-9,7.2-16.3,16-16.3c8.8,0,16,7.3,16,16.3c0,9-7.2,16.3-16,16.3c-0.4,0-2.6,0-4.1-0.1c-1.1,0-2,0.9-2.1,2
			c0,1.1,0.9,2.1,2,2.1c2.5,0,3.9,0.1,4.2,0.1c11.1,0,20.1-9.1,20.1-20.4C-96.5,13-105.5,3.8-116.6,3.8 M-132.9,35.7
			c0,0.9-0.7,1.4-1.8,1.5c-0.9,0.1-1.6-0.4-1.7-1.2c0-0.8,0-1.7,0-2.5c0-0.8,0.1-1.7,0.1-2.5c0.1-0.9,0.9-1.4,1.9-1.3
			c1,0.1,1.4,0.6,1.5,1.5c0,0,0,0.1,0,0.1c0,0.7,0,1.5,0,2.2C-132.9,34.1-132.8,34.9-132.9,35.7"/>
	</defs>
	<clipPath id="SVGID_22_">
		<use xlink:href="#SVGID_29_"  style="overflow:visible;"/>
	</clipPath>
	<g class="st10">
		<defs>
			<rect id="SVGID_31_" x="-842.5" y="-1416.2" width="1440" height="4448"/>
		</defs>
		<clipPath id="SVGID_24_">
			<use xlink:href="#SVGID_31_"  style="overflow:visible;"/>
		</clipPath>
	</g>
</g>
<g>
	<defs>
		<path id="SVGID_33_" d="M-35.5,22c1.6,0,3,1.5,3,3c0.1,1.5-1.4,3-3,3c-1.6,0-3-1.4-3-3C-38.5,23.3-37.1,22-35.5,22"/>
	</defs>
	<clipPath id="SVGID_26_">
		<use xlink:href="#SVGID_33_"  style="overflow:visible;"/>
	</clipPath>
	<g class="st12">
		<defs>
			<rect id="SVGID_35_" x="-1036.5" y="-1421" width="1440" height="4448"/>
		</defs>
		<clipPath id="SVGID_28_">
			<use xlink:href="#SVGID_35_"  style="overflow:visible;"/>
		</clipPath>
	</g>
</g>
<g>
	<defs>
		<path id="SVGID_37_" d="M-49.5,24.9c0-1.6,1.4-2.9,2.9-2.9c1.8,0,3.1,1.2,3.1,2.9c-0.1,1.8-1.4,3.1-3.1,3.1
			C-48.2,28-49.6,26.6-49.5,24.9"/>
	</defs>
	<clipPath id="SVGID_30_">
		<use xlink:href="#SVGID_37_"  style="overflow:visible;"/>
	</clipPath>
	<g class="st14">
		<defs>
			<rect id="SVGID_39_" x="-1036.5" y="-1421" width="1440" height="4448"/>
		</defs>
		<clipPath id="SVGID_32_">
			<use xlink:href="#SVGID_39_"  style="overflow:visible;"/>
		</clipPath>
	</g>
</g>
<g>
	<defs>
		<path id="SVGID_41_" d="M-56.5,22c1.6,0,3,1.5,3,3c0.1,1.5-1.4,3-3,3c-1.6,0-3-1.4-3-3C-59.5,23.3-58.1,22-56.5,22"/>
	</defs>
	<clipPath id="SVGID_34_">
		<use xlink:href="#SVGID_41_"  style="overflow:visible;"/>
	</clipPath>
	<g class="st16">
		<defs>
			<rect id="SVGID_43_" x="-1036.5" y="-1421" width="1440" height="4448"/>
		</defs>
		<clipPath id="SVGID_36_">
			<use xlink:href="#SVGID_43_"  style="overflow:visible;"/>
		</clipPath>
	</g>
</g>
<g>
	<defs>
		<path id="SVGID_53_" d="M20.9,32.6c0.4,0.8,1,1.5,1.7,2.2c0.8,0.7,1.8,1.1,2.9,1.1c0,0,0,0,0,0l0.2,0c1,0,2-0.4,2.8-1.1
			c0.8-0.7,1.4-1.4,1.7-2.2c0.8-1.7,1.2-3.4,1.2-5.1l0-0.2c0-0.2,0-0.4,0-0.6c-0.2-2-1.3-3.4-3.3-4.1c-0.8-0.3-1.7-0.4-2.6-0.5
			c-0.9,0-1.8,0.2-2.6,0.5c-1.9,0.7-3.1,2.1-3.3,4.1c0,0.2,0,0.4,0,0.6l0,0.2C19.6,29.2,20,30.9,20.9,32.6z"/>
	</defs>
	<clipPath id="SVGID_38_">
		<use xlink:href="#SVGID_53_"  style="overflow:visible;"/>
	</clipPath>
	<g class="st18">
		<defs>
			<rect id="SVGID_55_" x="-1212.3" y="-1393.8" width="1416.9" height="4376.5"/>
		</defs>
		<clipPath id="SVGID_40_">
			<use xlink:href="#SVGID_55_"  style="overflow:visible;"/>
		</clipPath>
		<rect x="18.6" y="21.1" class="st19" width="13.8" height="15.7"/>
	</g>
</g>
<g>
	<defs>
		<path id="SVGID_57_" d="M37.9,40.7c-0.4-0.3-1-0.6-1.6-0.8c0,0-4.3-1.6-4.3-1.6c-0.9-0.3-1.8-0.4-2.7,0.2l-0.2,0.1
			c-0.2,0.2-0.4,0.5-0.5,0.7c0,0.1-0.1,0.1-0.1,0.2L26,42.9l-0.3-0.5c-0.8-1.2-1.7-2.3-2.5-3.5c-0.1-0.1-0.1-0.2-0.2-0.3
			c-0.3-0.4-0.7-0.6-1.1-0.7l-0.4-0.1l-1.4,0.3l-4.4,1.7c-0.6,0.2-1.2,0.5-1.6,0.8c-1.5,1.2-1.4,2.6-1.4,2.6l0,3.4
			c0,0.4,0.1,0.8,0.3,1.1c0.5,1.3,1.7,1.8,2.5,1.8h20.9c0.8,0,2-0.5,2.5-1.8c0.1-0.3,0.2-0.7,0.3-1.2l0-3.2
			C39.3,43.3,39.4,41.8,37.9,40.7"/>
	</defs>
	<clipPath id="SVGID_42_">
		<use xlink:href="#SVGID_57_"  style="overflow:visible;"/>
	</clipPath>
	<g class="st20">
		<defs>
			<rect id="SVGID_59_" x="-1212.3" y="-1393.8" width="1416.9" height="4376.5"/>
		</defs>
		<clipPath id="SVGID_44_">
			<use xlink:href="#SVGID_59_"  style="overflow:visible;"/>
		</clipPath>
		<rect x="11.7" y="36.8" class="st21" width="28.7" height="13.8"/>
	</g>
</g>
<g>
	<defs>
		<path id="SVGID_61_" d="M46.2,24.7c-0.1-1.6-1-2.7-2.4-3.2c-0.6-0.2-1.3-0.4-2-0.4c-0.7,0-1.4,0.1-2,0.4c-1.4,0.6-2.3,1.7-2.4,3.2
			c0,0.2,0,0.3,0,0.5l0,0.2c0,1.3,0.3,2.7,0.9,4c0.3,0.6,0.7,1.2,1.3,1.8c0.6,0.6,1.3,0.9,2.2,0.9h0l0.1,0c0.8,0,1.5-0.3,2.1-0.9
			c0.6-0.6,1-1.1,1.3-1.8c0.6-1.3,0.9-2.7,0.9-4l0-0.2C46.2,25,46.2,24.9,46.2,24.7"/>
	</defs>
	<clipPath id="SVGID_46_">
		<use xlink:href="#SVGID_61_"  style="overflow:visible;"/>
	</clipPath>
	<g style="clip-path:url(#SVGID_46_);">
		<defs>
			<rect id="SVGID_63_" x="-1212.3" y="-1393.8" width="1416.9" height="4376.5"/>
		</defs>
		<clipPath id="SVGID_48_">
			<use xlink:href="#SVGID_63_"  style="overflow:visible;"/>
		</clipPath>
		<rect x="36.3" y="20.2" style="clip-path:url(#SVGID_48_);fill:#133050;" width="10.8" height="12.8"/>
	</g>
</g>
<g>
	<defs>
		<path id="SVGID_65_" d="M53.1,40.5c0,0.4-0.1,0.7-0.2,0.9c-0.4,1-1.3,1.3-1.9,1.3h-9.1c-0.2-0.9-0.8-2.1-2.1-3.1h0
			c-0.6-0.5-1.4-0.9-2.2-1.2l-4.1-1.6c0.2-0.3,0.4-0.6,0.8-0.9c0.3-0.3,0.8-0.5,1.2-0.6l3.3-1.2l1-0.3l0.3,0
			c0.3,0.1,0.6,0.3,0.8,0.5c0.1,0.1,0.1,0.1,0.1,0.2c0.6,0.9,1.3,1.8,1.9,2.6l0.3,0.3l1.8-2.6c0,0,0.1-0.1,0.1-0.2
			c0.1-0.2,0.2-0.4,0.4-0.5l0.1-0.1c0.6-0.5,1.3-0.4,2-0.1c0,0,3.2,1.2,3.2,1.2c0.5,0.2,0.9,0.4,1.2,0.6c1.1,0.9,1.1,1.9,1.1,2.1
			L53.1,40.5z"/>
	</defs>
	<clipPath id="SVGID_50_">
		<use xlink:href="#SVGID_65_"  style="overflow:visible;"/>
	</clipPath>
	<g class="st24">
		<defs>
			<rect id="SVGID_67_" x="-1212.3" y="-1393.8" width="1416.9" height="4376.5"/>
		</defs>
		<clipPath id="SVGID_52_">
			<use xlink:href="#SVGID_67_"  style="overflow:visible;"/>
		</clipPath>
		<rect x="32.4" y="32.9" class="st25" width="21.7" height="10.9"/>
	</g>
</g>
<g>
	<defs>
		<path id="SVGID_69_" d="M14.7,24.7c-0.1-1.6-1-2.7-2.4-3.2c-0.6-0.2-1.3-0.4-2-0.4c-0.7,0-1.4,0.1-2,0.4c-1.4,0.6-2.3,1.7-2.4,3.2
			c0,0.2,0,0.3,0,0.5v0.2c0,1.3,0.3,2.7,0.9,4c0.3,0.6,0.7,1.2,1.3,1.8c0.6,0.6,1.3,0.9,2.2,0.9h0l0.1,0c0.8,0,1.5-0.3,2.1-0.9
			c0.6-0.6,1-1.1,1.3-1.8c0.6-1.3,0.9-2.7,0.9-4v-0.2C14.7,25,14.7,24.9,14.7,24.7"/>
	</defs>
	<clipPath id="SVGID_54_">
		<use xlink:href="#SVGID_69_"  style="overflow:visible;"/>
	</clipPath>
	<g class="st26">
		<defs>
			<rect id="SVGID_71_" x="-1212.3" y="-1393.8" width="1416.9" height="4376.5"/>
		</defs>
		<clipPath id="SVGID_56_">
			<use xlink:href="#SVGID_71_"  style="overflow:visible;"/>
		</clipPath>
		<rect x="4.9" y="20.2" style="clip-path:url(#SVGID_56_);fill:#133050;" width="10.8" height="12.8"/>
	</g>
</g>
<g>
	<defs>
		<path id="SVGID_73_" d="M19.6,37l-4.1,1.5c-0.9,0.3-1.6,0.7-2.2,1.2c-1.3,1-1.9,2.1-2.1,3.1H2.1c-0.6,0-1.5-0.4-1.9-1.3
			C0,41.2,0,40.9-0.1,40.6l0-2.6c0-0.1-0.1-1.1,1.1-2c0.3-0.3,0.7-0.5,1.2-0.6l3.3-1.2l1-0.3l0.3,0c0.3,0.1,0.6,0.3,0.8,0.5
			c0.1,0.1,0.1,0.1,0.1,0.2c0.6,0.9,1.3,1.8,1.9,2.6l0.2,0.3l1.8-2.6c0,0,0.1-0.1,0.1-0.2c0.1-0.2,0.2-0.4,0.4-0.5l0.1-0.1
			c0.6-0.5,1.3-0.4,2-0.1c0,0,3.2,1.2,3.2,1.2c0.5,0.2,0.9,0.4,1.2,0.6C19.2,36.3,19.5,36.7,19.6,37"/>
	</defs>
	<clipPath id="SVGID_58_">
		<use xlink:href="#SVGID_73_"  style="overflow:visible;"/>
	</clipPath>
	<g class="st28">
		<defs>
			<rect id="SVGID_75_" x="-1212.3" y="-1393.8" width="1416.9" height="4376.5"/>
		</defs>
		<clipPath id="SVGID_60_">
			<use xlink:href="#SVGID_75_"  style="overflow:visible;"/>
		</clipPath>
		<rect x="-1.1" y="32.9" style="clip-path:url(#SVGID_60_);fill:#133050;" width="21.7" height="10.9"/>
	</g>
</g>
<g>
	<defs>
		<rect id="SVGID_77_" x="16.7" y="1.5" width="23.6" height="20.7"/>
	</defs>
	<clipPath id="SVGID_62_">
		<use xlink:href="#SVGID_77_"  style="overflow:visible;"/>
	</clipPath>
	<g style="clip-path:url(#SVGID_62_);enable-background:new    ;">
		<g>
			<defs>
				<rect id="SVGID_79_" x="16.7" y="0.5" width="24.6" height="21.6"/>
			</defs>
			<clipPath id="SVGID_64_">
				<use xlink:href="#SVGID_79_"  style="overflow:visible;"/>
			</clipPath>
			<g style="clip-path:url(#SVGID_64_);">
				<defs>
					<path id="SVGID_81_" d="M40.2,6.4L40.2,6.4c0-1.5-0.8-3-2-3.9c-0.9-0.7-2-1.1-3.1-1.1c-1.6,0-3,0-4.3,0c-2.9,0-5.7,0-9,0
						c-1.3,0-2.7,0.5-3.6,1.5c-1,0.9-1.5,2.2-1.5,3.6v15c0,0.2,0.1,0.4,0.3,0.5c0.1,0,0.1,0,0.2,0c0.1,0,0.3-0.1,0.4-0.2
						c0.4-0.4,1-1,1.5-1.5c0.8-0.8,1.7-1.7,2.3-2.3l0.1-0.1c0.1-0.1,0.2-0.1,0.4-0.1c2.2,0,4.3,0,6.5,0c0.5,0,1,0,1.4,0
						c1.3,0,2.3,0.1,3.8-0.4c1.8-0.5,3.4-1.7,4.6-3.2c0.5-0.7,1-1.5,1.3-2.3C40.4,10.1,40.3,8.3,40.2,6.4z M18.9,6.6
						c0-1,0.5-1.7,0.8-2c0.5-0.5,1.3-0.9,2-0.9h0c3.3,0,6.1,0,9,0c1.4,0,2.8,0,4.3,0c0.7,0,1.3,0.2,1.8,0.6C37.6,4.8,38,5.6,38,6.5
						c0,1.6,0.1,3.2-0.5,4.6c-0.3,0.6-0.6,1.2-1,1.8c-0.9,1.2-2.2,2.1-3.5,2.5c-1.2,0.4-1.9,0.3-3.1,0.3l-0.1,0c-0.4,0-0.9,0-1.5,0
						c-2.2,0-4.3,0-6.5,0c-0.7,0-1.4,0.3-1.9,0.8l-0.1,0.1c-0.3,0.3-0.6,0.6-0.9,0.9l-0.1,0.1V6.6z"/>
				</defs>
				<clipPath id="SVGID_66_">
					<use xlink:href="#SVGID_81_"  style="overflow:visible;"/>
				</clipPath>
				<g class="st32">
					<defs>
						<rect id="SVGID_83_" x="16.7" y="1.5" width="23.6" height="20.7"/>
					</defs>
					<clipPath id="SVGID_68_">
						<use xlink:href="#SVGID_83_"  style="overflow:visible;"/>
					</clipPath>
					<rect x="15.7" y="0.4" style="clip-path:url(#SVGID_68_);fill:#DF3A42;" width="25.7" height="22.7"/>
				</g>
			</g>
		</g>
	</g>
</g>
<g>
	<defs>
		<polygon id="SVGID_85_" points="-200.1,119.7 -187.1,119.7 -187.1,124.9 -174.1,118.1 -187.1,111.4 -187.1,116.5 -200.1,116.5 		
			"/>
	</defs>
	<clipPath id="SVGID_70_">
		<use xlink:href="#SVGID_85_"  style="overflow:visible;"/>
	</clipPath>
	<g class="st34">
		<defs>
			<rect id="SVGID_87_" x="-513.3" y="-1037.9" width="1440" height="2150"/>
		</defs>
		<clipPath id="SVGID_72_">
			<use xlink:href="#SVGID_87_"  style="overflow:visible;"/>
		</clipPath>
	</g>
</g>
<g>
	<defs>
		<path id="SVGID_91_" d="M-89.5,145.4h-48.1v-58l37-1.8c0,7.3,14.1,14.5,14.1,21.7C-86.5,119.4-89.5,133.3-89.5,145.4z"/>
	</defs>
	<clipPath id="SVGID_74_">
		<use xlink:href="#SVGID_91_"  style="overflow:visible;"/>
	</clipPath>
	<g class="st36">
		<defs>
			<rect id="SVGID_93_" x="-513.3" y="-1037.9" width="1440" height="2150"/>
		</defs>
		<clipPath id="SVGID_76_">
			<use xlink:href="#SVGID_93_"  style="overflow:visible;"/>
		</clipPath>
	</g>
</g>
<g>
	<defs>
		<path id="SVGID_95_" d="M-100.4,135.2c0,0.8-0.7,1.5-1.5,0.8H-128c-0.8,0.6-1.5,0-1.5-0.8c0-0.8,0.7-1.5,1.5-1.5h26
			C-101.2,133.7-100.5,134.4-100.4,135.2z M-95.4,127.9c0,0.8-0.7,1.5-1.5,1.1H-128c-0.8,0.4-1.5-0.3-1.5-1.1c0-0.4,0.1-0.7,0.4-1
			c0.3-0.3,0.7-0.4,1-0.3h31.3c0.4-0.1,0.8,0,1.1,0.3c0.3,0.3,0.5,0.6,0.4,1H-95.4z M-95.4,120.6c0,0.4-0.1,0.8-0.4,1
			c-0.3,0.3-0.7,0.4-1.1,0.3H-128c-0.4,0.1-0.8-0.1-1-0.3c-0.3-0.3-0.4-0.6-0.4-1c0-0.8,0.7-1.5,1.5-1h31.3c0.8-0.3,1.5,0.2,1.5,1
			H-95.4z M-128.1,112.5h31.4c0.8-0.7,1.5,0,1.5,0.8c0,0.8-0.7,1.5-1.5,1.6H-128c-0.8-0.1-1.4-0.8-1.5-1.6c0-0.8,0.7-1.5,1.5-0.8
			H-128.1z M-99.6,91.3l7.1,7h-7.1V91.3z M-87.7,145.5h-48.8V87.7h32.2v16.5h16.7V145.5z M-142.5,81.8v68.5h60.8v-49.9l-18.7-18.5
			H-142.5z"/>
	</defs>
	<clipPath id="SVGID_78_">
		<use xlink:href="#SVGID_95_"  style="overflow:visible;"/>
	</clipPath>
	<g style="clip-path:url(#SVGID_78_);">
		<defs>
			<rect id="SVGID_97_" x="-513.3" y="-1037.9" width="1440" height="2150"/>
		</defs>
		<clipPath id="SVGID_80_">
			<use xlink:href="#SVGID_97_"  style="overflow:visible;"/>
		</clipPath>
	</g>
</g>
<g>
	<defs>
		<path id="SVGID_101_" d="M-226.6,145.4h-48.1v-58l37-1.8c0,7.3,14.1,14.5,14.1,21.7C-223.6,119.4-226.6,133.3-226.6,145.4z"/>
	</defs>
	<clipPath id="SVGID_82_">
		<use xlink:href="#SVGID_101_"  style="overflow:visible;"/>
	</clipPath>
	<g class="st40">
		<defs>
			<rect id="SVGID_103_" x="-513.3" y="-1037.9" width="1440" height="2150"/>
		</defs>
		<clipPath id="SVGID_84_">
			<use xlink:href="#SVGID_103_"  style="overflow:visible;"/>
		</clipPath>
	</g>
</g>
<g>
	<defs>
		<path id="SVGID_105_" d="M-237.6,135.2c0,0.8-0.7,1.5-1.5,0.8h-26.1c-0.8,0.6-1.5,0-1.5-0.8c0-0.8,0.7-1.5,1.5-1.5h26
			C-238.3,133.7-237.6,134.4-237.6,135.2z M-232.5,127.9c0,0.8-0.7,1.5-1.5,1.1h-31.2c-0.8,0.4-1.5-0.3-1.5-1.1c0-0.4,0.1-0.7,0.4-1
			c0.3-0.3,0.7-0.4,1-0.3h31.3c0.4-0.1,0.8,0,1.1,0.3s0.5,0.6,0.4,1H-232.5z M-232.5,120.6c0,0.4-0.1,0.8-0.4,1
			c-0.3,0.3-0.7,0.4-1.1,0.3h-31.2c-0.4,0.1-0.8-0.1-1-0.3c-0.3-0.3-0.4-0.6-0.4-1c0-0.8,0.7-1.5,1.5-1h31.3c0.8-0.3,1.5,0.2,1.5,1
			H-232.5z M-265.3,112.5h31.4c0.8-0.7,1.5,0,1.5,0.8c0,0.8-0.7,1.5-1.5,1.6h-31.3c-0.8-0.1-1.4-0.8-1.5-1.6c0-0.8,0.7-1.5,1.5-0.8
			H-265.3z M-236.7,91.3l7.1,7h-7.1V91.3z M-224.8,145.5h-48.8V87.7h32.2v16.5h16.7V145.5z M-279.6,81.8v68.5h60.8v-49.9l-18.7-18.5
			H-279.6z"/>
	</defs>
	<clipPath id="SVGID_86_">
		<use xlink:href="#SVGID_105_"  style="overflow:visible;"/>
	</clipPath>
	<g class="st42">
		<defs>
			<rect id="SVGID_107_" x="-513.3" y="-1037.9" width="1440" height="2150"/>
		</defs>
		<clipPath id="SVGID_88_">
			<use xlink:href="#SVGID_107_"  style="overflow:visible;"/>
		</clipPath>
	</g>
</g>
<g>
	<defs>
		<polygon id="SVGID_109_" points="39.2,119.4 52.2,119.4 52.2,124.5 65.2,117.7 52.2,111 52.2,116.1 39.2,116.1 		"/>
	</defs>
	<clipPath id="SVGID_90_">
		<use xlink:href="#SVGID_109_"  style="overflow:visible;"/>
	</clipPath>
	<g style="clip-path:url(#SVGID_90_);">
		<defs>
			<rect id="SVGID_111_" x="-641" y="-1038.4" width="1440" height="2150"/>
		</defs>
		<clipPath id="SVGID_92_">
			<use xlink:href="#SVGID_111_"  style="overflow:visible;"/>
		</clipPath>
	</g>
</g>
<g>
	<defs>
		<path id="SVGID_115_" d="M12.7,145h-48.1v-58l37-1.8c0,7.3,14.1,14.5,14.1,21.7C15.7,119,12.7,133,12.7,145z"/>
	</defs>
	<clipPath id="SVGID_94_">
		<use xlink:href="#SVGID_115_"  style="overflow:visible;"/>
	</clipPath>
	<g style="clip-path:url(#SVGID_94_);">
		<defs>
			<rect id="SVGID_117_" x="-641" y="-1038.4" width="1440" height="2150"/>
		</defs>
		<clipPath id="SVGID_96_">
			<use xlink:href="#SVGID_117_"  style="overflow:visible;"/>
		</clipPath>
	</g>
</g>
<g>
	<defs>
		<path id="SVGID_119_" d="M1.7,134.9c0,0.8-0.7,1.5-1.5,0.8h-26.1c-0.8,0.6-1.5,0-1.5-0.8c0-0.8,0.7-1.5,1.5-1.5h26
			C1,133.3,1.7,134,1.7,134.9z M6.8,127.5c0,0.8-0.7,1.5-1.5,1.1h-31.2c-0.8,0.4-1.5-0.3-1.5-1.1c0-0.4,0.1-0.7,0.4-1
			c0.3-0.3,0.7-0.4,1-0.3H5.4c0.4-0.1,0.8,0,1.1,0.3c0.3,0.3,0.5,0.6,0.4,1H6.8z M6.8,120.2c0,0.4-0.1,0.8-0.4,1
			c-0.3,0.3-0.7,0.4-1.1,0.3h-31.2c-0.4,0.1-0.8-0.1-1-0.3c-0.3-0.3-0.4-0.6-0.4-1c0-0.8,0.7-1.5,1.5-1H5.4c0.8-0.3,1.5,0.2,1.5,1
			H6.8z M-26,112.1H5.4c0.8-0.7,1.5,0,1.5,0.8c0,0.8-0.7,1.5-1.5,1.6h-31.3c-0.8-0.1-1.4-0.8-1.5-1.6c0-0.8,0.7-1.5,1.5-0.8H-26z
			 M2.6,90.9l7.1,7H2.6V90.9z M14.5,145.1h-48.8V87.3h32.2v16.5h16.7V145.1z M-40.3,81.4v68.5h60.8V99.9L1.7,81.4H-40.3z"/>
	</defs>
	<clipPath id="SVGID_98_">
		<use xlink:href="#SVGID_119_"  style="overflow:visible;"/>
	</clipPath>
	<g style="clip-path:url(#SVGID_98_);">
		<defs>
			<rect id="SVGID_121_" x="-641" y="-1038.4" width="1440" height="2150"/>
		</defs>
		<clipPath id="SVGID_100_">
			<use xlink:href="#SVGID_121_"  style="overflow:visible;"/>
		</clipPath>
	</g>
</g>
<g>
	<defs>
		<path id="SVGID_123_" d="M111.2,81.2c0.1-2.5,2-4.4,4.4-4.4h0.2c2.4,0,4.4,2,4.4,4.4v0.4h-9.1V81.2z M104.6,93.9h22.1
			c1.8-0.1,3.3-1.3,3.8-3c0.1-0.2,0.1-0.5,0.1-0.8v-4.9c0-0.3-0.1-0.5-0.1-0.8c-0.1-0.4-0.3-0.8-0.6-1.2c-0.5-0.8-1.3-1.4-2.2-1.6
			c-0.3-0.1-0.7-0.1-1.1-0.1h-2.4v-0.4c-0.1-4.7-3.8-8.5-8.4-8.5h-0.1c-2.2,0-4.3,0.9-5.9,2.5c-1.6,1.6-2.6,3.7-2.6,6v0.4h-2.4
			c-0.4,0-0.7,0.1-1.1,0.2c-0.9,0.3-1.7,0.8-2.2,1.6c-0.3,0.3-0.5,0.7-0.6,1.1c-0.1,0.3-0.1,0.5-0.2,0.8v4.8c0,0.3,0.1,0.5,0.2,0.8
			C101.4,92.6,102.9,93.8,104.6,93.9z"/>
	</defs>
	<clipPath id="SVGID_102_">
		<use xlink:href="#SVGID_123_"  style="overflow:visible;"/>
	</clipPath>
	<g class="st50">
		<defs>
			<rect id="SVGID_125_" x="-641" y="-1038.4" width="1440" height="2150"/>
		</defs>
		<clipPath id="SVGID_104_">
			<use xlink:href="#SVGID_125_"  style="overflow:visible;"/>
		</clipPath>
	</g>
</g>
<g>
	<defs>
		<path id="SVGID_127_" d="M147,131.5v-0.8c0-1.8,0-3.8,0-5.6c0-4.5,0-0.7,0-5.2v-2.2c0-6.7,0-13.9,0-20.9c0.3-4.7-2.3-9.1-6.6-11.2
			c-1.7-0.9-3.6-1.3-5.5-1.3h-1.2v5.5h0.3c0.8,0,1.4,0,2,0c3,0.2,5.3,2.5,5.6,5.4c0.2,2.8,0.2,5.6,0.2,8.2v35.1
			c0.1,1.5-0.1,3.1-0.7,4.5c-1,2.1-3.2,3.5-5.6,3.4H96c-2.4,0.1-4.6-1.3-5.6-3.4c-0.6-1.4-0.9-3-0.7-4.5v-35c0-2.5,0-5.4,0.2-8.2
			c0.2-2.9,2.6-5.2,5.6-5.4c0.6,0,1.2,0,2,0h0.3v-5.5h-1.2c-1.9-0.1-3.8,0.3-5.5,1.2c-4.3,2.2-6.8,6.6-6.6,11.2c0,7,0,14.2,0,21v2.2
			c0,4.5,0,0.8,0,5.2c0,1.9,0,3.8,0,5.6v0.8c0,5.3,0,3.8,0,9.2c0.2,6.1,5.3,11,11.5,11.1h19h1.4h19c3,0,5.9-1.2,8.1-3.3
			c2.2-2,3.4-4.8,3.5-7.8C147.1,135.2,147,136.8,147,131.5z"/>
	</defs>
	<clipPath id="SVGID_106_">
		<use xlink:href="#SVGID_127_"  style="overflow:visible;"/>
	</clipPath>
	<g class="st52">
		<defs>
			<rect id="SVGID_129_" x="-641" y="-1038.4" width="1440" height="2150"/>
		</defs>
		<clipPath id="SVGID_108_">
			<use xlink:href="#SVGID_129_"  style="overflow:visible;"/>
		</clipPath>
	</g>
</g>
<g>
	<defs>
		<path id="SVGID_131_" d="M130.4,116h-15.8c-0.7,0-1.2,0.6-1.2,1.4c0,0.8,0.6,1.4,1.2,1.4h15.8c0.7,0,1.2-0.6,1.2-1.4
			C131.6,116.7,131,116,130.4,116z"/>
	</defs>
	<clipPath id="SVGID_110_">
		<use xlink:href="#SVGID_131_"  style="overflow:visible;"/>
	</clipPath>
	<g class="st54">
		<defs>
			<rect id="SVGID_133_" x="-641" y="-1038.4" width="1440" height="2150"/>
		</defs>
		<clipPath id="SVGID_112_">
			<use xlink:href="#SVGID_133_"  style="overflow:visible;"/>
		</clipPath>
	</g>
</g>
<g>
	<defs>
		<path id="SVGID_135_" d="M130.4,131.5h-15.8c-0.7,0-1.2,0.6-1.2,1.4s0.6,1.4,1.2,1.4h15.8c0.7,0,1.2-0.6,1.2-1.4
			S131,131.5,130.4,131.5z"/>
	</defs>
	<clipPath id="SVGID_114_">
		<use xlink:href="#SVGID_135_"  style="overflow:visible;"/>
	</clipPath>
	<g style="clip-path:url(#SVGID_114_);">
		<defs>
			<rect id="SVGID_137_" x="-641" y="-1038.4" width="1440" height="2150"/>
		</defs>
		<clipPath id="SVGID_116_">
			<use xlink:href="#SVGID_137_"  style="overflow:visible;"/>
		</clipPath>
	</g>
</g>
<g>
	<defs>
		<path id="SVGID_139_" d="M101.9,108.7c0.7,0.7,1.8,0.7,2.5,0l3.7-4c0.3-0.3,0.5-0.8,0.4-1.2s-0.4-0.8-0.8-0.9
			c-0.4-0.1-0.9,0-1.1,0.4l-3.3,3.6l-1.2-1.4c-0.3-0.4-0.7-0.6-1.2-0.5c-0.4,0.1-0.8,0.5-0.9,1c-0.1,0.5,0.1,1,0.4,1.3L101.9,108.7z
			"/>
	</defs>
	<clipPath id="SVGID_118_">
		<use xlink:href="#SVGID_139_"  style="overflow:visible;"/>
	</clipPath>
	<g style="clip-path:url(#SVGID_118_);">
		<defs>
			<rect id="SVGID_141_" x="-641" y="-1038.4" width="1440" height="2150"/>
		</defs>
		<clipPath id="SVGID_120_">
			<use xlink:href="#SVGID_141_"  style="overflow:visible;"/>
		</clipPath>
	</g>
</g>
<g>
	<defs>
		<path id="SVGID_143_" d="M101.2,130.1h4.8v4.8h-4.8V130.1z M98.8,137.3h9.6v-9.6h-9.6V137.3z"/>
	</defs>
	<clipPath id="SVGID_122_">
		<use xlink:href="#SVGID_143_"  style="overflow:visible;"/>
	</clipPath>
	<g style="clip-path:url(#SVGID_122_);">
		<defs>
			<rect id="SVGID_145_" x="-641" y="-1038.4" width="1440" height="2150"/>
		</defs>
		<clipPath id="SVGID_124_">
			<use xlink:href="#SVGID_145_"  style="overflow:visible;"/>
		</clipPath>
	</g>
</g>
<g>
	<defs>
		<path id="SVGID_147_" d="M114.5,105.4c-0.7,0-1.2,0.6-1.2,1.4c0,0.8,0.6,1.4,1.2,1.4h15.8c0.7,0,1.2-0.6,1.2-1.4
			c0-0.8-0.6-1.4-1.2-1.4H114.5z"/>
	</defs>
	<clipPath id="SVGID_126_">
		<use xlink:href="#SVGID_147_"  style="overflow:visible;"/>
	</clipPath>
	<g style="clip-path:url(#SVGID_126_);">
		<defs>
			<rect id="SVGID_149_" x="-641" y="-1038.4" width="1440" height="2150"/>
		</defs>
		<clipPath id="SVGID_128_">
			<use xlink:href="#SVGID_149_"  style="overflow:visible;"/>
		</clipPath>
	</g>
</g>
<g>
	<defs>
		<path id="SVGID_151_" d="M101.9,121.2c0.7,0.8,1.8,0.8,2.6,0l3.8-4.2c0.3-0.5,0.2-1.2-0.2-1.6c-0.4-0.4-1-0.5-1.5-0.1l-3.4,3.7
			l-1.3-1.3c-0.3-0.4-0.8-0.6-1.2-0.5c-0.5,0.1-0.8,0.5-0.9,1c-0.1,0.5,0.1,1,0.4,1.3L101.9,121.2z"/>
	</defs>
	<clipPath id="SVGID_130_">
		<use xlink:href="#SVGID_151_"  style="overflow:visible;"/>
	</clipPath>
	<g style="clip-path:url(#SVGID_130_);">
		<defs>
			<rect id="SVGID_153_" x="-641" y="-1038.4" width="1440" height="2150"/>
		</defs>
		<clipPath id="SVGID_132_">
			<use xlink:href="#SVGID_153_"  style="overflow:visible;"/>
		</clipPath>
	</g>
</g>
<g>
	<defs>
		<path id="SVGID_155_" d="M238.5,136.5c0,0.8-0.7,1.5-1.5,1.5h-26.4c-0.8,0-1.5-0.7-1.5-1.5c0-0.4,0.2-0.8,0.4-1.1
			c0.3-0.3,0.7-0.4,1.1-0.4h26.4c0.4,0,0.8,0.1,1.1,0.4S238.5,136.1,238.5,136.5z M243.7,129.5c0,0.8-0.7,1.5-1.5,1.5h-31.8
			c-0.8,0-1.5-0.7-1.5-1.5s0.7-1.5,1.5-1.5h31.7c0.4,0,0.8,0.1,1.1,0.4S243.7,129,243.7,129.5z M243.7,121.4c0,0.8-0.7,1.5-1.5,1.5
			h-31.8c-0.5,0-1-0.3-1.3-0.8s-0.3-1,0-1.5c0.3-0.5,0.8-0.8,1.3-0.8h31.7c0.4,0,0.8,0.1,1.1,0.4C243.5,120.6,243.7,121,243.7,121.4
			z M210.4,112.9h31.7c0.8,0,1.5,0.7,1.5,1.5c0,0.8-0.7,1.5-1.5,1.5h-31.7c-0.8,0-1.5-0.7-1.5-1.5
			C208.9,113.6,209.6,112.9,210.4,112.9z M239.2,92.9l6.9,7h-6.9V92.9z M250.2,146h-48V88.8h31v17.1h17V146z M196.2,83.8V152h60
			v-49.8l-18.5-18.5H196.2z"/>
	</defs>
	<clipPath id="SVGID_134_">
		<use xlink:href="#SVGID_155_"  style="overflow:visible;"/>
	</clipPath>
	<g style="clip-path:url(#SVGID_134_);">
		<defs>
			<rect id="SVGID_157_" x="-863.4" y="-1037.9" width="1440" height="2150"/>
		</defs>
		<clipPath id="SVGID_136_">
			<use xlink:href="#SVGID_157_"  style="overflow:visible;"/>
		</clipPath>
	</g>
</g>
<g>
	<defs>
		<path id="SVGID_159_" d="M220.3,74c-1.7-1.3-4.1-1.1-5.6,0.5l-17.3,17.3l-7.7-7.7c-1.5-1.6-3.9-1.8-5.6-0.5
			c-0.9,0.7-1.4,1.8-1.5,3c-0.1,1.2,0.4,2.3,1.2,3.1l11.5,11.5c0.6,0.6,1.4,1,2.2,1c0.8,0,1.6-0.3,2.2-1l21-21.1
			c0.8-0.8,1.2-2,1.1-3.1C221.7,75.8,221.2,74.7,220.3,74z"/>
	</defs>
	<clipPath id="SVGID_138_">
		<use xlink:href="#SVGID_159_"  style="overflow:visible;"/>
	</clipPath>
	<g style="clip-path:url(#SVGID_138_);">
		<defs>
			<rect id="SVGID_161_" x="-863.4" y="-1037.9" width="1440" height="2150"/>
		</defs>
		<clipPath id="SVGID_140_">
			<use xlink:href="#SVGID_161_"  style="overflow:visible;"/>
		</clipPath>
	</g>
</g>
<g>
	<defs>
		<path id="SVGID_165_" d="M-225.3,252.2h-50.7v-59.8l39.1-1.9c0,7.5,14.9,15,14.9,22.5C-222.1,225.4-225.3,239.7-225.3,252.2z"/>
	</defs>
	<clipPath id="SVGID_142_">
		<use xlink:href="#SVGID_165_"  style="overflow:visible;"/>
	</clipPath>
	<g style="clip-path:url(#SVGID_142_);">
		<defs>
			<rect id="SVGID_167_" x="-782.7" y="-1483.5" width="1440" height="3155"/>
		</defs>
		<clipPath id="SVGID_144_">
			<use xlink:href="#SVGID_167_"  style="overflow:visible;"/>
		</clipPath>
	</g>
</g>
<g>
	<defs>
		<path id="SVGID_169_" d="M-238.7,242.3c0,0.8-0.7,1.5-1.5,0.9h-26.7c-0.8,0.7-1.5,0-1.5-0.9c0-0.8,0.7-1.5,1.5-1.6h26.8
			C-239.3,240.8-238.6,241.5-238.7,242.3L-238.7,242.3z M-233.2,234.7c0,0.8-0.7,1.5-1.5,1.1h-32.2c-0.8,0.4-1.5-0.3-1.5-1.1
			c0-0.4,0.1-0.8,0.4-1s0.7-0.4,1.1-0.3h32.3c0.4-0.1,0.8,0,1.1,0.3C-233.3,233.9-233.1,234.3-233.2,234.7L-233.2,234.7z
			 M-233.2,227.1c0,0.4-0.1,0.8-0.4,1.1c-0.3,0.3-0.7,0.4-1.1,0.3h-32.2c-0.4,0.1-0.8-0.1-1.1-0.3c-0.3-0.3-0.5-0.6-0.4-1
			c0-0.8,0.7-1.5,1.5-1.1h32.3C-233.8,225.6-233.1,226.2-233.2,227.1L-233.2,227.1z M-267,218.6h32.4c0.9-0.7,1.5,0,1.5,0.8
			c0,0.9-0.7,1.6-1.5,1.6h-32.3c-0.8-0.1-1.5-0.8-1.5-1.6C-268.5,218.6-267.8,217.9-267,218.6L-267,218.6z M-237.6,196.5l7.3,7.3
			h-7.3V196.5z M-225.2,253h-50.5v-60.3h33.2V210h17.2L-225.2,253z M-281.8,186.6V258h62.7v-52l-19.4-19.3H-281.8z"/>
	</defs>
	<clipPath id="SVGID_146_">
		<use xlink:href="#SVGID_169_"  style="overflow:visible;"/>
	</clipPath>
	<g style="clip-path:url(#SVGID_146_);">
		<defs>
			<rect id="SVGID_171_" x="-782.7" y="-1483.5" width="1440" height="3155"/>
		</defs>
		<clipPath id="SVGID_148_">
			<use xlink:href="#SVGID_171_"  style="overflow:visible;"/>
		</clipPath>
	</g>
</g>
<g>
	<defs>
		<polygon id="SVGID_173_" points="-195,217.8 -182,217.8 -182,223.2 -169,216 -182,208.8 -182,214.3 -195,214.3 		"/>
	</defs>
	<clipPath id="SVGID_150_">
		<use xlink:href="#SVGID_173_"  style="overflow:visible;"/>
	</clipPath>
	<g style="clip-path:url(#SVGID_150_);">
		<defs>
			<rect id="SVGID_175_" x="-782.7" y="-1483.5" width="1440" height="3155"/>
		</defs>
		<clipPath id="SVGID_152_">
			<use xlink:href="#SVGID_175_"  style="overflow:visible;"/>
		</clipPath>
	</g>
</g>
<g>
	<defs>
		<path id="SVGID_177_" d="M-72.6,230.5c-22.2,0-44.5,0-66.7,0c-2.3,0-2.3,0-2.3-2.3V189c0-2.6,0-2.6,2.8-2.6h65.9
			c2.3,0,2.5,0,2.5,2.3c0,12.3,0,27.4,0,39.7c0,1.6-0.4,2.2-2.2,2.2H-72.6z M-70.3,178.9H-141c-4.8,0-6.8,2-6.8,6.8v49.9
			c0,4.7,1.9,6.8,6.6,6.8h26.3v3c-0.1,1.5-1,2.9-2.3,3.7c-0.8,0.6-1.8,1.2-2.7,1.6c-0.8,0.4-1.7,0.7-2.5,1c-0.6,0.2-1.1,0.8-1.1,1.5
			v0.2c0,1,0.8,1.8,1.8,1.8h31.5c0.5,0,0.9-0.2,1.2-0.5c0.3-0.3,0.5-0.8,0.5-1.2c0-0.8-0.5-1.4-1.2-1.7c-0.8-0.3-1.5-0.6-2.3-0.9
			c-1-0.4-1.9-1-2.7-1.6c-1.3-0.8-2.1-2.1-2.3-3.7v-3.1h26.6c4.4,0,6.3-2.1,6.3-6.5v-50.5c0.2-1.7-0.4-3.5-1.6-4.7
			C-66.8,179.3-68.6,178.7-70.3,178.9z"/>
	</defs>
	<clipPath id="SVGID_154_">
		<use xlink:href="#SVGID_177_"  style="overflow:visible;"/>
	</clipPath>
	<g style="clip-path:url(#SVGID_154_);">
		<defs>
			<rect id="SVGID_179_" x="-782.7" y="-1483.5" width="1440" height="3155"/>
		</defs>
		<clipPath id="SVGID_156_">
			<use xlink:href="#SVGID_179_"  style="overflow:visible;"/>
		</clipPath>
	</g>
</g>
<g>
	<defs>
		<path id="SVGID_181_" d="M-16.2,182.6c0.1-2.5,2-4.4,4.4-4.4h0.2c2.4,0,4.4,2,4.4,4.4v0.4h-9.1V182.6z M-22.8,195.3h22.1
			c1.8-0.1,3.3-1.3,3.8-3c0.1-0.2,0.1-0.5,0.1-0.8v-4.9c0-0.3-0.1-0.5-0.1-0.8c-0.1-0.4-0.3-0.8-0.6-1.2c-0.5-0.8-1.3-1.4-2.2-1.6
			C0,183-0.4,183-0.8,183h-2.4v-0.4c-0.1-4.7-3.8-8.5-8.4-8.5h-0.1c-2.2,0-4.3,0.9-5.9,2.5c-1.6,1.6-2.6,3.7-2.6,6v0.4h-2.4
			c-0.4,0-0.7,0.1-1.1,0.2c-0.9,0.3-1.7,0.8-2.2,1.6c-0.3,0.3-0.5,0.7-0.6,1.1c-0.1,0.3-0.1,0.5-0.2,0.8v4.8c0,0.3,0.1,0.5,0.2,0.8
			C-26,194-24.5,195.2-22.8,195.3z"/>
	</defs>
	<clipPath id="SVGID_158_">
		<use xlink:href="#SVGID_181_"  style="overflow:visible;"/>
	</clipPath>
	<g style="clip-path:url(#SVGID_158_);">
		<defs>
			<rect id="SVGID_183_" x="-1001.1" y="-1464.9" width="1440" height="3155"/>
		</defs>
		<clipPath id="SVGID_160_">
			<use xlink:href="#SVGID_183_"  style="overflow:visible;"/>
		</clipPath>
	</g>
</g>
<g>
	<defs>
		<path id="SVGID_185_" d="M19.6,232.9v-0.8c0-1.8,0-3.8,0-5.6c0-4.5,0-0.7,0-5.2V219c0-6.7,0-13.9,0-20.9c0.3-4.7-2.3-9.1-6.6-11.2
			c-1.7-0.9-3.6-1.3-5.5-1.3H6.3v5.5h0.3c0.8,0,1.4,0,2,0c3,0.2,5.3,2.5,5.6,5.4c0.2,2.8,0.2,5.6,0.2,8.2v35.1
			c0.1,1.5-0.1,3.1-0.7,4.5c-1,2.1-3.2,3.5-5.6,3.4h-39.4c-2.4,0.1-4.6-1.3-5.6-3.4c-0.6-1.4-0.9-3-0.7-4.5v-35c0-2.5,0-5.4,0.2-8.2
			c0.2-2.9,2.6-5.2,5.6-5.4c0.6,0,1.2,0,2,0h0.3v-5.5h-1.2c-1.9-0.1-3.8,0.3-5.5,1.2c-4.3,2.2-6.8,6.6-6.6,11.2c0,7,0,14.2,0,21v2.2
			c0,4.5,0,0.8,0,5.2c0,1.9,0,3.8,0,5.6v0.8c0,5.3,0,3.8,0,9.2c0.2,6.1,5.3,11,11.5,11.1h19h1.4h19c3,0,5.9-1.2,8.1-3.3
			c2.2-2,3.4-4.8,3.5-7.8C19.6,236.6,19.6,238.2,19.6,232.9z"/>
	</defs>
	<clipPath id="SVGID_162_">
		<use xlink:href="#SVGID_185_"  style="overflow:visible;"/>
	</clipPath>
	<g style="clip-path:url(#SVGID_162_);">
		<defs>
			<rect id="SVGID_187_" x="-1001.1" y="-1464.9" width="1440" height="3155"/>
		</defs>
		<clipPath id="SVGID_164_">
			<use xlink:href="#SVGID_187_"  style="overflow:visible;"/>
		</clipPath>
	</g>
</g>
<g>
	<defs>
		<path id="SVGID_189_" d="M2.9,217.5h-15.8c-0.7,0-1.2,0.6-1.2,1.4s0.6,1.4,1.2,1.4H2.9c0.7,0,1.2-0.6,1.2-1.4S3.6,217.5,2.9,217.5
			z"/>
	</defs>
	<clipPath id="SVGID_166_">
		<use xlink:href="#SVGID_189_"  style="overflow:visible;"/>
	</clipPath>
	<g class="st82">
		<defs>
			<rect id="SVGID_191_" x="-1001.1" y="-1464.9" width="1440" height="3155"/>
		</defs>
		<clipPath id="SVGID_168_">
			<use xlink:href="#SVGID_191_"  style="overflow:visible;"/>
		</clipPath>
	</g>
</g>
<g>
	<defs>
		<path id="SVGID_193_" d="M2.9,232.9h-15.8c-0.7,0-1.2,0.6-1.2,1.4s0.6,1.4,1.2,1.4H2.9c0.7,0,1.2-0.6,1.2-1.4S3.6,232.9,2.9,232.9
			z"/>
	</defs>
	<clipPath id="SVGID_170_">
		<use xlink:href="#SVGID_193_"  style="overflow:visible;"/>
	</clipPath>
	<g class="st84">
		<defs>
			<rect id="SVGID_195_" x="-1001.1" y="-1464.9" width="1440" height="3155"/>
		</defs>
		<clipPath id="SVGID_172_">
			<use xlink:href="#SVGID_195_"  style="overflow:visible;"/>
		</clipPath>
	</g>
</g>
<g>
	<defs>
		<path id="SVGID_197_" d="M-25.5,210.2c0.7,0.7,1.8,0.7,2.5,0l3.7-4c0.3-0.3,0.5-0.8,0.4-1.2c-0.1-0.5-0.4-0.8-0.8-0.9
			c-0.4-0.1-0.9,0-1.1,0.4l-3.3,3.6l-1.2-1.4c-0.3-0.4-0.7-0.6-1.2-0.5c-0.4,0.1-0.8,0.5-0.9,1c-0.1,0.5,0.1,1,0.4,1.3L-25.5,210.2z
			"/>
	</defs>
	<clipPath id="SVGID_174_">
		<use xlink:href="#SVGID_197_"  style="overflow:visible;"/>
	</clipPath>
	<g class="st86">
		<defs>
			<rect id="SVGID_199_" x="-1001.1" y="-1464.9" width="1440" height="3155"/>
		</defs>
		<clipPath id="SVGID_176_">
			<use xlink:href="#SVGID_199_"  style="overflow:visible;"/>
		</clipPath>
	</g>
</g>
<g>
	<defs>
		<path id="SVGID_201_" d="M-26.2,231.5h4.8v4.8h-4.8V231.5z M-28.6,238.7h9.6V229h-9.6V238.7z"/>
	</defs>
	<clipPath id="SVGID_178_">
		<use xlink:href="#SVGID_201_"  style="overflow:visible;"/>
	</clipPath>
	<g class="st88">
		<defs>
			<rect id="SVGID_203_" x="-1001.1" y="-1464.9" width="1440" height="3155"/>
		</defs>
		<clipPath id="SVGID_180_">
			<use xlink:href="#SVGID_203_"  style="overflow:visible;"/>
		</clipPath>
	</g>
</g>
<g>
	<defs>
		<path id="SVGID_205_" d="M-12.9,206.9c-0.7,0-1.2,0.6-1.2,1.4s0.6,1.4,1.2,1.4H2.9c0.7,0,1.2-0.6,1.2-1.4s-0.6-1.4-1.2-1.4H-12.9z
			"/>
	</defs>
	<clipPath id="SVGID_182_">
		<use xlink:href="#SVGID_205_"  style="overflow:visible;"/>
	</clipPath>
	<g class="st90">
		<defs>
			<rect id="SVGID_207_" x="-1001.1" y="-1464.9" width="1440" height="3155"/>
		</defs>
		<clipPath id="SVGID_184_">
			<use xlink:href="#SVGID_207_"  style="overflow:visible;"/>
		</clipPath>
	</g>
</g>
<g>
	<defs>
		<path id="SVGID_209_" d="M-25.5,222.7c0.7,0.8,1.8,0.8,2.6,0l3.8-4.2c0.3-0.5,0.2-1.2-0.2-1.6s-1-0.5-1.5-0.1l-3.4,3.7l-1.3-1.3
			c-0.3-0.4-0.8-0.6-1.2-0.5c-0.5,0.1-0.8,0.5-0.9,1c-0.1,0.5,0.1,1,0.4,1.3L-25.5,222.7z"/>
	</defs>
	<clipPath id="SVGID_186_">
		<use xlink:href="#SVGID_209_"  style="overflow:visible;"/>
	</clipPath>
	<g class="st92">
		<defs>
			<rect id="SVGID_211_" x="-1001.1" y="-1464.9" width="1440" height="3155"/>
		</defs>
		<clipPath id="SVGID_188_">
			<use xlink:href="#SVGID_211_"  style="overflow:visible;"/>
		</clipPath>
	</g>
</g>
<g>
	<defs>
		<path id="SVGID_213_" d="M41.5,219.3c0-1.7,0.1-3.4,0.4-5.1c0.2-1.2-0.6-2.4-1.8-2.6c-0.6-0.1-1.2,0-1.7,0.4
			c-0.5,0.3-0.8,0.9-0.9,1.5c-0.3,1.9-0.5,3.9-0.5,5.9c0,1.2,1,2.3,2.3,2.3C40.5,221.6,41.5,220.6,41.5,219.3z"/>
	</defs>
	<clipPath id="SVGID_190_">
		<use xlink:href="#SVGID_213_"  style="overflow:visible;"/>
	</clipPath>
	<g class="st94">
		<defs>
			<rect id="SVGID_215_" x="-1001.1" y="-1464.9" width="1440" height="3155"/>
		</defs>
		<clipPath id="SVGID_192_">
			<use xlink:href="#SVGID_215_"  style="overflow:visible;"/>
		</clipPath>
	</g>
</g>
<g>
	<defs>
		<path id="SVGID_217_" d="M57,193.1c0.4,0,0.7-0.1,1-0.2c2.8-1.4,5.7-2.3,8.8-2.7c0.6-0.1,1.2-0.4,1.5-0.9c0.4-0.5,0.5-1.1,0.4-1.7
			c-0.1-0.6-0.4-1.1-0.9-1.5c-0.5-0.4-1.2-0.6-1.8-0.4c-3.5,0.5-7,1.6-10.1,3.2c-0.9,0.5-1.4,1.5-1.2,2.6
			C55,192.4,55.9,193.1,57,193.1z"/>
	</defs>
	<clipPath id="SVGID_194_">
		<use xlink:href="#SVGID_217_"  style="overflow:visible;"/>
	</clipPath>
	<g class="st96">
		<defs>
			<rect id="SVGID_219_" x="-1001.1" y="-1464.9" width="1440" height="3155"/>
		</defs>
		<clipPath id="SVGID_196_">
			<use xlink:href="#SVGID_219_"  style="overflow:visible;"/>
		</clipPath>
	</g>
</g>
<g>
	<defs>
		<path id="SVGID_221_" d="M41.9,206.5L41.9,206.5c0.5,0.3,1.2,0.3,1.7,0.1s1-0.6,1.3-1.1c1.5-2.7,3.3-5.2,5.6-7.3
			c0.9-0.9,0.9-2.3,0-3.2c-0.4-0.4-1-0.7-1.6-0.7c-0.6,0-1.2,0.2-1.6,0.7c-2.5,2.5-4.7,5.3-6.4,8.4c-0.3,0.5-0.3,1.1-0.2,1.7
			C40.9,205.7,41.3,206.2,41.9,206.5z"/>
	</defs>
	<clipPath id="SVGID_198_">
		<use xlink:href="#SVGID_221_"  style="overflow:visible;"/>
	</clipPath>
	<g class="st98">
		<defs>
			<rect id="SVGID_223_" x="-1001.1" y="-1464.9" width="1440" height="3155"/>
		</defs>
		<clipPath id="SVGID_200_">
			<use xlink:href="#SVGID_223_"  style="overflow:visible;"/>
		</clipPath>
	</g>
</g>
<g>
	<defs>
		<path id="SVGID_225_" d="M67,248.6c-3.1-0.4-6-1.3-8.8-2.6c-0.8-0.4-1.8-0.3-2.5,0.3c-0.7,0.6-0.9,1.5-0.7,2.4
			c0.2,0.6,0.6,1,1.2,1.3c3.2,1.6,6.6,2.6,10.2,3.1h0.3c0.9,0,1.6-0.5,2-1.3c0.4-0.8,0.3-1.7-0.2-2.3C68.1,249,67.6,248.7,67,248.6z
			"/>
	</defs>
	<clipPath id="SVGID_202_">
		<use xlink:href="#SVGID_225_"  style="overflow:visible;"/>
	</clipPath>
	<g class="st100">
		<defs>
			<rect id="SVGID_227_" x="-1001.1" y="-1464.9" width="1440" height="3155"/>
		</defs>
		<clipPath id="SVGID_204_">
			<use xlink:href="#SVGID_227_"  style="overflow:visible;"/>
		</clipPath>
	</g>
</g>
<g>
	<defs>
		<path id="SVGID_229_" d="M100.8,231.6c-1.1-0.6-2.4-0.1-3,0.9c-1.4,2.7-3.2,5.3-5.4,7.5c-0.4,0.4-0.7,1-0.7,1.6
			c0,1.2,1,2.3,2.3,2.3c0.6,0,1.2-0.2,1.6-0.7c2.5-2.5,4.6-5.4,6.2-8.6C102.3,233.4,101.9,232.1,100.8,231.6z"/>
	</defs>
	<clipPath id="SVGID_206_">
		<use xlink:href="#SVGID_229_"  style="overflow:visible;"/>
	</clipPath>
	<g class="st102">
		<defs>
			<rect id="SVGID_231_" x="-1001.1" y="-1464.9" width="1440" height="3155"/>
		</defs>
		<clipPath id="SVGID_208_">
			<use xlink:href="#SVGID_231_"  style="overflow:visible;"/>
		</clipPath>
	</g>
</g>
<g>
	<defs>
		<path id="SVGID_233_" d="M97.8,205.9c0.4,0.7,1.2,1.2,2,1.2c0.4,0,0.7-0.1,1-0.2c1.1-0.6,1.5-1.9,1-3c-1.6-3.2-3.7-6-6.3-8.5
			c-0.4-0.4-1-0.7-1.6-0.7c-0.6,0-1.2,0.2-1.6,0.7c-0.9,0.9-0.9,2.3,0,3.2C94.5,200.7,96.3,203.2,97.8,205.9z"/>
	</defs>
	<clipPath id="SVGID_210_">
		<use xlink:href="#SVGID_233_"  style="overflow:visible;"/>
	</clipPath>
	<g class="st104">
		<defs>
			<rect id="SVGID_235_" x="-1001.1" y="-1464.9" width="1440" height="3155"/>
		</defs>
		<clipPath id="SVGID_212_">
			<use xlink:href="#SVGID_235_"  style="overflow:visible;"/>
		</clipPath>
	</g>
</g>
<g>
	<defs>
		<path id="SVGID_237_" d="M76,190.2L76,190.2c3.1,0.5,6,1.5,8.8,2.9c0.3,0.2,0.7,0.3,1,0.2c0.8,0,1.6-0.5,2-1.2
			c0.6-1.1,0.1-2.4-1-3c-3.2-1.6-6.6-2.7-10.1-3.3c-0.6-0.1-1.2,0-1.7,0.4c-0.5,0.3-0.8,0.9-0.9,1.5C74,188.8,74.8,190,76,190.2z"/>
	</defs>
	<clipPath id="SVGID_214_">
		<use xlink:href="#SVGID_237_"  style="overflow:visible;"/>
	</clipPath>
	<g class="st106">
		<defs>
			<rect id="SVGID_239_" x="-1001.1" y="-1464.9" width="1440" height="3155"/>
		</defs>
		<clipPath id="SVGID_216_">
			<use xlink:href="#SVGID_239_"  style="overflow:visible;"/>
		</clipPath>
	</g>
</g>
<g>
	<defs>
		<path id="SVGID_241_" d="M86.7,245.3c-0.6-0.2-1.2-0.1-1.7,0.2c-2.7,1.4-5.7,2.4-8.7,3c-0.6,0.1-1.1,0.4-1.5,0.9
			c-0.3,0.5-0.5,1.1-0.4,1.7c0.2,1.1,1.2,1.9,2.3,1.9H77c3.5-0.6,6.9-1.7,10.1-3.4c0.8-0.4,1.3-1.3,1.2-2.2S87.6,245.7,86.7,245.3
			L86.7,245.3z"/>
	</defs>
	<clipPath id="SVGID_218_">
		<use xlink:href="#SVGID_241_"  style="overflow:visible;"/>
	</clipPath>
	<g class="st108">
		<defs>
			<rect id="SVGID_243_" x="-1001.1" y="-1464.9" width="1440" height="3155"/>
		</defs>
		<clipPath id="SVGID_220_">
			<use xlink:href="#SVGID_243_"  style="overflow:visible;"/>
		</clipPath>
	</g>
</g>
<g>
	<defs>
		<path id="SVGID_245_" d="M56.4,236.8c0.4-0.4,0.7-1,0.7-1.6c0-1.2-1-2.3-2.3-2.3H43.5c-1,0-2,0.4-2.7,1.1
			c-0.7,0.7-1.1,1.7-1.1,2.7V248c0,0.9,0.6,1.7,1.4,2.1c0.8,0.3,1.8,0.1,2.5-0.5c0.4-0.4,0.7-1,0.7-1.6v-7.6c1,1.2,2.1,2.3,3.2,3.4
			c0.9,0.9,2.3,0.9,3.2,0c0.9-0.9,0.9-2.3,0-3.2c-1-1-1.9-2-2.8-3.1h7C55.5,237.5,56,237.2,56.4,236.8z"/>
	</defs>
	<clipPath id="SVGID_222_">
		<use xlink:href="#SVGID_245_"  style="overflow:visible;"/>
	</clipPath>
	<g class="st110">
		<defs>
			<rect id="SVGID_247_" x="-1001.1" y="-1464.9" width="1440" height="3155"/>
		</defs>
		<clipPath id="SVGID_224_">
			<use xlink:href="#SVGID_247_"  style="overflow:visible;"/>
		</clipPath>
	</g>
</g>
<g>
	<defs>
		<path id="SVGID_249_" d="M86.2,204.6l-10.5,8.1c-1.3-0.9-2.9-1.4-4.5-1.4c-3.3,0-6.2,1.9-7.5,5c-1.3,3-0.6,6.5,1.7,8.8
			c2.3,2.3,5.8,3,8.8,1.8c3-1.2,5-4.2,5-7.4c0-1.1-0.2-2.2-0.7-3.2l10.4-8c0.5-0.4,0.8-0.9,0.9-1.5c0.1-0.6-0.1-1.2-0.5-1.7
			C88.6,204,87.2,203.8,86.2,204.6z"/>
	</defs>
	<clipPath id="SVGID_226_">
		<use xlink:href="#SVGID_249_"  style="overflow:visible;"/>
	</clipPath>
	<g class="st112">
		<defs>
			<rect id="SVGID_251_" x="-1001.1" y="-1464.9" width="1440" height="3155"/>
		</defs>
		<clipPath id="SVGID_228_">
			<use xlink:href="#SVGID_251_"  style="overflow:visible;"/>
		</clipPath>
	</g>
</g>
<g>
	<defs>
		<path id="SVGID_255_" d="M192.1,247.9h-48.6v-56.8l37.5-1.8c0,7.1,14.2,14.2,14.2,21.3C195.3,222.4,192.1,236.1,192.1,247.9"/>
	</defs>
	<clipPath id="SVGID_230_">
		<use xlink:href="#SVGID_255_"  style="overflow:visible;"/>
	</clipPath>
	<g class="st114">
		<defs>
			<rect id="SVGID_257_" x="-191" y="-1695.2" width="1440" height="3155"/>
		</defs>
		<clipPath id="SVGID_232_">
			<use xlink:href="#SVGID_257_"  style="overflow:visible;"/>
		</clipPath>
	</g>
</g>
<g>
	<defs>
		<path id="SVGID_259_" d="M137.6,185.9v67.9h60.1v-49.5l-18.6-18.4H137.6z M191.8,249.1h-48.3v-57.4h31.8v16.4h16.5V249.1z
			 M180.1,195.3l7,6.9h-7V195.3z M151.9,216.3h30.9c0.8-0.7,1.5,0,1.5,0.8c0,0.8-0.7,1.5-1.5,1.5h-30.9c-0.8-0.1-1.5-0.7-1.5-1.5
			C150.5,216.3,151.1,215.6,151.9,216.3z M184.3,224.4c0,0.8-0.7,1.5-1.5,1.3h-30.9c-0.8,0.1-1.5-0.5-1.5-1.3c0-0.8,0.7-1.5,1.5-1
			h30.9C183.7,222.9,184.3,223.6,184.3,224.4z M184.3,231.6c0,0.8-0.7,1.5-1.5,1.1h-30.9c-0.8,0.4-1.5-0.3-1.5-1.1s0.7-1.5,1.5-1.3
			h30.9C183.7,230.2,184.3,230.8,184.3,231.6z M179.1,238.9c0,0.8-0.7,1.5-1.5,0.8h-25.7c-0.8,0.6-1.5,0-1.5-0.8s0.7-1.4,1.5-1.5
			h25.7C178.5,237.4,179.1,238.1,179.1,238.9z"/>
	</defs>
	<clipPath id="SVGID_234_">
		<use xlink:href="#SVGID_259_"  style="overflow:visible;"/>
	</clipPath>
	<g class="st116">
		<defs>
			<rect id="SVGID_261_" x="-191" y="-1695.2" width="1440" height="3155"/>
		</defs>
		<clipPath id="SVGID_236_">
			<use xlink:href="#SVGID_261_"  style="overflow:visible;"/>
		</clipPath>
	</g>
</g>
<g>
	<defs>
		<path id="SVGID_263_" d="M209.7,217.8c0,11.7-9.5,21.2-21.3,21.2c-11.8,0-21.3-9.5-21.3-21.2s9.5-21.2,21.3-21.2
			C200.1,196.6,209.7,206.1,209.7,217.8"/>
	</defs>
	<clipPath id="SVGID_238_">
		<use xlink:href="#SVGID_263_"  style="overflow:visible;"/>
	</clipPath>
	<g class="st118">
		<defs>
			<rect id="SVGID_265_" x="-191" y="-1695.2" width="1440" height="3155"/>
		</defs>
		<clipPath id="SVGID_240_">
			<use xlink:href="#SVGID_265_"  style="overflow:visible;"/>
		</clipPath>
	</g>
</g>
<g>
	<defs>
		<path id="SVGID_267_" d="M209.3,232.5c7.1-9.6,6.6-23.2-1.8-32.3c-9.6-10.3-25.8-11-36.2-1.5c-10.4,9.5-11,25.6-1.5,35.9
			c8.4,9.1,22,10.7,32.2,4.4l7.9,12.1c0.4,0.5,0.8,1,1.3,1.4c3.1,2.6,7.8,2.2,10.5-0.9c2.6-3.1,2.2-7.8-0.9-10.4L209.3,232.5z
			 M205,228.9c-0.8,1.1-1.7,2.2-2.8,3.1c-1,1-2.2,1.8-3.4,2.5c-7.9,4.6-18.3,3.4-24.7-3.6c-7.4-8-6.9-20.5,1.2-27.9
			c8.1-7.4,20.7-6.9,28.1,1.1C209.8,211.1,210.3,221.5,205,228.9z"/>
	</defs>
	<clipPath id="SVGID_242_">
		<use xlink:href="#SVGID_267_"  style="overflow:visible;"/>
	</clipPath>
	<g class="st120">
		<defs>
			<rect id="SVGID_269_" x="-191" y="-1695.2" width="1440" height="3155"/>
		</defs>
		<clipPath id="SVGID_244_">
			<use xlink:href="#SVGID_269_"  style="overflow:visible;"/>
		</clipPath>
	</g>
</g>
<g>
	<defs>
		<path id="SVGID_323_" d="M-254.7,438.7c1.8,3.7,4.5,7.2,8.1,10.5c3.6,3.3,8.3,5.1,13.5,5.1c0,0,0,0,0.1,0l0.7,0
			c4.8,0,9.5-1.8,13.1-5.2c3.7-3.3,6.3-6.8,8.1-10.5c3.8-7.9,5.7-15.9,5.8-23.8l0-0.9c0-0.9,0-1.8-0.1-2.8
			c-0.9-9.3-6.2-16-15.2-19.4c-3.7-1.4-7.9-2.1-12.4-2.1c-4.4,0-8.5,0.8-12.3,2.2c-9,3.4-14.3,10.1-15.2,19.4
			c-0.1,0.9-0.1,1.9-0.1,2.8l0,0.9C-260.4,422.8-258.5,430.8-254.7,438.7z"/>
	</defs>
	<clipPath id="SVGID_246_">
		<use xlink:href="#SVGID_323_"  style="overflow:visible;"/>
	</clipPath>
	<g class="st122">
		<defs>
			<rect id="SVGID_325_" x="-666.3" y="-1327.9" width="1440" height="2734"/>
		</defs>
		<clipPath id="SVGID_248_">
			<use xlink:href="#SVGID_325_"  style="overflow:visible;"/>
		</clipPath>
	</g>
</g>
<g>
	<defs>
		<path id="SVGID_335_" d="M303.5,441.1c1.8,3.7,4.5,7.2,8.3,10.5c3.7,3.3,8.4,5.1,13.7,5.1c0,0,0,0,0.1,0l0.7,0
			c4.9,0,9.6-1.8,13.3-5.2c3.7-3.3,6.4-6.8,8.3-10.5c3.8-7.9,5.8-15.9,5.9-23.8l0-0.9c0-0.9,0-1.8-0.1-2.8
			c-0.9-9.3-6.3-16-15.5-19.4c-3.8-1.4-8-2.1-12.5-2.1c-4.5,0-8.6,0.8-12.5,2.2c-9.2,3.4-14.5,10.1-15.4,19.4
			c-0.1,0.9-0.1,1.9-0.1,2.8l0,0.9C297.7,425.2,299.7,433.2,303.5,441.1z"/>
	</defs>
	<clipPath id="SVGID_250_">
		<use xlink:href="#SVGID_335_"  style="overflow:visible;"/>
	</clipPath>
	<g class="st124">
		<defs>
			<rect id="SVGID_337_" x="-666.3" y="-1327.9" width="1440" height="2734"/>
		</defs>
		<clipPath id="SVGID_252_">
			<use xlink:href="#SVGID_337_"  style="overflow:visible;"/>
		</clipPath>
	</g>
</g>
<g>
	<defs>
		<path id="SVGID_339_" d="M377.5,477.7c-2-1.5-4.4-2.7-7-3.6c0,0-18.7-7-18.7-7c-3.9-1.5-7.9-1.9-11.7,0.8l-0.8,0.6
			c-1.1,1-1.8,2.1-2.4,3.1c-0.2,0.3-0.4,0.6-0.6,0.9l-10.7,14.8l-1.5-2c-3.7-5.1-7.3-10.2-11-15.3c-0.3-0.4-0.5-0.7-0.8-1.1
			c-1.4-1.6-2.9-2.6-4.6-3.2l-1.6-0.3l-5.9,1.5l-19.2,7.2c-2.8,0.9-5.2,2.2-7.2,3.7c-6.6,5-6.2,11.2-6.2,11.5l0,14.9
			c0.2,1.8,0.6,3.4,1.2,4.8c2.4,5.7,7.5,7.8,11.1,7.8h91.4c3.6,0,8.6-2,11-7.7c0.6-1.5,1-3.1,1.3-5.3l0-14
			C383.7,488.9,384.1,482.7,377.5,477.7"/>
	</defs>
	<clipPath id="SVGID_254_">
		<use xlink:href="#SVGID_339_"  style="overflow:visible;"/>
	</clipPath>
	<g style="clip-path:url(#SVGID_254_);">
		<defs>
			<rect id="SVGID_341_" x="-666.3" y="-1327.9" width="1440" height="2734"/>
		</defs>
		<clipPath id="SVGID_256_">
			<use xlink:href="#SVGID_341_"  style="overflow:visible;"/>
		</clipPath>
	</g>
</g>
<g>
	<defs>
		<path id="SVGID_351_" d="M-59.5,368c1,0.8,2.1,1.1,3.3,1.1c1.6,0,3.2-0.7,4.2-2.1c22.8-29.5,57.2-46.4,94.3-46.4
			c33,0,63.9,13.5,86.4,37.2l-24.8-1.7c-3-0.2-5.5,2-5.7,5c-0.2,3,2,5.5,5,5.7l32.7,2.3c0.2,0,0.5,0,0.7,0c2.4,0,4.7-0.8,6.5-2.4
			c0,0,0.1,0,0.1-0.1c0,0,0,0,0,0c0.1,0,0.1-0.1,0.2-0.1c2.1-1.9,3.3-4.4,3.4-7.2l1.5-32.8c0.1-3-2.2-5.5-5.1-5.6
			c-3-0.1-5.5,2.2-5.6,5.1l-1.1,24.3c-24.5-25.9-58.2-40.5-94.2-40.5c-40.5,0-78,18.4-102.8,50.5C-62.3,362.8-61.8,366.2-59.5,368"
			/>
	</defs>
	<clipPath id="SVGID_258_">
		<use xlink:href="#SVGID_351_"  style="overflow:visible;"/>
	</clipPath>
	<g style="clip-path:url(#SVGID_258_);">
		<defs>
			<rect id="SVGID_353_" x="-666.3" y="-1327.9" width="1440" height="2734"/>
		</defs>
		<clipPath id="SVGID_260_">
			<use xlink:href="#SVGID_353_"  style="overflow:visible;"/>
		</clipPath>
	</g>
</g>
<g>
	<defs>
		<path id="SVGID_355_" d="M-111.1,368.7c-2.7-4.9-6.3-9.2-10.6-12.6c-4.3-3.4-9.2-6-14.6-7.5c-14.2-4.1-29.2-0.4-40.1,9.7
			c-5.6,5.2-9.7,11.9-11.8,19.3c-2.9,10.4-1.8,21.3,3.1,31l0.8,1.6l-1.3,1.2c-0.3,0.2-0.6,0.5-1.1,0.9l-6.3,4.8
			c-0.9,0.7-1.3,1.6-1.2,2.5c0.1,0.5,0.4,2,4.3,3.2l0.3,0.1c3.3,0.9,6.3,1.4,9,1.5l0.8,0c0.5,0,1.1,0,1.6,0c1.7-0.1,3.3-0.3,5.1-0.5
			l0.9-0.1l0.8,0.5c3.6,2.5,7.7,4.4,12,5.6c14.2,4.1,29.2,0.4,40.1-9.7c5.6-5.2,9.7-11.9,11.8-19.3
			C-104.3,390-105.7,378.6-111.1,368.7 M-173.1,395.9c-3.7,0-6.6-3-6.6-6.7c0-3.7,3-6.6,6.6-6.6c3.7,0,6.6,3,6.6,6.6
			C-166.5,392.9-169.4,395.9-173.1,395.9 M-147.8,395.9c-3.7,0-6.6-3-6.6-6.7c0-3.7,3-6.6,6.6-6.6c3.7,0,6.6,3,6.6,6.6
			C-141.2,392.9-144.1,395.9-147.8,395.9 M-122.5,395.9c-3.7,0-6.6-3-6.6-6.7c0-3.7,3-6.6,6.6-6.6c3.7,0,6.6,3,6.6,6.6
			C-115.9,392.9-118.8,395.9-122.5,395.9"/>
	</defs>
	<clipPath id="SVGID_262_">
		<use xlink:href="#SVGID_355_"  style="overflow:visible;"/>
	</clipPath>
	<g style="clip-path:url(#SVGID_262_);">
		<defs>
			<rect id="SVGID_357_" x="-666.3" y="-1327.9" width="1440" height="2734"/>
		</defs>
		<clipPath id="SVGID_264_">
			<use xlink:href="#SVGID_357_"  style="overflow:visible;"/>
		</clipPath>
	</g>
</g>
<g>
	<defs>
		<path id="SVGID_359_" d="M199,400.8c2.1,7.4,6.2,14.1,11.8,19.3c10.9,10.1,25.9,13.8,40.1,9.7c4.3-1.2,8.3-3.1,12-5.6l0.8-0.5
			l0.9,0.1c1.8,0.3,3.4,0.5,5.1,0.5c0.6,0,1.1,0,1.6,0l0.8,0c2.7,0,5.8-0.5,9-1.5l0.3-0.1c4-1.2,4.2-2.7,4.3-3.2
			c0.2-1-0.2-1.8-1.2-2.5l-6.3-4.8c-0.5-0.3-0.8-0.6-1.1-0.9l-1.3-1.2l0.8-1.6c4.9-9.6,6-20.6,3.1-31c-2.1-7.4-6.2-14.1-11.8-19.3
			c-10.9-10.2-25.9-13.8-40.1-9.7c-5.4,1.5-10.3,4.1-14.6,7.5c-4.3,3.4-7.9,7.6-10.6,12.6C197.2,378.6,195.9,390,199,400.8
			 M258,389.2c0-3.7,3-6.6,6.6-6.6c3.7,0,6.6,3,6.6,6.6c0,3.7-3,6.7-6.6,6.7C261,395.9,258,392.9,258,389.2 M232.7,389.2
			c0-3.7,3-6.6,6.6-6.6c3.7,0,6.6,3,6.6,6.6c0,3.7-3,6.7-6.6,6.7C235.7,395.9,232.7,392.9,232.7,389.2 M207.4,389.2
			c0-3.7,3-6.6,6.6-6.6c3.7,0,6.6,3,6.6,6.6c0,3.7-3,6.7-6.6,6.7C210.4,395.9,207.4,392.9,207.4,389.2"/>
	</defs>
	<clipPath id="SVGID_266_">
		<use xlink:href="#SVGID_359_"  style="overflow:visible;"/>
	</clipPath>
	<g style="clip-path:url(#SVGID_266_);">
		<defs>
			<rect id="SVGID_361_" x="-666.3" y="-1327.9" width="1440" height="2734"/>
		</defs>
		<clipPath id="SVGID_268_">
			<use xlink:href="#SVGID_361_"  style="overflow:visible;"/>
		</clipPath>
	</g>
</g>
</svg>
